<svg xmlns="http://www.w3.org/2000/svg" width="71.12mm" height="128.5mm" viewBox="0 0 71.12 128.5">
<rect x="0" y="0" width="71.12" height="128.5" fill="#23262c"/>
<rect x="0.4" y="0.4" width="70.32000000000001" height="127.7" fill="none" stroke="#171a1f" stroke-width="0.8"/>
<path d="M 31.290 5.600 L 30.590 4.900 L 29.190 4.900 L 28.490 5.600 L 28.490 8.400 L 29.190 9.100 L 30.590 9.100 L 31.290 8.400" fill="none" stroke="#d9a441" stroke-width="0.850" stroke-linecap="round" stroke-linejoin="round"/>
<path d="M 32.270 9.100 L 33.670 4.900 L 35.070 9.100" fill="none" stroke="#d9a441" stroke-width="0.850" stroke-linecap="round" stroke-linejoin="round"/>
<path d="M 32.900 7.630 L 34.440 7.630" fill="none" stroke="#d9a441" stroke-width="0.850" stroke-linecap="round" stroke-linejoin="round"/>
<path d="M 36.050 9.100 L 36.050 4.900 L 38.150 4.900 L 38.850 5.530 L 38.850 6.510 L 38.150 7.140 L 36.050 7.140" fill="none" stroke="#d9a441" stroke-width="0.850" stroke-linecap="round" stroke-linejoin="round"/>
<path d="M 40.530 4.900 L 41.930 4.900 L 42.630 5.600 L 42.630 8.400 L 41.930 9.100 L 40.530 9.100 L 39.830 8.400 L 39.830 5.600 L 40.530 4.900" fill="none" stroke="#d9a441" stroke-width="0.850" stroke-linecap="round" stroke-linejoin="round"/>
<path d="M 14 4.5 L 14 9.5" stroke="#d9a441" stroke-width="0.4" opacity="0.55"/>
<path d="M 45 4.5 L 45 9.5" stroke="#d9a441" stroke-width="0.4" opacity="0.55"/>
<path d="M 18 4.5 L 18 9.5" stroke="#d9a441" stroke-width="0.4" opacity="0.55"/>
<path d="M 49 4.5 L 49 9.5" stroke="#d9a441" stroke-width="0.4" opacity="0.55"/>
<path d="M 22 4.5 L 22 9.5" stroke="#d9a441" stroke-width="0.4" opacity="0.55"/>
<path d="M 53 4.5 L 53 9.5" stroke="#d9a441" stroke-width="0.4" opacity="0.55"/>
<path d="M 26 4.5 L 26 9.5" stroke="#d9a441" stroke-width="0.4" opacity="0.55"/>
<path d="M 57 4.5 L 57 9.5" stroke="#d9a441" stroke-width="0.4" opacity="0.55"/>
<rect x="20.5" y="4" width="1.6" height="6" rx="0.8" fill="#d9a441" opacity="0.85"/>
<rect x="51.5" y="4" width="1.6" height="6" rx="0.8" fill="#d9a441" opacity="0.85"/>
<path d="M 9.397 18.250 L 9.397 16.950 L 9.830 17.643 L 10.263 16.950 L 10.263 18.250" fill="none" stroke="#8b8f99" stroke-width="0.280" stroke-linecap="round" stroke-linejoin="round"/>
<path d="M 10.567 18.250 L 11.000 16.950 L 11.433 18.250" fill="none" stroke="#8b8f99" stroke-width="0.280" stroke-linecap="round" stroke-linejoin="round"/>
<path d="M 10.762 17.795 L 11.238 17.795" fill="none" stroke="#8b8f99" stroke-width="0.280" stroke-linecap="round" stroke-linejoin="round"/>
<path d="M 12.387 16.950 L 12.387 18.033 L 12.170 18.250 L 11.953 18.250 L 11.737 18.033" fill="none" stroke="#8b8f99" stroke-width="0.280" stroke-linecap="round" stroke-linejoin="round"/>
<path d="M 17.597 18.250 L 17.597 16.950 L 18.030 17.643 L 18.463 16.950 L 18.463 18.250" fill="none" stroke="#8b8f99" stroke-width="0.280" stroke-linecap="round" stroke-linejoin="round"/>
<path d="M 19.200 16.950 L 19.200 18.250" fill="none" stroke="#8b8f99" stroke-width="0.280" stroke-linecap="round" stroke-linejoin="round"/>
<path d="M 19.937 18.250 L 19.937 16.950 L 20.803 18.250 L 20.803 16.950" fill="none" stroke="#8b8f99" stroke-width="0.280" stroke-linecap="round" stroke-linejoin="round"/>
<path d="M 25.797 16.950 L 25.797 18.250" fill="none" stroke="#8b8f99" stroke-width="0.280" stroke-linecap="round" stroke-linejoin="round"/>
<path d="M 25.797 16.950 L 26.403 16.950 L 26.663 17.253 L 26.663 17.947 L 26.403 18.250 L 25.797 18.250" fill="none" stroke="#8b8f99" stroke-width="0.280" stroke-linecap="round" stroke-linejoin="round"/>
<path d="M 27.183 16.950 L 27.617 16.950 L 27.833 17.167 L 27.833 18.033 L 27.617 18.250 L 27.183 18.250 L 26.967 18.033 L 26.967 17.167 L 27.183 16.950" fill="none" stroke="#8b8f99" stroke-width="0.280" stroke-linecap="round" stroke-linejoin="round"/>
<path d="M 28.137 18.250 L 28.137 16.950 L 28.570 17.643 L 29.003 16.950 L 29.003 18.250" fill="none" stroke="#8b8f99" stroke-width="0.280" stroke-linecap="round" stroke-linejoin="round"/>
<path d="M 33.997 16.950 L 33.997 18.250" fill="none" stroke="#8b8f99" stroke-width="0.280" stroke-linecap="round" stroke-linejoin="round"/>
<path d="M 33.997 16.950 L 34.603 16.950 L 34.863 17.253 L 34.863 17.947 L 34.603 18.250 L 33.997 18.250" fill="none" stroke="#8b8f99" stroke-width="0.280" stroke-linecap="round" stroke-linejoin="round"/>
<path d="M 35.600 16.950 L 35.600 18.250" fill="none" stroke="#8b8f99" stroke-width="0.280" stroke-linecap="round" stroke-linejoin="round"/>
<path d="M 36.337 18.250 L 36.337 16.950 L 36.770 17.643 L 37.203 16.950 L 37.203 18.250" fill="none" stroke="#8b8f99" stroke-width="0.280" stroke-linecap="round" stroke-linejoin="round"/>
<path d="M 43.063 17.145 L 42.847 16.950 L 42.413 16.950 L 42.197 17.145 L 42.197 17.405 L 42.413 17.600 L 42.847 17.600 L 43.063 17.795 L 43.063 18.055 L 42.847 18.250 L 42.413 18.250 L 42.197 18.055" fill="none" stroke="#8b8f99" stroke-width="0.280" stroke-linecap="round" stroke-linejoin="round"/>
<path d="M 43.367 16.950 L 43.367 18.033 L 43.583 18.250 L 44.017 18.250 L 44.233 18.033 L 44.233 16.950" fill="none" stroke="#8b8f99" stroke-width="0.280" stroke-linecap="round" stroke-linejoin="round"/>
<path d="M 45.403 17.145 L 45.187 16.950 L 44.753 16.950 L 44.537 17.145 L 44.537 17.405 L 44.753 17.600 L 45.187 17.600 L 45.403 17.795 L 45.403 18.055 L 45.187 18.250 L 44.753 18.250 L 44.537 18.055" fill="none" stroke="#8b8f99" stroke-width="0.280" stroke-linecap="round" stroke-linejoin="round"/>
<path d="M 50.397 18.250 L 50.830 16.950 L 51.263 18.250" fill="none" stroke="#8b8f99" stroke-width="0.280" stroke-linecap="round" stroke-linejoin="round"/>
<path d="M 50.592 17.795 L 51.068 17.795" fill="none" stroke="#8b8f99" stroke-width="0.280" stroke-linecap="round" stroke-linejoin="round"/>
<path d="M 51.567 16.950 L 51.567 18.033 L 51.783 18.250 L 52.217 18.250 L 52.433 18.033 L 52.433 16.950" fill="none" stroke="#8b8f99" stroke-width="0.280" stroke-linecap="round" stroke-linejoin="round"/>
<path d="M 53.603 17.167 L 53.387 16.950 L 52.953 16.950 L 52.737 17.167 L 52.737 18.033 L 52.953 18.250 L 53.387 18.250 L 53.603 18.033 L 53.603 17.643 L 53.257 17.643" fill="none" stroke="#8b8f99" stroke-width="0.280" stroke-linecap="round" stroke-linejoin="round"/>
<path d="M 59.767 16.950 L 60.633 18.250" fill="none" stroke="#8b8f99" stroke-width="0.280" stroke-linecap="round" stroke-linejoin="round"/>
<path d="M 60.633 16.950 L 59.767 18.250" fill="none" stroke="#8b8f99" stroke-width="0.280" stroke-linecap="round" stroke-linejoin="round"/>
<path d="M 8.802 36.950 L 8.802 35.050 L 9.752 35.050 L 10.068 35.303 L 10.068 35.747 L 9.752 36.000 L 8.802 36.000" fill="none" stroke="#e8e4da" stroke-width="0.304" stroke-linecap="round" stroke-linejoin="round"/>
<path d="M 9.752 36.000 L 10.068 36.253 L 10.068 36.697 L 9.752 36.950 L 8.802 36.950" fill="none" stroke="#e8e4da" stroke-width="0.304" stroke-linecap="round" stroke-linejoin="round"/>
<path d="M 10.512 36.950 L 11.145 35.050 L 11.778 36.950" fill="none" stroke="#e8e4da" stroke-width="0.304" stroke-linecap="round" stroke-linejoin="round"/>
<path d="M 10.797 36.285 L 11.493 36.285" fill="none" stroke="#e8e4da" stroke-width="0.304" stroke-linecap="round" stroke-linejoin="round"/>
<path d="M 12.222 36.950 L 12.222 35.050 L 13.488 36.950 L 13.488 35.050" fill="none" stroke="#e8e4da" stroke-width="0.304" stroke-linecap="round" stroke-linejoin="round"/>
<path d="M 13.932 35.050 L 13.932 36.950" fill="none" stroke="#e8e4da" stroke-width="0.304" stroke-linecap="round" stroke-linejoin="round"/>
<path d="M 15.198 35.050 L 13.932 36.063 L 15.198 36.950" fill="none" stroke="#e8e4da" stroke-width="0.304" stroke-linecap="round" stroke-linejoin="round"/>
<path d="M 8.802 51.050 L 9.087 52.950 L 9.435 51.810 L 9.783 52.950 L 10.068 51.050" fill="none" stroke="#e8e4da" stroke-width="0.304" stroke-linecap="round" stroke-linejoin="round"/>
<path d="M 10.512 52.950 L 11.145 51.050 L 11.778 52.950" fill="none" stroke="#e8e4da" stroke-width="0.304" stroke-linecap="round" stroke-linejoin="round"/>
<path d="M 10.797 52.285 L 11.493 52.285" fill="none" stroke="#e8e4da" stroke-width="0.304" stroke-linecap="round" stroke-linejoin="round"/>
<path d="M 12.222 51.050 L 12.855 52.950 L 13.488 51.050" fill="none" stroke="#e8e4da" stroke-width="0.304" stroke-linecap="round" stroke-linejoin="round"/>
<path d="M 15.198 51.050 L 13.932 51.050 L 13.932 52.950 L 15.198 52.950" fill="none" stroke="#e8e4da" stroke-width="0.304" stroke-linecap="round" stroke-linejoin="round"/>
<path d="M 13.932 52.000 L 14.818 52.000" fill="none" stroke="#e8e4da" stroke-width="0.304" stroke-linecap="round" stroke-linejoin="round"/>
<path d="M 34.365 38.150 L 32.965 38.150 L 32.965 40.250" fill="none" stroke="#e8e4da" stroke-width="0.336" stroke-linecap="round" stroke-linejoin="round"/>
<path d="M 32.965 39.200 L 33.945 39.200" fill="none" stroke="#e8e4da" stroke-width="0.336" stroke-linecap="round" stroke-linejoin="round"/>
<path d="M 34.855 40.250 L 34.855 38.150 L 35.905 38.150 L 36.255 38.465 L 36.255 38.955 L 35.905 39.270 L 34.855 39.270" fill="none" stroke="#e8e4da" stroke-width="0.336" stroke-linecap="round" stroke-linejoin="round"/>
<path d="M 35.555 39.270 L 36.255 40.250" fill="none" stroke="#e8e4da" stroke-width="0.336" stroke-linecap="round" stroke-linejoin="round"/>
<path d="M 38.145 38.150 L 36.745 38.150 L 36.745 40.250 L 38.145 40.250" fill="none" stroke="#e8e4da" stroke-width="0.336" stroke-linecap="round" stroke-linejoin="round"/>
<path d="M 36.745 39.200 L 37.725 39.200" fill="none" stroke="#e8e4da" stroke-width="0.336" stroke-linecap="round" stroke-linejoin="round"/>
<path d="M 38.985 38.150 L 39.685 38.150 L 40.035 38.500 L 40.035 39.900 L 39.685 40.250 L 38.985 40.250 L 38.635 39.900 L 38.635 38.500 L 38.985 38.150" fill="none" stroke="#e8e4da" stroke-width="0.336" stroke-linecap="round" stroke-linejoin="round"/>
<path d="M 39.545 39.690 L 40.140 40.390" fill="none" stroke="#e8e4da" stroke-width="0.336" stroke-linecap="round" stroke-linejoin="round"/>
<path d="M 34.975 50.550 L 33.975 50.550 L 33.975 52.050" fill="none" stroke="#8b8f99" stroke-width="0.280" stroke-linecap="round" stroke-linejoin="round"/>
<path d="M 33.975 51.300 L 34.675 51.300" fill="none" stroke="#8b8f99" stroke-width="0.280" stroke-linecap="round" stroke-linejoin="round"/>
<path d="M 35.825 50.550 L 35.825 52.050" fill="none" stroke="#8b8f99" stroke-width="0.280" stroke-linecap="round" stroke-linejoin="round"/>
<path d="M 36.675 52.050 L 36.675 50.550 L 37.675 52.050 L 37.675 50.550" fill="none" stroke="#8b8f99" stroke-width="0.280" stroke-linecap="round" stroke-linejoin="round"/>
<path d="M 39.025 50.550 L 38.025 50.550 L 38.025 52.050 L 39.025 52.050" fill="none" stroke="#8b8f99" stroke-width="0.280" stroke-linecap="round" stroke-linejoin="round"/>
<path d="M 38.025 51.300 L 38.725 51.300" fill="none" stroke="#8b8f99" stroke-width="0.280" stroke-linecap="round" stroke-linejoin="round"/>
<path d="M 53.553 53.050 L 54.187 53.050 L 54.503 53.367 L 54.503 54.633 L 54.187 54.950 L 53.553 54.950 L 53.237 54.633 L 53.237 53.367 L 53.553 53.050" fill="none" stroke="#e8e4da" stroke-width="0.304" stroke-linecap="round" stroke-linejoin="round"/>
<path d="M 54.060 54.443 L 54.598 55.077" fill="none" stroke="#e8e4da" stroke-width="0.304" stroke-linecap="round" stroke-linejoin="round"/>
<path d="M 54.947 53.050 L 54.947 54.633 L 55.263 54.950 L 55.897 54.950 L 56.213 54.633 L 56.213 53.050" fill="none" stroke="#e8e4da" stroke-width="0.304" stroke-linecap="round" stroke-linejoin="round"/>
<path d="M 56.657 54.950 L 57.290 53.050 L 57.923 54.950" fill="none" stroke="#e8e4da" stroke-width="0.304" stroke-linecap="round" stroke-linejoin="round"/>
<path d="M 56.942 54.285 L 57.638 54.285" fill="none" stroke="#e8e4da" stroke-width="0.304" stroke-linecap="round" stroke-linejoin="round"/>
<path d="M 58.367 53.050 L 58.367 54.950 L 59.633 54.950" fill="none" stroke="#e8e4da" stroke-width="0.304" stroke-linecap="round" stroke-linejoin="round"/>
<path d="M 60.710 53.050 L 60.710 54.950" fill="none" stroke="#e8e4da" stroke-width="0.304" stroke-linecap="round" stroke-linejoin="round"/>
<path d="M 61.787 53.050 L 63.053 53.050" fill="none" stroke="#e8e4da" stroke-width="0.304" stroke-linecap="round" stroke-linejoin="round"/>
<path d="M 62.420 53.050 L 62.420 54.950" fill="none" stroke="#e8e4da" stroke-width="0.304" stroke-linecap="round" stroke-linejoin="round"/>
<path d="M 63.497 53.050 L 64.130 54.000 L 64.763 53.050" fill="none" stroke="#e8e4da" stroke-width="0.304" stroke-linecap="round" stroke-linejoin="round"/>
<path d="M 64.130 54.000 L 64.130 54.950" fill="none" stroke="#e8e4da" stroke-width="0.304" stroke-linecap="round" stroke-linejoin="round"/>
<path d="M 48.975 22.250 L 48.975 20.750 L 49.475 21.550 L 49.975 20.750 L 49.975 22.250" fill="none" stroke="#8b8f99" stroke-width="0.280" stroke-linecap="round" stroke-linejoin="round"/>
<path d="M 50.575 20.750 L 51.075 20.750 L 51.325 21.000 L 51.325 22.000 L 51.075 22.250 L 50.575 22.250 L 50.325 22.000 L 50.325 21.000 L 50.575 20.750" fill="none" stroke="#8b8f99" stroke-width="0.280" stroke-linecap="round" stroke-linejoin="round"/>
<path d="M 51.675 20.750 L 51.675 22.250" fill="none" stroke="#8b8f99" stroke-width="0.280" stroke-linecap="round" stroke-linejoin="round"/>
<path d="M 51.675 20.750 L 52.375 20.750 L 52.675 21.100 L 52.675 21.900 L 52.375 22.250 L 51.675 22.250" fill="none" stroke="#8b8f99" stroke-width="0.280" stroke-linecap="round" stroke-linejoin="round"/>
<path d="M 54.025 20.750 L 53.025 20.750 L 53.025 22.250 L 54.025 22.250" fill="none" stroke="#8b8f99" stroke-width="0.280" stroke-linecap="round" stroke-linejoin="round"/>
<path d="M 53.025 21.500 L 53.725 21.500" fill="none" stroke="#8b8f99" stroke-width="0.280" stroke-linecap="round" stroke-linejoin="round"/>
<path d="M 48.975 28.250 L 48.975 29.750" fill="none" stroke="#8b8f99" stroke-width="0.280" stroke-linecap="round" stroke-linejoin="round"/>
<path d="M 49.975 28.250 L 49.975 29.750" fill="none" stroke="#8b8f99" stroke-width="0.280" stroke-linecap="round" stroke-linejoin="round"/>
<path d="M 48.975 29.000 L 49.975 29.000" fill="none" stroke="#8b8f99" stroke-width="0.280" stroke-linecap="round" stroke-linejoin="round"/>
<path d="M 50.325 29.750 L 50.825 28.250 L 51.325 29.750" fill="none" stroke="#8b8f99" stroke-width="0.280" stroke-linecap="round" stroke-linejoin="round"/>
<path d="M 50.550 29.225 L 51.100 29.225" fill="none" stroke="#8b8f99" stroke-width="0.280" stroke-linecap="round" stroke-linejoin="round"/>
<path d="M 51.675 29.750 L 51.675 28.250 L 52.425 28.250 L 52.675 28.475 L 52.675 28.825 L 52.425 29.050 L 51.675 29.050" fill="none" stroke="#8b8f99" stroke-width="0.280" stroke-linecap="round" stroke-linejoin="round"/>
<path d="M 52.175 29.050 L 52.675 29.750" fill="none" stroke="#8b8f99" stroke-width="0.280" stroke-linecap="round" stroke-linejoin="round"/>
<path d="M 53.025 29.750 L 53.025 28.250 L 53.525 29.050 L 54.025 28.250 L 54.025 29.750" fill="none" stroke="#8b8f99" stroke-width="0.280" stroke-linecap="round" stroke-linejoin="round"/>
<path d="M 48.000 35.750 L 49.000 35.750" fill="none" stroke="#8b8f99" stroke-width="0.280" stroke-linecap="round" stroke-linejoin="round"/>
<path d="M 48.500 35.750 L 48.500 37.250" fill="none" stroke="#8b8f99" stroke-width="0.280" stroke-linecap="round" stroke-linejoin="round"/>
<path d="M 49.350 37.250 L 49.350 35.750 L 50.100 35.750 L 50.350 35.975 L 50.350 36.325 L 50.100 36.550 L 49.350 36.550" fill="none" stroke="#8b8f99" stroke-width="0.280" stroke-linecap="round" stroke-linejoin="round"/>
<path d="M 49.850 36.550 L 50.350 37.250" fill="none" stroke="#8b8f99" stroke-width="0.280" stroke-linecap="round" stroke-linejoin="round"/>
<path d="M 51.200 35.750 L 51.200 37.250" fill="none" stroke="#8b8f99" stroke-width="0.280" stroke-linecap="round" stroke-linejoin="round"/>
<path d="M 52.050 37.250 L 52.550 35.750 L 53.050 37.250" fill="none" stroke="#8b8f99" stroke-width="0.280" stroke-linecap="round" stroke-linejoin="round"/>
<path d="M 52.275 36.725 L 52.825 36.725" fill="none" stroke="#8b8f99" stroke-width="0.280" stroke-linecap="round" stroke-linejoin="round"/>
<path d="M 53.400 35.750 L 53.400 37.250" fill="none" stroke="#8b8f99" stroke-width="0.280" stroke-linecap="round" stroke-linejoin="round"/>
<path d="M 53.400 35.750 L 54.100 35.750 L 54.400 36.100 L 54.400 36.900 L 54.100 37.250 L 53.400 37.250" fill="none" stroke="#8b8f99" stroke-width="0.280" stroke-linecap="round" stroke-linejoin="round"/>
<circle cx="9.0" cy="64.0" r="4.4" fill="none" stroke="#3c414b" stroke-width="0.5"/>
<path d="M 8.825 56.850 L 7.825 56.850 L 7.825 58.350" fill="none" stroke="#8b8f99" stroke-width="0.280" stroke-linecap="round" stroke-linejoin="round"/>
<path d="M 7.825 57.600 L 8.525 57.600" fill="none" stroke="#8b8f99" stroke-width="0.280" stroke-linecap="round" stroke-linejoin="round"/>
<path d="M 9.175 58.350 L 9.175 56.850 L 9.675 57.650 L 10.175 56.850 L 10.175 58.350" fill="none" stroke="#8b8f99" stroke-width="0.280" stroke-linecap="round" stroke-linejoin="round"/>
<path d="M 34.237 66.550 L 34.870 68.450 L 35.503 66.550" fill="none" stroke="#e8e4da" stroke-width="0.304" stroke-linecap="round" stroke-linejoin="round"/>
<path d="M 36.263 66.550 L 36.897 66.550 L 37.213 66.867 L 37.213 68.133 L 36.897 68.450 L 36.263 68.450 L 35.947 68.133 L 35.947 66.867 L 36.263 66.550" fill="none" stroke="#e8e4da" stroke-width="0.304" stroke-linecap="round" stroke-linejoin="round"/>
<path d="M 38.290 66.550 L 38.290 68.450" fill="none" stroke="#e8e4da" stroke-width="0.304" stroke-linecap="round" stroke-linejoin="round"/>
<path d="M 40.633 66.867 L 40.317 66.550 L 39.683 66.550 L 39.367 66.867 L 39.367 68.133 L 39.683 68.450 L 40.317 68.450 L 40.633 68.133" fill="none" stroke="#e8e4da" stroke-width="0.304" stroke-linecap="round" stroke-linejoin="round"/>
<path d="M 41.710 66.550 L 41.710 68.450" fill="none" stroke="#e8e4da" stroke-width="0.304" stroke-linecap="round" stroke-linejoin="round"/>
<path d="M 42.787 68.450 L 42.787 66.550 L 44.053 68.450 L 44.053 66.550" fill="none" stroke="#e8e4da" stroke-width="0.304" stroke-linecap="round" stroke-linejoin="round"/>
<path d="M 45.763 66.867 L 45.447 66.550 L 44.813 66.550 L 44.497 66.867 L 44.497 68.133 L 44.813 68.450 L 45.447 68.450 L 45.763 68.133 L 45.763 67.563 L 45.257 67.563" fill="none" stroke="#e8e4da" stroke-width="0.304" stroke-linecap="round" stroke-linejoin="round"/>
<circle cx="9.0" cy="78.0" r="4.4" fill="none" stroke="#3c414b" stroke-width="0.5"/>
<path d="M 6.728 72.275 L 6.728 70.925 L 7.402 70.925 L 7.628 71.105 L 7.628 71.420 L 7.402 71.600 L 6.728 71.600" fill="none" stroke="#8b8f99" stroke-width="0.280" stroke-linecap="round" stroke-linejoin="round"/>
<path d="M 7.402 71.600 L 7.628 71.780 L 7.628 72.095 L 7.402 72.275 L 6.728 72.275" fill="none" stroke="#8b8f99" stroke-width="0.280" stroke-linecap="round" stroke-linejoin="round"/>
<path d="M 7.942 72.275 L 8.393 70.925 L 8.842 72.275" fill="none" stroke="#8b8f99" stroke-width="0.280" stroke-linecap="round" stroke-linejoin="round"/>
<path d="M 8.145 71.802 L 8.640 71.802" fill="none" stroke="#8b8f99" stroke-width="0.280" stroke-linecap="round" stroke-linejoin="round"/>
<path d="M 9.158 72.275 L 9.158 70.925 L 10.058 72.275 L 10.058 70.925" fill="none" stroke="#8b8f99" stroke-width="0.280" stroke-linecap="round" stroke-linejoin="round"/>
<path d="M 10.373 70.925 L 10.373 72.275" fill="none" stroke="#8b8f99" stroke-width="0.280" stroke-linecap="round" stroke-linejoin="round"/>
<path d="M 11.273 70.925 L 10.373 71.645 L 11.273 72.275" fill="none" stroke="#8b8f99" stroke-width="0.280" stroke-linecap="round" stroke-linejoin="round"/>
<circle cx="19.6" cy="78.0" r="4.4" fill="none" stroke="#3c414b" stroke-width="0.5"/>
<path d="M 17.328 70.925 L 17.530 72.275 L 17.777 71.465 L 18.025 72.275 L 18.227 70.925" fill="none" stroke="#8b8f99" stroke-width="0.280" stroke-linecap="round" stroke-linejoin="round"/>
<path d="M 18.543 72.275 L 18.992 70.925 L 19.442 72.275" fill="none" stroke="#8b8f99" stroke-width="0.280" stroke-linecap="round" stroke-linejoin="round"/>
<path d="M 18.745 71.802 L 19.240 71.802" fill="none" stroke="#8b8f99" stroke-width="0.280" stroke-linecap="round" stroke-linejoin="round"/>
<path d="M 19.758 70.925 L 20.207 72.275 L 20.657 70.925" fill="none" stroke="#8b8f99" stroke-width="0.280" stroke-linecap="round" stroke-linejoin="round"/>
<path d="M 21.872 70.925 L 20.973 70.925 L 20.973 72.275 L 21.872 72.275" fill="none" stroke="#8b8f99" stroke-width="0.280" stroke-linecap="round" stroke-linejoin="round"/>
<path d="M 20.973 71.600 L 21.602 71.600" fill="none" stroke="#8b8f99" stroke-width="0.280" stroke-linecap="round" stroke-linejoin="round"/>
<circle cx="30.2" cy="78.0" r="4.4" fill="none" stroke="#3c414b" stroke-width="0.5"/>
<path d="M 27.320 70.925 L 27.770 72.275 L 28.220 70.925" fill="none" stroke="#8b8f99" stroke-width="0.280" stroke-linecap="round" stroke-linejoin="round"/>
<path d="M 28.760 70.925 L 29.210 70.925 L 29.435 71.150 L 29.435 72.050 L 29.210 72.275 L 28.760 72.275 L 28.535 72.050 L 28.535 71.150 L 28.760 70.925" fill="none" stroke="#8b8f99" stroke-width="0.280" stroke-linecap="round" stroke-linejoin="round"/>
<path d="M 30.200 70.925 L 30.200 72.275" fill="none" stroke="#8b8f99" stroke-width="0.280" stroke-linecap="round" stroke-linejoin="round"/>
<path d="M 31.865 71.150 L 31.640 70.925 L 31.190 70.925 L 30.965 71.150 L 30.965 72.050 L 31.190 72.275 L 31.640 72.275 L 31.865 72.050" fill="none" stroke="#8b8f99" stroke-width="0.280" stroke-linecap="round" stroke-linejoin="round"/>
<path d="M 33.080 70.925 L 32.180 70.925 L 32.180 72.275 L 33.080 72.275" fill="none" stroke="#8b8f99" stroke-width="0.280" stroke-linecap="round" stroke-linejoin="round"/>
<path d="M 32.180 71.600 L 32.810 71.600" fill="none" stroke="#8b8f99" stroke-width="0.280" stroke-linecap="round" stroke-linejoin="round"/>
<circle cx="40.8" cy="78.0" r="4.4" fill="none" stroke="#3c414b" stroke-width="0.5"/>
<path d="M 38.752 70.925 L 39.202 70.925 L 39.427 71.150 L 39.427 72.050 L 39.202 72.275 L 38.752 72.275 L 38.527 72.050 L 38.527 71.150 L 38.752 70.925" fill="none" stroke="#8b8f99" stroke-width="0.280" stroke-linecap="round" stroke-linejoin="round"/>
<path d="M 39.112 71.915 L 39.495 72.365" fill="none" stroke="#8b8f99" stroke-width="0.280" stroke-linecap="round" stroke-linejoin="round"/>
<path d="M 39.742 70.925 L 39.742 72.050 L 39.968 72.275 L 40.417 72.275 L 40.642 72.050 L 40.642 70.925" fill="none" stroke="#8b8f99" stroke-width="0.280" stroke-linecap="round" stroke-linejoin="round"/>
<path d="M 40.957 72.275 L 41.407 70.925 L 41.857 72.275" fill="none" stroke="#8b8f99" stroke-width="0.280" stroke-linecap="round" stroke-linejoin="round"/>
<path d="M 41.160 71.802 L 41.655 71.802" fill="none" stroke="#8b8f99" stroke-width="0.280" stroke-linecap="round" stroke-linejoin="round"/>
<path d="M 42.172 70.925 L 42.172 72.275 L 43.072 72.275" fill="none" stroke="#8b8f99" stroke-width="0.280" stroke-linecap="round" stroke-linejoin="round"/>
<circle cx="51.4" cy="78.0" r="4.4" fill="none" stroke="#3c414b" stroke-width="0.5"/>
<path d="M 49.127 70.925 L 49.127 72.275 L 50.027 72.275" fill="none" stroke="#8b8f99" stroke-width="0.280" stroke-linecap="round" stroke-linejoin="round"/>
<path d="M 51.242 70.925 L 50.343 70.925 L 50.343 72.275 L 51.242 72.275" fill="none" stroke="#8b8f99" stroke-width="0.280" stroke-linecap="round" stroke-linejoin="round"/>
<path d="M 50.343 71.600 L 50.973 71.600" fill="none" stroke="#8b8f99" stroke-width="0.280" stroke-linecap="round" stroke-linejoin="round"/>
<path d="M 51.557 72.275 L 52.008 70.925 L 52.457 72.275" fill="none" stroke="#8b8f99" stroke-width="0.280" stroke-linecap="round" stroke-linejoin="round"/>
<path d="M 51.760 71.802 L 52.255 71.802" fill="none" stroke="#8b8f99" stroke-width="0.280" stroke-linecap="round" stroke-linejoin="round"/>
<path d="M 52.773 70.925 L 52.773 72.275" fill="none" stroke="#8b8f99" stroke-width="0.280" stroke-linecap="round" stroke-linejoin="round"/>
<path d="M 52.773 70.925 L 53.403 70.925 L 53.672 71.240 L 53.672 71.960 L 53.403 72.275 L 52.773 72.275" fill="none" stroke="#8b8f99" stroke-width="0.280" stroke-linecap="round" stroke-linejoin="round"/>
<circle cx="62.0" cy="78.0" r="4.4" fill="none" stroke="#3c414b" stroke-width="0.5"/>
<path d="M 59.120 70.925 L 59.570 72.275 L 60.020 70.925" fill="none" stroke="#8b8f99" stroke-width="0.280" stroke-linecap="round" stroke-linejoin="round"/>
<path d="M 60.425 72.365 L 61.145 70.835" fill="none" stroke="#8b8f99" stroke-width="0.280" stroke-linecap="round" stroke-linejoin="round"/>
<path d="M 61.775 70.925 L 62.225 70.925 L 62.450 71.150 L 62.450 72.050 L 62.225 72.275 L 61.775 72.275 L 61.550 72.050 L 61.550 71.150 L 61.775 70.925" fill="none" stroke="#8b8f99" stroke-width="0.280" stroke-linecap="round" stroke-linejoin="round"/>
<path d="M 63.665 71.150 L 63.440 70.925 L 62.990 70.925 L 62.765 71.150 L 62.765 72.050 L 62.990 72.275 L 63.440 72.275 L 63.665 72.050" fill="none" stroke="#8b8f99" stroke-width="0.280" stroke-linecap="round" stroke-linejoin="round"/>
<path d="M 63.980 70.925 L 64.880 70.925" fill="none" stroke="#8b8f99" stroke-width="0.280" stroke-linecap="round" stroke-linejoin="round"/>
<path d="M 64.430 70.925 L 64.430 72.275" fill="none" stroke="#8b8f99" stroke-width="0.280" stroke-linecap="round" stroke-linejoin="round"/>
<circle cx="11.0" cy="96.0" r="4.4" fill="none" stroke="#d9a441" stroke-width="0.5"/>
<path d="M 8.727 90.275 L 8.727 88.925 L 9.402 88.925 L 9.627 89.127 L 9.627 89.442 L 9.402 89.645 L 8.727 89.645" fill="none" stroke="#e8e4da" stroke-width="0.280" stroke-linecap="round" stroke-linejoin="round"/>
<path d="M 9.177 89.645 L 9.627 90.275" fill="none" stroke="#e8e4da" stroke-width="0.280" stroke-linecap="round" stroke-linejoin="round"/>
<path d="M 10.167 88.925 L 10.617 88.925 L 10.842 89.150 L 10.842 90.050 L 10.617 90.275 L 10.167 90.275 L 9.942 90.050 L 9.942 89.150 L 10.167 88.925" fill="none" stroke="#e8e4da" stroke-width="0.280" stroke-linecap="round" stroke-linejoin="round"/>
<path d="M 11.382 88.925 L 11.832 88.925 L 12.057 89.150 L 12.057 90.050 L 11.832 90.275 L 11.382 90.275 L 11.157 90.050 L 11.157 89.150 L 11.382 88.925" fill="none" stroke="#e8e4da" stroke-width="0.280" stroke-linecap="round" stroke-linejoin="round"/>
<path d="M 12.372 88.925 L 13.272 88.925" fill="none" stroke="#e8e4da" stroke-width="0.280" stroke-linecap="round" stroke-linejoin="round"/>
<path d="M 12.822 88.925 L 12.822 90.275" fill="none" stroke="#e8e4da" stroke-width="0.280" stroke-linecap="round" stroke-linejoin="round"/>
<circle cx="23.2" cy="96.0" r="4.4" fill="none" stroke="#d9a441" stroke-width="0.5"/>
<path d="M 20.320 88.925 L 21.220 88.925" fill="none" stroke="#e8e4da" stroke-width="0.280" stroke-linecap="round" stroke-linejoin="round"/>
<path d="M 20.770 88.925 L 20.770 90.275" fill="none" stroke="#e8e4da" stroke-width="0.280" stroke-linecap="round" stroke-linejoin="round"/>
<path d="M 21.535 88.925 L 21.535 90.275" fill="none" stroke="#e8e4da" stroke-width="0.280" stroke-linecap="round" stroke-linejoin="round"/>
<path d="M 22.435 88.925 L 22.435 90.275" fill="none" stroke="#e8e4da" stroke-width="0.280" stroke-linecap="round" stroke-linejoin="round"/>
<path d="M 21.535 89.600 L 22.435 89.600" fill="none" stroke="#e8e4da" stroke-width="0.280" stroke-linecap="round" stroke-linejoin="round"/>
<path d="M 23.200 88.925 L 23.200 90.275" fill="none" stroke="#e8e4da" stroke-width="0.280" stroke-linecap="round" stroke-linejoin="round"/>
<path d="M 23.965 90.275 L 23.965 88.925 L 24.640 88.925 L 24.865 89.127 L 24.865 89.442 L 24.640 89.645 L 23.965 89.645" fill="none" stroke="#e8e4da" stroke-width="0.280" stroke-linecap="round" stroke-linejoin="round"/>
<path d="M 24.415 89.645 L 24.865 90.275" fill="none" stroke="#e8e4da" stroke-width="0.280" stroke-linecap="round" stroke-linejoin="round"/>
<path d="M 25.180 88.925 L 25.180 90.275" fill="none" stroke="#e8e4da" stroke-width="0.280" stroke-linecap="round" stroke-linejoin="round"/>
<path d="M 25.180 88.925 L 25.810 88.925 L 26.080 89.240 L 26.080 89.960 L 25.810 90.275 L 25.180 90.275" fill="none" stroke="#e8e4da" stroke-width="0.280" stroke-linecap="round" stroke-linejoin="round"/>
<circle cx="35.4" cy="96.0" r="4.4" fill="none" stroke="#d9a441" stroke-width="0.5"/>
<path d="M 33.420 88.925 L 32.520 88.925 L 32.520 90.275" fill="none" stroke="#e8e4da" stroke-width="0.280" stroke-linecap="round" stroke-linejoin="round"/>
<path d="M 32.520 89.600 L 33.150 89.600" fill="none" stroke="#e8e4da" stroke-width="0.280" stroke-linecap="round" stroke-linejoin="round"/>
<path d="M 34.185 88.925 L 34.185 90.275" fill="none" stroke="#e8e4da" stroke-width="0.280" stroke-linecap="round" stroke-linejoin="round"/>
<path d="M 35.850 88.925 L 34.950 88.925 L 34.950 90.275" fill="none" stroke="#e8e4da" stroke-width="0.280" stroke-linecap="round" stroke-linejoin="round"/>
<path d="M 34.950 89.600 L 35.580 89.600" fill="none" stroke="#e8e4da" stroke-width="0.280" stroke-linecap="round" stroke-linejoin="round"/>
<path d="M 36.165 88.925 L 37.065 88.925" fill="none" stroke="#e8e4da" stroke-width="0.280" stroke-linecap="round" stroke-linejoin="round"/>
<path d="M 36.615 88.925 L 36.615 90.275" fill="none" stroke="#e8e4da" stroke-width="0.280" stroke-linecap="round" stroke-linejoin="round"/>
<path d="M 37.380 88.925 L 37.380 90.275" fill="none" stroke="#e8e4da" stroke-width="0.280" stroke-linecap="round" stroke-linejoin="round"/>
<path d="M 38.280 88.925 L 38.280 90.275" fill="none" stroke="#e8e4da" stroke-width="0.280" stroke-linecap="round" stroke-linejoin="round"/>
<path d="M 37.380 89.600 L 38.280 89.600" fill="none" stroke="#e8e4da" stroke-width="0.280" stroke-linecap="round" stroke-linejoin="round"/>
<circle cx="47.6" cy="96.0" r="4.4" fill="none" stroke="#d9a441" stroke-width="0.5"/>
<path d="M 45.620 89.127 L 45.395 88.925 L 44.945 88.925 L 44.720 89.127 L 44.720 89.397 L 44.945 89.600 L 45.395 89.600 L 45.620 89.802 L 45.620 90.072 L 45.395 90.275 L 44.945 90.275 L 44.720 90.072" fill="none" stroke="#e8e4da" stroke-width="0.280" stroke-linecap="round" stroke-linejoin="round"/>
<path d="M 45.935 88.925 L 46.385 90.275 L 46.835 88.925" fill="none" stroke="#e8e4da" stroke-width="0.280" stroke-linecap="round" stroke-linejoin="round"/>
<path d="M 47.150 90.275 L 47.150 88.925 L 48.050 90.275 L 48.050 88.925" fill="none" stroke="#e8e4da" stroke-width="0.280" stroke-linecap="round" stroke-linejoin="round"/>
<path d="M 48.365 88.925 L 49.265 88.925" fill="none" stroke="#e8e4da" stroke-width="0.280" stroke-linecap="round" stroke-linejoin="round"/>
<path d="M 48.815 88.925 L 48.815 90.275" fill="none" stroke="#e8e4da" stroke-width="0.280" stroke-linecap="round" stroke-linejoin="round"/>
<path d="M 49.580 88.925 L 49.580 90.275" fill="none" stroke="#e8e4da" stroke-width="0.280" stroke-linecap="round" stroke-linejoin="round"/>
<path d="M 50.480 88.925 L 50.480 90.275" fill="none" stroke="#e8e4da" stroke-width="0.280" stroke-linecap="round" stroke-linejoin="round"/>
<path d="M 49.580 89.600 L 50.480 89.600" fill="none" stroke="#e8e4da" stroke-width="0.280" stroke-linecap="round" stroke-linejoin="round"/>
<circle cx="59.8" cy="96.0" r="4.4" fill="none" stroke="#d9a441" stroke-width="0.5"/>
<path d="M 58.135 90.275 L 58.135 88.925 L 58.585 89.645 L 59.035 88.925 L 59.035 90.275" fill="none" stroke="#e8e4da" stroke-width="0.280" stroke-linecap="round" stroke-linejoin="round"/>
<path d="M 59.800 88.925 L 59.800 90.275" fill="none" stroke="#e8e4da" stroke-width="0.280" stroke-linecap="round" stroke-linejoin="round"/>
<path d="M 60.565 88.925 L 61.465 90.275" fill="none" stroke="#e8e4da" stroke-width="0.280" stroke-linecap="round" stroke-linejoin="round"/>
<path d="M 61.465 88.925 L 60.565 90.275" fill="none" stroke="#e8e4da" stroke-width="0.280" stroke-linecap="round" stroke-linejoin="round"/>
</svg>
