<svg xmlns="http://www.w3.org/2000/svg" width="111.76mm" height="128.5mm" viewBox="0 0 111.76 128.5">
<rect x="0" y="0" width="111.76" height="128.5" fill="#23262c"/>
<rect x="0.4" y="0.4" width="110.96000000000001" height="127.7" fill="none" stroke="#171a1f" stroke-width="0.8"/>
<path d="M 45.467 5.533 L 44.733 4.800 L 43.267 4.800 L 42.533 5.533 L 42.533 8.467 L 43.267 9.200 L 44.733 9.200 L 45.467 8.467" fill="none" stroke="#d9a441" stroke-width="0.850" stroke-linecap="round" stroke-linejoin="round"/>
<path d="M 46.493 4.800 L 46.493 9.200" fill="none" stroke="#d9a441" stroke-width="0.850" stroke-linecap="round" stroke-linejoin="round"/>
<path d="M 49.427 4.800 L 49.427 9.200" fill="none" stroke="#d9a441" stroke-width="0.850" stroke-linecap="round" stroke-linejoin="round"/>
<path d="M 46.493 7.000 L 49.427 7.000" fill="none" stroke="#d9a441" stroke-width="0.850" stroke-linecap="round" stroke-linejoin="round"/>
<path d="M 51.920 4.800 L 51.920 9.200" fill="none" stroke="#d9a441" stroke-width="0.850" stroke-linecap="round" stroke-linejoin="round"/>
<path d="M 54.413 9.200 L 54.413 4.800 L 55.880 7.147 L 57.347 4.800 L 57.347 9.200" fill="none" stroke="#d9a441" stroke-width="0.850" stroke-linecap="round" stroke-linejoin="round"/>
<path d="M 61.307 4.800 L 58.373 4.800 L 58.373 9.200 L 61.307 9.200" fill="none" stroke="#d9a441" stroke-width="0.850" stroke-linecap="round" stroke-linejoin="round"/>
<path d="M 58.373 7.000 L 60.427 7.000" fill="none" stroke="#d9a441" stroke-width="0.850" stroke-linecap="round" stroke-linejoin="round"/>
<path d="M 62.333 9.200 L 62.333 4.800 L 64.533 4.800 L 65.267 5.460 L 65.267 6.487 L 64.533 7.147 L 62.333 7.147" fill="none" stroke="#d9a441" stroke-width="0.850" stroke-linecap="round" stroke-linejoin="round"/>
<path d="M 63.800 7.147 L 65.267 9.200" fill="none" stroke="#d9a441" stroke-width="0.850" stroke-linecap="round" stroke-linejoin="round"/>
<path d="M 66.293 9.200 L 67.760 4.800 L 69.227 9.200" fill="none" stroke="#d9a441" stroke-width="0.850" stroke-linecap="round" stroke-linejoin="round"/>
<path d="M 66.953 7.660 L 68.567 7.660" fill="none" stroke="#d9a441" stroke-width="0.850" stroke-linecap="round" stroke-linejoin="round"/>
<path d="M 10.150 22.350 L 10.150 20.850 L 10.900 20.850 L 11.150 21.075 L 11.150 21.425 L 10.900 21.650 L 10.150 21.650" fill="none" stroke="#8b8f99" stroke-width="0.280" stroke-linecap="round" stroke-linejoin="round"/>
<path d="M 10.650 21.650 L 11.150 22.350" fill="none" stroke="#8b8f99" stroke-width="0.280" stroke-linecap="round" stroke-linejoin="round"/>
<path d="M 12.500 20.850 L 11.500 20.850 L 11.500 22.350 L 12.500 22.350" fill="none" stroke="#8b8f99" stroke-width="0.280" stroke-linecap="round" stroke-linejoin="round"/>
<path d="M 11.500 21.600 L 12.200 21.600" fill="none" stroke="#8b8f99" stroke-width="0.280" stroke-linecap="round" stroke-linejoin="round"/>
<path d="M 13.850 21.100 L 13.600 20.850 L 13.100 20.850 L 12.850 21.100 L 12.850 22.100 L 13.100 22.350 L 13.600 22.350 L 13.850 22.100" fill="none" stroke="#8b8f99" stroke-width="0.280" stroke-linecap="round" stroke-linejoin="round"/>
<path d="M 23.475 22.350 L 23.475 20.850 L 24.225 20.850 L 24.475 21.075 L 24.475 21.425 L 24.225 21.650 L 23.475 21.650" fill="none" stroke="#8b8f99" stroke-width="0.280" stroke-linecap="round" stroke-linejoin="round"/>
<path d="M 24.825 20.850 L 24.825 22.350 L 25.825 22.350" fill="none" stroke="#8b8f99" stroke-width="0.280" stroke-linecap="round" stroke-linejoin="round"/>
<path d="M 26.175 22.350 L 26.675 20.850 L 27.175 22.350" fill="none" stroke="#8b8f99" stroke-width="0.280" stroke-linecap="round" stroke-linejoin="round"/>
<path d="M 26.400 21.825 L 26.950 21.825" fill="none" stroke="#8b8f99" stroke-width="0.280" stroke-linecap="round" stroke-linejoin="round"/>
<path d="M 27.525 20.850 L 28.025 21.600 L 28.525 20.850" fill="none" stroke="#8b8f99" stroke-width="0.280" stroke-linecap="round" stroke-linejoin="round"/>
<path d="M 28.025 21.600 L 28.025 22.350" fill="none" stroke="#8b8f99" stroke-width="0.280" stroke-linecap="round" stroke-linejoin="round"/>
<path d="M 37.125 21.075 L 36.875 20.850 L 36.375 20.850 L 36.125 21.075 L 36.125 21.375 L 36.375 21.600 L 36.875 21.600 L 37.125 21.825 L 37.125 22.125 L 36.875 22.350 L 36.375 22.350 L 36.125 22.125" fill="none" stroke="#8b8f99" stroke-width="0.280" stroke-linecap="round" stroke-linejoin="round"/>
<path d="M 37.475 22.350 L 37.475 20.850 L 38.225 20.850 L 38.475 21.075 L 38.475 21.425 L 38.225 21.650 L 37.475 21.650" fill="none" stroke="#8b8f99" stroke-width="0.280" stroke-linecap="round" stroke-linejoin="round"/>
<path d="M 38.825 20.850 L 38.825 22.350 L 39.825 22.350" fill="none" stroke="#8b8f99" stroke-width="0.280" stroke-linecap="round" stroke-linejoin="round"/>
<path d="M 40.675 20.850 L 40.675 22.350" fill="none" stroke="#8b8f99" stroke-width="0.280" stroke-linecap="round" stroke-linejoin="round"/>
<path d="M 42.525 21.100 L 42.275 20.850 L 41.775 20.850 L 41.525 21.100 L 41.525 22.100 L 41.775 22.350 L 42.275 22.350 L 42.525 22.100" fill="none" stroke="#8b8f99" stroke-width="0.280" stroke-linecap="round" stroke-linejoin="round"/>
<path d="M 43.875 20.850 L 42.875 20.850 L 42.875 22.350 L 43.875 22.350" fill="none" stroke="#8b8f99" stroke-width="0.280" stroke-linecap="round" stroke-linejoin="round"/>
<path d="M 42.875 21.600 L 43.575 21.600" fill="none" stroke="#8b8f99" stroke-width="0.280" stroke-linecap="round" stroke-linejoin="round"/>
<path d="M 52.475 21.075 L 52.225 20.850 L 51.725 20.850 L 51.475 21.075 L 51.475 21.375 L 51.725 21.600 L 52.225 21.600 L 52.475 21.825 L 52.475 22.125 L 52.225 22.350 L 51.725 22.350 L 51.475 22.125" fill="none" stroke="#8b8f99" stroke-width="0.280" stroke-linecap="round" stroke-linejoin="round"/>
<path d="M 52.825 20.850 L 53.325 21.600 L 53.825 20.850" fill="none" stroke="#8b8f99" stroke-width="0.280" stroke-linecap="round" stroke-linejoin="round"/>
<path d="M 53.325 21.600 L 53.325 22.350" fill="none" stroke="#8b8f99" stroke-width="0.280" stroke-linecap="round" stroke-linejoin="round"/>
<path d="M 54.175 22.350 L 54.175 20.850 L 55.175 22.350 L 55.175 20.850" fill="none" stroke="#8b8f99" stroke-width="0.280" stroke-linecap="round" stroke-linejoin="round"/>
<path d="M 56.525 21.100 L 56.275 20.850 L 55.775 20.850 L 55.525 21.100 L 55.525 22.100 L 55.775 22.350 L 56.275 22.350 L 56.525 22.100" fill="none" stroke="#8b8f99" stroke-width="0.280" stroke-linecap="round" stroke-linejoin="round"/>
<path d="M 65.475 22.350 L 65.475 20.850 L 65.975 21.650 L 66.475 20.850 L 66.475 22.350" fill="none" stroke="#8b8f99" stroke-width="0.280" stroke-linecap="round" stroke-linejoin="round"/>
<path d="M 67.075 20.850 L 67.575 20.850 L 67.825 21.100 L 67.825 22.100 L 67.575 22.350 L 67.075 22.350 L 66.825 22.100 L 66.825 21.100 L 67.075 20.850" fill="none" stroke="#8b8f99" stroke-width="0.280" stroke-linecap="round" stroke-linejoin="round"/>
<path d="M 68.175 20.850 L 68.175 22.350" fill="none" stroke="#8b8f99" stroke-width="0.280" stroke-linecap="round" stroke-linejoin="round"/>
<path d="M 68.175 20.850 L 68.875 20.850 L 69.175 21.200 L 69.175 22.000 L 68.875 22.350 L 68.175 22.350" fill="none" stroke="#8b8f99" stroke-width="0.280" stroke-linecap="round" stroke-linejoin="round"/>
<path d="M 70.525 20.850 L 69.525 20.850 L 69.525 22.350 L 70.525 22.350" fill="none" stroke="#8b8f99" stroke-width="0.280" stroke-linecap="round" stroke-linejoin="round"/>
<path d="M 69.525 21.600 L 70.225 21.600" fill="none" stroke="#8b8f99" stroke-width="0.280" stroke-linecap="round" stroke-linejoin="round"/>
<path d="M 12.980 40.170 L 12.680 39.900 L 12.080 39.900 L 11.780 40.170 L 11.780 40.530 L 12.080 40.800 L 12.680 40.800 L 12.980 41.070 L 12.980 41.430 L 12.680 41.700 L 12.080 41.700 L 11.780 41.430" fill="none" stroke="#e8e4da" stroke-width="0.288" stroke-linecap="round" stroke-linejoin="round"/>
<path d="M 13.700 39.900 L 14.300 39.900 L 14.600 40.200 L 14.600 41.400 L 14.300 41.700 L 13.700 41.700 L 13.400 41.400 L 13.400 40.200 L 13.700 39.900" fill="none" stroke="#e8e4da" stroke-width="0.288" stroke-linecap="round" stroke-linejoin="round"/>
<path d="M 16.220 40.170 L 15.920 39.900 L 15.320 39.900 L 15.020 40.170 L 15.020 40.530 L 15.320 40.800 L 15.920 40.800 L 16.220 41.070 L 16.220 41.430 L 15.920 41.700 L 15.320 41.700 L 15.020 41.430" fill="none" stroke="#e8e4da" stroke-width="0.288" stroke-linecap="round" stroke-linejoin="round"/>
<path d="M 42.0 25.0 L 42.0 41.0" stroke="#3c414b" stroke-width="0.4"/>
<path d="M 45.413 25.700 L 44.347 25.700 L 44.347 27.300 L 45.413 27.300" fill="none" stroke="#8b8f99" stroke-width="0.280" stroke-linecap="round" stroke-linejoin="round"/>
<path d="M 44.347 26.500 L 45.093 26.500" fill="none" stroke="#8b8f99" stroke-width="0.280" stroke-linecap="round" stroke-linejoin="round"/>
<path d="M 46.053 25.700 L 46.587 25.700 L 46.853 25.967 L 46.853 27.033 L 46.587 27.300 L 46.053 27.300 L 45.787 27.033 L 45.787 25.967 L 46.053 25.700" fill="none" stroke="#8b8f99" stroke-width="0.280" stroke-linecap="round" stroke-linejoin="round"/>
<path d="M 46.480 26.873 L 46.933 27.407" fill="none" stroke="#8b8f99" stroke-width="0.280" stroke-linecap="round" stroke-linejoin="round"/>
<path d="M 53.903 39.950 L 53.903 41.650 L 55.037 41.650" fill="none" stroke="#e8e4da" stroke-width="0.280" stroke-linecap="round" stroke-linejoin="round"/>
<path d="M 55.717 39.950 L 56.283 39.950 L 56.567 40.233 L 56.567 41.367 L 56.283 41.650 L 55.717 41.650 L 55.433 41.367 L 55.433 40.233 L 55.717 39.950" fill="none" stroke="#e8e4da" stroke-width="0.280" stroke-linecap="round" stroke-linejoin="round"/>
<path d="M 56.963 39.950 L 57.218 41.650 L 57.530 40.630 L 57.842 41.650 L 58.097 39.950" fill="none" stroke="#e8e4da" stroke-width="0.280" stroke-linecap="round" stroke-linejoin="round"/>
<path d="M 73.903 41.650 L 73.903 39.950 L 74.470 40.857 L 75.037 39.950 L 75.037 41.650" fill="none" stroke="#e8e4da" stroke-width="0.280" stroke-linecap="round" stroke-linejoin="round"/>
<path d="M 76.000 39.950 L 76.000 41.650" fill="none" stroke="#e8e4da" stroke-width="0.280" stroke-linecap="round" stroke-linejoin="round"/>
<path d="M 76.963 39.950 L 76.963 41.650" fill="none" stroke="#e8e4da" stroke-width="0.280" stroke-linecap="round" stroke-linejoin="round"/>
<path d="M 76.963 39.950 L 77.757 39.950 L 78.097 40.347 L 78.097 41.253 L 77.757 41.650 L 76.963 41.650" fill="none" stroke="#e8e4da" stroke-width="0.280" stroke-linecap="round" stroke-linejoin="round"/>
<path d="M 93.138 39.950 L 93.138 41.650" fill="none" stroke="#e8e4da" stroke-width="0.280" stroke-linecap="round" stroke-linejoin="round"/>
<path d="M 94.272 39.950 L 94.272 41.650" fill="none" stroke="#e8e4da" stroke-width="0.280" stroke-linecap="round" stroke-linejoin="round"/>
<path d="M 93.138 40.800 L 94.272 40.800" fill="none" stroke="#e8e4da" stroke-width="0.280" stroke-linecap="round" stroke-linejoin="round"/>
<path d="M 95.235 39.950 L 95.235 41.650" fill="none" stroke="#e8e4da" stroke-width="0.280" stroke-linecap="round" stroke-linejoin="round"/>
<path d="M 97.332 40.233 L 97.048 39.950 L 96.482 39.950 L 96.198 40.233 L 96.198 41.367 L 96.482 41.650 L 97.048 41.650 L 97.332 41.367 L 97.332 40.857 L 96.878 40.857" fill="none" stroke="#e8e4da" stroke-width="0.280" stroke-linecap="round" stroke-linejoin="round"/>
<path d="M 97.728 39.950 L 97.728 41.650" fill="none" stroke="#e8e4da" stroke-width="0.280" stroke-linecap="round" stroke-linejoin="round"/>
<path d="M 98.862 39.950 L 98.862 41.650" fill="none" stroke="#e8e4da" stroke-width="0.280" stroke-linecap="round" stroke-linejoin="round"/>
<path d="M 97.728 40.800 L 98.862 40.800" fill="none" stroke="#e8e4da" stroke-width="0.280" stroke-linecap="round" stroke-linejoin="round"/>
<path d="M 12.627 63.195 L 12.243 62.850 L 11.477 62.850 L 11.093 63.195 L 11.093 63.655 L 11.477 64.000 L 12.243 64.000 L 12.627 64.345 L 12.627 64.805 L 12.243 65.150 L 11.477 65.150 L 11.093 64.805" fill="none" stroke="#e8e4da" stroke-width="0.368" stroke-linecap="round" stroke-linejoin="round"/>
<path d="M 13.163 65.150 L 13.163 62.850 L 14.313 62.850 L 14.697 63.195 L 14.697 63.732 L 14.313 64.077 L 13.163 64.077" fill="none" stroke="#e8e4da" stroke-width="0.368" stroke-linecap="round" stroke-linejoin="round"/>
<path d="M 16.767 62.850 L 15.233 62.850 L 15.233 65.150 L 16.767 65.150" fill="none" stroke="#e8e4da" stroke-width="0.368" stroke-linecap="round" stroke-linejoin="round"/>
<path d="M 15.233 64.000 L 16.307 64.000" fill="none" stroke="#e8e4da" stroke-width="0.368" stroke-linecap="round" stroke-linejoin="round"/>
<path d="M 18.837 62.850 L 17.303 62.850 L 17.303 65.150 L 18.837 65.150" fill="none" stroke="#e8e4da" stroke-width="0.368" stroke-linecap="round" stroke-linejoin="round"/>
<path d="M 17.303 64.000 L 18.377 64.000" fill="none" stroke="#e8e4da" stroke-width="0.368" stroke-linecap="round" stroke-linejoin="round"/>
<path d="M 19.373 62.850 L 19.373 65.150" fill="none" stroke="#e8e4da" stroke-width="0.368" stroke-linecap="round" stroke-linejoin="round"/>
<path d="M 19.373 62.850 L 20.447 62.850 L 20.907 63.387 L 20.907 64.613 L 20.447 65.150 L 19.373 65.150" fill="none" stroke="#e8e4da" stroke-width="0.368" stroke-linecap="round" stroke-linejoin="round"/>
<path d="M 37.093 65.150 L 37.093 62.850 L 38.243 62.850 L 38.627 63.195 L 38.627 63.732 L 38.243 64.077 L 37.093 64.077" fill="none" stroke="#e8e4da" stroke-width="0.368" stroke-linecap="round" stroke-linejoin="round"/>
<path d="M 39.930 62.850 L 39.930 65.150" fill="none" stroke="#e8e4da" stroke-width="0.368" stroke-linecap="round" stroke-linejoin="round"/>
<path d="M 41.233 62.850 L 42.767 62.850" fill="none" stroke="#e8e4da" stroke-width="0.368" stroke-linecap="round" stroke-linejoin="round"/>
<path d="M 42.000 62.850 L 42.000 65.150" fill="none" stroke="#e8e4da" stroke-width="0.368" stroke-linecap="round" stroke-linejoin="round"/>
<path d="M 44.837 63.233 L 44.453 62.850 L 43.687 62.850 L 43.303 63.233 L 43.303 64.767 L 43.687 65.150 L 44.453 65.150 L 44.837 64.767" fill="none" stroke="#e8e4da" stroke-width="0.368" stroke-linecap="round" stroke-linejoin="round"/>
<path d="M 45.373 62.850 L 45.373 65.150" fill="none" stroke="#e8e4da" stroke-width="0.368" stroke-linecap="round" stroke-linejoin="round"/>
<path d="M 46.907 62.850 L 46.907 65.150" fill="none" stroke="#e8e4da" stroke-width="0.368" stroke-linecap="round" stroke-linejoin="round"/>
<path d="M 45.373 64.000 L 46.907 64.000" fill="none" stroke="#e8e4da" stroke-width="0.368" stroke-linecap="round" stroke-linejoin="round"/>
<path d="M 62.920 63.300 L 62.570 62.950 L 61.870 62.950 L 61.520 63.300 L 61.520 64.700 L 61.870 65.050 L 62.570 65.050 L 62.920 64.700 L 62.920 64.070 L 62.360 64.070" fill="none" stroke="#e8e4da" stroke-width="0.336" stroke-linecap="round" stroke-linejoin="round"/>
<path d="M 63.410 65.050 L 63.410 62.950 L 64.460 62.950 L 64.810 63.265 L 64.810 63.755 L 64.460 64.070 L 63.410 64.070" fill="none" stroke="#e8e4da" stroke-width="0.336" stroke-linecap="round" stroke-linejoin="round"/>
<path d="M 64.110 64.070 L 64.810 65.050" fill="none" stroke="#e8e4da" stroke-width="0.336" stroke-linecap="round" stroke-linejoin="round"/>
<path d="M 65.300 65.050 L 66.000 62.950 L 66.700 65.050" fill="none" stroke="#e8e4da" stroke-width="0.336" stroke-linecap="round" stroke-linejoin="round"/>
<path d="M 65.615 64.315 L 66.385 64.315" fill="none" stroke="#e8e4da" stroke-width="0.336" stroke-linecap="round" stroke-linejoin="round"/>
<path d="M 67.890 62.950 L 67.890 65.050" fill="none" stroke="#e8e4da" stroke-width="0.336" stroke-linecap="round" stroke-linejoin="round"/>
<path d="M 69.080 65.050 L 69.080 62.950 L 70.480 65.050 L 70.480 62.950" fill="none" stroke="#e8e4da" stroke-width="0.336" stroke-linecap="round" stroke-linejoin="round"/>
<path d="M 82.920 63.265 L 82.570 62.950 L 81.870 62.950 L 81.520 63.265 L 81.520 63.685 L 81.870 64.000 L 82.570 64.000 L 82.920 64.315 L 82.920 64.735 L 82.570 65.050 L 81.870 65.050 L 81.520 64.735" fill="none" stroke="#e8e4da" stroke-width="0.336" stroke-linecap="round" stroke-linejoin="round"/>
<path d="M 83.410 62.950 L 83.410 65.050 L 84.810 65.050" fill="none" stroke="#e8e4da" stroke-width="0.336" stroke-linecap="round" stroke-linejoin="round"/>
<path d="M 86.000 62.950 L 86.000 65.050" fill="none" stroke="#e8e4da" stroke-width="0.336" stroke-linecap="round" stroke-linejoin="round"/>
<path d="M 88.590 63.300 L 88.240 62.950 L 87.540 62.950 L 87.190 63.300 L 87.190 64.700 L 87.540 65.050 L 88.240 65.050 L 88.590 64.700" fill="none" stroke="#e8e4da" stroke-width="0.336" stroke-linecap="round" stroke-linejoin="round"/>
<path d="M 90.480 62.950 L 89.080 62.950 L 89.080 65.050 L 90.480 65.050" fill="none" stroke="#e8e4da" stroke-width="0.336" stroke-linecap="round" stroke-linejoin="round"/>
<path d="M 89.080 64.000 L 90.060 64.000" fill="none" stroke="#e8e4da" stroke-width="0.336" stroke-linecap="round" stroke-linejoin="round"/>
<path d="M 101.373 63.467 L 101.107 63.200 L 100.573 63.200 L 100.307 63.467 L 100.307 64.533 L 100.573 64.800 L 101.107 64.800 L 101.373 64.533" fill="none" stroke="#e8e4da" stroke-width="0.280" stroke-linecap="round" stroke-linejoin="round"/>
<path d="M 101.747 63.200 L 101.747 64.800" fill="none" stroke="#e8e4da" stroke-width="0.280" stroke-linecap="round" stroke-linejoin="round"/>
<path d="M 102.813 63.200 L 102.813 64.800" fill="none" stroke="#e8e4da" stroke-width="0.280" stroke-linecap="round" stroke-linejoin="round"/>
<path d="M 101.747 64.000 L 102.813 64.000" fill="none" stroke="#e8e4da" stroke-width="0.280" stroke-linecap="round" stroke-linejoin="round"/>
<path d="M 103.453 63.200 L 103.987 63.200 L 104.253 63.467 L 104.253 64.533 L 103.987 64.800 L 103.453 64.800 L 103.187 64.533 L 103.187 63.467 L 103.453 63.200" fill="none" stroke="#e8e4da" stroke-width="0.280" stroke-linecap="round" stroke-linejoin="round"/>
<path d="M 104.627 64.800 L 104.627 63.200 L 105.427 63.200 L 105.693 63.440 L 105.693 63.813 L 105.427 64.053 L 104.627 64.053" fill="none" stroke="#e8e4da" stroke-width="0.280" stroke-linecap="round" stroke-linejoin="round"/>
<path d="M 11.030 79.865 L 10.680 79.550 L 9.980 79.550 L 9.630 79.865 L 9.630 80.285 L 9.980 80.600 L 10.680 80.600 L 11.030 80.915 L 11.030 81.335 L 10.680 81.650 L 9.980 81.650 L 9.630 81.335" fill="none" stroke="#e8e4da" stroke-width="0.336" stroke-linecap="round" stroke-linejoin="round"/>
<path d="M 12.920 79.900 L 12.570 79.550 L 11.870 79.550 L 11.520 79.900 L 11.520 81.300 L 11.870 81.650 L 12.570 81.650 L 12.920 81.300" fill="none" stroke="#e8e4da" stroke-width="0.336" stroke-linecap="round" stroke-linejoin="round"/>
<path d="M 13.410 81.650 L 14.110 79.550 L 14.810 81.650" fill="none" stroke="#e8e4da" stroke-width="0.336" stroke-linecap="round" stroke-linejoin="round"/>
<path d="M 13.725 80.915 L 14.495 80.915" fill="none" stroke="#e8e4da" stroke-width="0.336" stroke-linecap="round" stroke-linejoin="round"/>
<path d="M 15.300 79.550 L 16.700 79.550" fill="none" stroke="#e8e4da" stroke-width="0.336" stroke-linecap="round" stroke-linejoin="round"/>
<path d="M 16.000 79.550 L 16.000 81.650" fill="none" stroke="#e8e4da" stroke-width="0.336" stroke-linecap="round" stroke-linejoin="round"/>
<path d="M 17.190 79.550 L 18.590 79.550" fill="none" stroke="#e8e4da" stroke-width="0.336" stroke-linecap="round" stroke-linejoin="round"/>
<path d="M 17.890 79.550 L 17.890 81.650" fill="none" stroke="#e8e4da" stroke-width="0.336" stroke-linecap="round" stroke-linejoin="round"/>
<path d="M 20.480 79.550 L 19.080 79.550 L 19.080 81.650 L 20.480 81.650" fill="none" stroke="#e8e4da" stroke-width="0.336" stroke-linecap="round" stroke-linejoin="round"/>
<path d="M 19.080 80.600 L 20.060 80.600" fill="none" stroke="#e8e4da" stroke-width="0.336" stroke-linecap="round" stroke-linejoin="round"/>
<path d="M 20.970 81.650 L 20.970 79.550 L 22.020 79.550 L 22.370 79.865 L 22.370 80.355 L 22.020 80.670 L 20.970 80.670" fill="none" stroke="#e8e4da" stroke-width="0.336" stroke-linecap="round" stroke-linejoin="round"/>
<path d="M 21.670 80.670 L 22.370 81.650" fill="none" stroke="#e8e4da" stroke-width="0.336" stroke-linecap="round" stroke-linejoin="round"/>
<circle cx="10.0" cy="90.0" r="4.4" fill="none" stroke="#3c414b" stroke-width="0.5"/>
<path d="M 7.800 83.075 L 7.550 82.850 L 7.050 82.850 L 6.800 83.075 L 6.800 83.375 L 7.050 83.600 L 7.550 83.600 L 7.800 83.825 L 7.800 84.125 L 7.550 84.350 L 7.050 84.350 L 6.800 84.125" fill="none" stroke="#8b8f99" stroke-width="0.280" stroke-linecap="round" stroke-linejoin="round"/>
<path d="M 8.150 84.350 L 8.150 82.850 L 8.900 82.850 L 9.150 83.075 L 9.150 83.425 L 8.900 83.650 L 8.150 83.650" fill="none" stroke="#8b8f99" stroke-width="0.280" stroke-linecap="round" stroke-linejoin="round"/>
<path d="M 10.500 82.850 L 9.500 82.850 L 9.500 84.350 L 10.500 84.350" fill="none" stroke="#8b8f99" stroke-width="0.280" stroke-linecap="round" stroke-linejoin="round"/>
<path d="M 9.500 83.600 L 10.200 83.600" fill="none" stroke="#8b8f99" stroke-width="0.280" stroke-linecap="round" stroke-linejoin="round"/>
<path d="M 11.850 82.850 L 10.850 82.850 L 10.850 84.350 L 11.850 84.350" fill="none" stroke="#8b8f99" stroke-width="0.280" stroke-linecap="round" stroke-linejoin="round"/>
<path d="M 10.850 83.600 L 11.550 83.600" fill="none" stroke="#8b8f99" stroke-width="0.280" stroke-linecap="round" stroke-linejoin="round"/>
<path d="M 12.200 82.850 L 12.200 84.350" fill="none" stroke="#8b8f99" stroke-width="0.280" stroke-linecap="round" stroke-linejoin="round"/>
<path d="M 12.200 82.850 L 12.900 82.850 L 13.200 83.200 L 13.200 84.000 L 12.900 84.350 L 12.200 84.350" fill="none" stroke="#8b8f99" stroke-width="0.280" stroke-linecap="round" stroke-linejoin="round"/>
<circle cx="28.0" cy="90.0" r="4.4" fill="none" stroke="#3c414b" stroke-width="0.5"/>
<path d="M 24.800 82.850 L 25.300 84.350 L 25.800 82.850" fill="none" stroke="#8b8f99" stroke-width="0.280" stroke-linecap="round" stroke-linejoin="round"/>
<path d="M 26.250 84.450 L 27.050 82.750" fill="none" stroke="#8b8f99" stroke-width="0.280" stroke-linecap="round" stroke-linejoin="round"/>
<path d="M 27.750 82.850 L 28.250 82.850 L 28.500 83.100 L 28.500 84.100 L 28.250 84.350 L 27.750 84.350 L 27.500 84.100 L 27.500 83.100 L 27.750 82.850" fill="none" stroke="#8b8f99" stroke-width="0.280" stroke-linecap="round" stroke-linejoin="round"/>
<path d="M 29.850 83.100 L 29.600 82.850 L 29.100 82.850 L 28.850 83.100 L 28.850 84.100 L 29.100 84.350 L 29.600 84.350 L 29.850 84.100" fill="none" stroke="#8b8f99" stroke-width="0.280" stroke-linecap="round" stroke-linejoin="round"/>
<path d="M 30.200 82.850 L 31.200 82.850" fill="none" stroke="#8b8f99" stroke-width="0.280" stroke-linecap="round" stroke-linejoin="round"/>
<path d="M 30.700 82.850 L 30.700 84.350" fill="none" stroke="#8b8f99" stroke-width="0.280" stroke-linecap="round" stroke-linejoin="round"/>
<circle cx="46.0" cy="90.0" r="4.4" fill="none" stroke="#3c414b" stroke-width="0.5"/>
<path d="M 43.800 83.100 L 43.550 82.850 L 43.050 82.850 L 42.800 83.100 L 42.800 84.100 L 43.050 84.350 L 43.550 84.350 L 43.800 84.100 L 43.800 83.650 L 43.400 83.650" fill="none" stroke="#8b8f99" stroke-width="0.280" stroke-linecap="round" stroke-linejoin="round"/>
<path d="M 44.150 84.350 L 44.150 82.850 L 44.900 82.850 L 45.150 83.075 L 45.150 83.425 L 44.900 83.650 L 44.150 83.650" fill="none" stroke="#8b8f99" stroke-width="0.280" stroke-linecap="round" stroke-linejoin="round"/>
<path d="M 44.650 83.650 L 45.150 84.350" fill="none" stroke="#8b8f99" stroke-width="0.280" stroke-linecap="round" stroke-linejoin="round"/>
<path d="M 45.500 84.350 L 46.000 82.850 L 46.500 84.350" fill="none" stroke="#8b8f99" stroke-width="0.280" stroke-linecap="round" stroke-linejoin="round"/>
<path d="M 45.725 83.825 L 46.275 83.825" fill="none" stroke="#8b8f99" stroke-width="0.280" stroke-linecap="round" stroke-linejoin="round"/>
<path d="M 47.350 82.850 L 47.350 84.350" fill="none" stroke="#8b8f99" stroke-width="0.280" stroke-linecap="round" stroke-linejoin="round"/>
<path d="M 48.200 84.350 L 48.200 82.850 L 49.200 84.350 L 49.200 82.850" fill="none" stroke="#8b8f99" stroke-width="0.280" stroke-linecap="round" stroke-linejoin="round"/>
<circle cx="64.0" cy="90.0" r="4.4" fill="none" stroke="#3c414b" stroke-width="0.5"/>
<path d="M 61.800 83.075 L 61.550 82.850 L 61.050 82.850 L 60.800 83.075 L 60.800 83.375 L 61.050 83.600 L 61.550 83.600 L 61.800 83.825 L 61.800 84.125 L 61.550 84.350 L 61.050 84.350 L 60.800 84.125" fill="none" stroke="#8b8f99" stroke-width="0.280" stroke-linecap="round" stroke-linejoin="round"/>
<path d="M 62.150 82.850 L 62.150 84.350 L 63.150 84.350" fill="none" stroke="#8b8f99" stroke-width="0.280" stroke-linecap="round" stroke-linejoin="round"/>
<path d="M 64.000 82.850 L 64.000 84.350" fill="none" stroke="#8b8f99" stroke-width="0.280" stroke-linecap="round" stroke-linejoin="round"/>
<path d="M 65.850 83.100 L 65.600 82.850 L 65.100 82.850 L 64.850 83.100 L 64.850 84.100 L 65.100 84.350 L 65.600 84.350 L 65.850 84.100" fill="none" stroke="#8b8f99" stroke-width="0.280" stroke-linecap="round" stroke-linejoin="round"/>
<path d="M 67.200 82.850 L 66.200 82.850 L 66.200 84.350 L 67.200 84.350" fill="none" stroke="#8b8f99" stroke-width="0.280" stroke-linecap="round" stroke-linejoin="round"/>
<path d="M 66.200 83.600 L 66.900 83.600" fill="none" stroke="#8b8f99" stroke-width="0.280" stroke-linecap="round" stroke-linejoin="round"/>
<circle cx="82.0" cy="90.0" r="4.4" fill="none" stroke="#3c414b" stroke-width="0.5"/>
<path d="M 80.475 83.075 L 80.225 82.850 L 79.725 82.850 L 79.475 83.075 L 79.475 83.375 L 79.725 83.600 L 80.225 83.600 L 80.475 83.825 L 80.475 84.125 L 80.225 84.350 L 79.725 84.350 L 79.475 84.125" fill="none" stroke="#8b8f99" stroke-width="0.280" stroke-linecap="round" stroke-linejoin="round"/>
<path d="M 81.825 83.100 L 81.575 82.850 L 81.075 82.850 L 80.825 83.100 L 80.825 84.100 L 81.075 84.350 L 81.575 84.350 L 81.825 84.100" fill="none" stroke="#8b8f99" stroke-width="0.280" stroke-linecap="round" stroke-linejoin="round"/>
<path d="M 82.175 84.350 L 82.675 82.850 L 83.175 84.350" fill="none" stroke="#8b8f99" stroke-width="0.280" stroke-linecap="round" stroke-linejoin="round"/>
<path d="M 82.400 83.825 L 82.950 83.825" fill="none" stroke="#8b8f99" stroke-width="0.280" stroke-linecap="round" stroke-linejoin="round"/>
<path d="M 83.525 82.850 L 84.525 82.850" fill="none" stroke="#8b8f99" stroke-width="0.280" stroke-linecap="round" stroke-linejoin="round"/>
<path d="M 84.025 82.850 L 84.025 84.350" fill="none" stroke="#8b8f99" stroke-width="0.280" stroke-linecap="round" stroke-linejoin="round"/>
<circle cx="100.0" cy="90.0" r="4.4" fill="none" stroke="#3c414b" stroke-width="0.5"/>
<path d="M 97.800 83.100 L 97.550 82.850 L 97.050 82.850 L 96.800 83.100 L 96.800 84.100 L 97.050 84.350 L 97.550 84.350 L 97.800 84.100" fill="none" stroke="#8b8f99" stroke-width="0.280" stroke-linecap="round" stroke-linejoin="round"/>
<path d="M 98.150 82.850 L 98.150 84.350 L 99.150 84.350" fill="none" stroke="#8b8f99" stroke-width="0.280" stroke-linecap="round" stroke-linejoin="round"/>
<path d="M 99.750 82.850 L 100.250 82.850 L 100.500 83.100 L 100.500 84.100 L 100.250 84.350 L 99.750 84.350 L 99.500 84.100 L 99.500 83.100 L 99.750 82.850" fill="none" stroke="#8b8f99" stroke-width="0.280" stroke-linecap="round" stroke-linejoin="round"/>
<path d="M 101.850 83.100 L 101.600 82.850 L 101.100 82.850 L 100.850 83.100 L 100.850 84.100 L 101.100 84.350 L 101.600 84.350 L 101.850 84.100" fill="none" stroke="#8b8f99" stroke-width="0.280" stroke-linecap="round" stroke-linejoin="round"/>
<path d="M 102.200 82.850 L 102.200 84.350" fill="none" stroke="#8b8f99" stroke-width="0.280" stroke-linecap="round" stroke-linejoin="round"/>
<path d="M 103.200 82.850 L 102.200 83.650 L 103.200 84.350" fill="none" stroke="#8b8f99" stroke-width="0.280" stroke-linecap="round" stroke-linejoin="round"/>
<circle cx="10.0" cy="104.0" r="4.4" fill="none" stroke="#3c414b" stroke-width="0.5"/>
<path d="M 8.150 98.350 L 8.150 96.850 L 8.900 96.850 L 9.150 97.075 L 9.150 97.425 L 8.900 97.650 L 8.150 97.650" fill="none" stroke="#8b8f99" stroke-width="0.280" stroke-linecap="round" stroke-linejoin="round"/>
<path d="M 8.650 97.650 L 9.150 98.350" fill="none" stroke="#8b8f99" stroke-width="0.280" stroke-linecap="round" stroke-linejoin="round"/>
<path d="M 10.500 96.850 L 9.500 96.850 L 9.500 98.350 L 10.500 98.350" fill="none" stroke="#8b8f99" stroke-width="0.280" stroke-linecap="round" stroke-linejoin="round"/>
<path d="M 9.500 97.600 L 10.200 97.600" fill="none" stroke="#8b8f99" stroke-width="0.280" stroke-linecap="round" stroke-linejoin="round"/>
<path d="M 11.850 97.100 L 11.600 96.850 L 11.100 96.850 L 10.850 97.100 L 10.850 98.100 L 11.100 98.350 L 11.600 98.350 L 11.850 98.100" fill="none" stroke="#8b8f99" stroke-width="0.280" stroke-linecap="round" stroke-linejoin="round"/>
<circle cx="28.0" cy="104.0" r="4.4" fill="none" stroke="#3c414b" stroke-width="0.5"/>
<path d="M 25.125 97.075 L 24.875 96.850 L 24.375 96.850 L 24.125 97.075 L 24.125 97.375 L 24.375 97.600 L 24.875 97.600 L 25.125 97.825 L 25.125 98.125 L 24.875 98.350 L 24.375 98.350 L 24.125 98.125" fill="none" stroke="#8b8f99" stroke-width="0.280" stroke-linecap="round" stroke-linejoin="round"/>
<path d="M 25.475 98.350 L 25.475 96.850 L 26.225 96.850 L 26.475 97.075 L 26.475 97.425 L 26.225 97.650 L 25.475 97.650" fill="none" stroke="#8b8f99" stroke-width="0.280" stroke-linecap="round" stroke-linejoin="round"/>
<path d="M 26.825 96.850 L 26.825 98.350 L 27.825 98.350" fill="none" stroke="#8b8f99" stroke-width="0.280" stroke-linecap="round" stroke-linejoin="round"/>
<path d="M 28.675 96.850 L 28.675 98.350" fill="none" stroke="#8b8f99" stroke-width="0.280" stroke-linecap="round" stroke-linejoin="round"/>
<path d="M 30.525 97.100 L 30.275 96.850 L 29.775 96.850 L 29.525 97.100 L 29.525 98.100 L 29.775 98.350 L 30.275 98.350 L 30.525 98.100" fill="none" stroke="#8b8f99" stroke-width="0.280" stroke-linecap="round" stroke-linejoin="round"/>
<path d="M 31.875 96.850 L 30.875 96.850 L 30.875 98.350 L 31.875 98.350" fill="none" stroke="#8b8f99" stroke-width="0.280" stroke-linecap="round" stroke-linejoin="round"/>
<path d="M 30.875 97.600 L 31.575 97.600" fill="none" stroke="#8b8f99" stroke-width="0.280" stroke-linecap="round" stroke-linejoin="round"/>
<circle cx="46.0" cy="104.0" r="4.4" fill="none" stroke="#3c414b" stroke-width="0.5"/>
<path d="M 43.975 96.850 L 43.975 98.350" fill="none" stroke="#8b8f99" stroke-width="0.280" stroke-linecap="round" stroke-linejoin="round"/>
<path d="M 44.825 98.350 L 44.825 96.850 L 45.825 98.350 L 45.825 96.850" fill="none" stroke="#8b8f99" stroke-width="0.280" stroke-linecap="round" stroke-linejoin="round"/>
<path d="M 47.525 96.850 L 47.525 98.350 L 48.525 98.350" fill="none" stroke="#8b8f99" stroke-width="0.280" stroke-linecap="round" stroke-linejoin="round"/>
<circle cx="64.0" cy="104.0" r="4.4" fill="none" stroke="#3c414b" stroke-width="0.5"/>
<path d="M 61.975 96.850 L 61.975 98.350" fill="none" stroke="#8b8f99" stroke-width="0.280" stroke-linecap="round" stroke-linejoin="round"/>
<path d="M 62.825 98.350 L 62.825 96.850 L 63.825 98.350 L 63.825 96.850" fill="none" stroke="#8b8f99" stroke-width="0.280" stroke-linecap="round" stroke-linejoin="round"/>
<path d="M 65.525 98.350 L 65.525 96.850 L 66.275 96.850 L 66.525 97.075 L 66.525 97.425 L 66.275 97.650 L 65.525 97.650" fill="none" stroke="#8b8f99" stroke-width="0.280" stroke-linecap="round" stroke-linejoin="round"/>
<path d="M 66.025 97.650 L 66.525 98.350" fill="none" stroke="#8b8f99" stroke-width="0.280" stroke-linecap="round" stroke-linejoin="round"/>
<circle cx="82.0" cy="104.0" r="4.4" fill="none" stroke="#d9a441" stroke-width="0.5"/>
<path d="M 81.150 96.850 L 80.150 96.850 L 80.150 98.350 L 81.150 98.350" fill="none" stroke="#e8e4da" stroke-width="0.280" stroke-linecap="round" stroke-linejoin="round"/>
<path d="M 80.150 97.600 L 80.850 97.600" fill="none" stroke="#e8e4da" stroke-width="0.280" stroke-linecap="round" stroke-linejoin="round"/>
<path d="M 81.750 96.850 L 82.250 96.850 L 82.500 97.100 L 82.500 98.100 L 82.250 98.350 L 81.750 98.350 L 81.500 98.100 L 81.500 97.100 L 81.750 96.850" fill="none" stroke="#e8e4da" stroke-width="0.280" stroke-linecap="round" stroke-linejoin="round"/>
<path d="M 83.850 97.075 L 83.600 96.850 L 83.100 96.850 L 82.850 97.075 L 82.850 97.375 L 83.100 97.600 L 83.600 97.600 L 83.850 97.825 L 83.850 98.125 L 83.600 98.350 L 83.100 98.350 L 82.850 98.125" fill="none" stroke="#e8e4da" stroke-width="0.280" stroke-linecap="round" stroke-linejoin="round"/>
<circle cx="100.0" cy="104.0" r="4.4" fill="none" stroke="#d9a441" stroke-width="0.5"/>
<path d="M 99.150 96.850 L 98.150 96.850 L 98.150 98.350 L 99.150 98.350" fill="none" stroke="#e8e4da" stroke-width="0.280" stroke-linecap="round" stroke-linejoin="round"/>
<path d="M 98.150 97.600 L 98.850 97.600" fill="none" stroke="#e8e4da" stroke-width="0.280" stroke-linecap="round" stroke-linejoin="round"/>
<path d="M 99.500 98.350 L 99.500 96.850 L 100.500 98.350 L 100.500 96.850" fill="none" stroke="#e8e4da" stroke-width="0.280" stroke-linecap="round" stroke-linejoin="round"/>
<path d="M 100.850 96.850 L 101.350 98.350 L 101.850 96.850" fill="none" stroke="#e8e4da" stroke-width="0.280" stroke-linecap="round" stroke-linejoin="round"/>
<circle cx="82.0" cy="118.0" r="4.4" fill="none" stroke="#d9a441" stroke-width="0.5"/>
<path d="M 79.050 110.850 L 79.550 110.850 L 79.800 111.100 L 79.800 112.100 L 79.550 112.350 L 79.050 112.350 L 78.800 112.100 L 78.800 111.100 L 79.050 110.850" fill="none" stroke="#e8e4da" stroke-width="0.280" stroke-linecap="round" stroke-linejoin="round"/>
<path d="M 80.150 110.850 L 80.150 112.100 L 80.400 112.350 L 80.900 112.350 L 81.150 112.100 L 81.150 110.850" fill="none" stroke="#e8e4da" stroke-width="0.280" stroke-linecap="round" stroke-linejoin="round"/>
<path d="M 81.500 110.850 L 82.500 110.850" fill="none" stroke="#e8e4da" stroke-width="0.280" stroke-linecap="round" stroke-linejoin="round"/>
<path d="M 82.000 110.850 L 82.000 112.350" fill="none" stroke="#e8e4da" stroke-width="0.280" stroke-linecap="round" stroke-linejoin="round"/>
<path d="M 84.200 110.850 L 84.200 112.350 L 85.200 112.350" fill="none" stroke="#e8e4da" stroke-width="0.280" stroke-linecap="round" stroke-linejoin="round"/>
<circle cx="100.0" cy="118.0" r="4.4" fill="none" stroke="#d9a441" stroke-width="0.5"/>
<path d="M 97.050 110.850 L 97.550 110.850 L 97.800 111.100 L 97.800 112.100 L 97.550 112.350 L 97.050 112.350 L 96.800 112.100 L 96.800 111.100 L 97.050 110.850" fill="none" stroke="#e8e4da" stroke-width="0.280" stroke-linecap="round" stroke-linejoin="round"/>
<path d="M 98.150 110.850 L 98.150 112.100 L 98.400 112.350 L 98.900 112.350 L 99.150 112.100 L 99.150 110.850" fill="none" stroke="#e8e4da" stroke-width="0.280" stroke-linecap="round" stroke-linejoin="round"/>
<path d="M 99.500 110.850 L 100.500 110.850" fill="none" stroke="#e8e4da" stroke-width="0.280" stroke-linecap="round" stroke-linejoin="round"/>
<path d="M 100.000 110.850 L 100.000 112.350" fill="none" stroke="#e8e4da" stroke-width="0.280" stroke-linecap="round" stroke-linejoin="round"/>
<path d="M 102.200 112.350 L 102.200 110.850 L 102.950 110.850 L 103.200 111.075 L 103.200 111.425 L 102.950 111.650 L 102.200 111.650" fill="none" stroke="#e8e4da" stroke-width="0.280" stroke-linecap="round" stroke-linejoin="round"/>
<path d="M 102.700 111.650 L 103.200 112.350" fill="none" stroke="#e8e4da" stroke-width="0.280" stroke-linecap="round" stroke-linejoin="round"/>
</svg>
