<svg xmlns="http://www.w3.org/2000/svg" width="91.44mm" height="128.5mm" viewBox="0 0 91.44 128.5">
<rect x="0" y="0" width="91.44" height="128.5" fill="#23262c"/>
<rect x="0.4" y="0.4" width="90.64" height="127.7" fill="none" stroke="#171a1f" stroke-width="0.8"/>
<path d="M 33.890 4.400 L 31.090 4.400 L 31.090 8.600 L 33.890 8.600" fill="none" stroke="#d9a441" stroke-width="0.850" stroke-linecap="round" stroke-linejoin="round"/>
<path d="M 31.090 6.500 L 33.050 6.500" fill="none" stroke="#d9a441" stroke-width="0.850" stroke-linecap="round" stroke-linejoin="round"/>
<path d="M 37.670 5.030 L 36.970 4.400 L 35.570 4.400 L 34.870 5.030 L 34.870 5.870 L 35.570 6.500 L 36.970 6.500 L 37.670 7.130 L 37.670 7.970 L 36.970 8.600 L 35.570 8.600 L 34.870 7.970" fill="none" stroke="#d9a441" stroke-width="0.850" stroke-linecap="round" stroke-linejoin="round"/>
<path d="M 38.650 8.600 L 38.650 4.400 L 40.750 4.400 L 41.450 5.030 L 41.450 6.010 L 40.750 6.640 L 38.650 6.640" fill="none" stroke="#d9a441" stroke-width="0.850" stroke-linecap="round" stroke-linejoin="round"/>
<path d="M 42.430 8.600 L 43.830 4.400 L 45.230 8.600" fill="none" stroke="#d9a441" stroke-width="0.850" stroke-linecap="round" stroke-linejoin="round"/>
<path d="M 43.060 7.130 L 44.600 7.130" fill="none" stroke="#d9a441" stroke-width="0.850" stroke-linecap="round" stroke-linejoin="round"/>
<path d="M 46.210 4.400 L 46.210 8.600 L 49.010 8.600" fill="none" stroke="#d9a441" stroke-width="0.850" stroke-linecap="round" stroke-linejoin="round"/>
<path d="M 51.390 4.400 L 51.390 8.600" fill="none" stroke="#d9a441" stroke-width="0.850" stroke-linecap="round" stroke-linejoin="round"/>
<path d="M 56.570 4.400 L 53.770 4.400 L 53.770 8.600 L 56.570 8.600" fill="none" stroke="#d9a441" stroke-width="0.850" stroke-linecap="round" stroke-linejoin="round"/>
<path d="M 53.770 6.500 L 55.730 6.500" fill="none" stroke="#d9a441" stroke-width="0.850" stroke-linecap="round" stroke-linejoin="round"/>
<path d="M 57.550 8.600 L 57.550 4.400 L 59.650 4.400 L 60.350 5.030 L 60.350 6.010 L 59.650 6.640 L 57.550 6.640" fill="none" stroke="#d9a441" stroke-width="0.850" stroke-linecap="round" stroke-linejoin="round"/>
<path d="M 58.950 6.640 L 60.350 8.600" fill="none" stroke="#d9a441" stroke-width="0.850" stroke-linecap="round" stroke-linejoin="round"/>
<path d="M 12 9.5 L 22 9.5" fill="none" stroke="#d9a441" stroke-width="0.55" opacity="0.65"/>
<path d="M 14.5 9.5 L 14.5 5.5 L 18 5.5" fill="none" stroke="#d9a441" stroke-width="0.55" opacity="0.65"/>
<path d="M 19 9.5 L 19 4.5 L 21.5 4.5" fill="none" stroke="#d9a441" stroke-width="0.55" opacity="0.65"/>
<path d="M 69.5 9.5 L 79.5 9.5" fill="none" stroke="#d9a441" stroke-width="0.55" opacity="0.65"/>
<path d="M 77 9.5 L 77 5.5 L 73.5 5.5" fill="none" stroke="#d9a441" stroke-width="0.55" opacity="0.65"/>
<path d="M 72.5 9.5 L 72.5 4.5 L 70 4.5" fill="none" stroke="#d9a441" stroke-width="0.55" opacity="0.65"/>
<path d="M 10.070 22.700 L 10.070 20.900 L 10.970 20.900 L 11.270 21.170 L 11.270 21.590 L 10.970 21.860 L 10.070 21.860" fill="none" stroke="#e8e4da" stroke-width="0.288" stroke-linecap="round" stroke-linejoin="round"/>
<path d="M 10.670 21.860 L 11.270 22.700" fill="none" stroke="#e8e4da" stroke-width="0.288" stroke-linecap="round" stroke-linejoin="round"/>
<path d="M 11.990 20.900 L 12.590 20.900 L 12.890 21.200 L 12.890 22.400 L 12.590 22.700 L 11.990 22.700 L 11.690 22.400 L 11.690 21.200 L 11.990 20.900" fill="none" stroke="#e8e4da" stroke-width="0.288" stroke-linecap="round" stroke-linejoin="round"/>
<path d="M 13.610 20.900 L 14.210 20.900 L 14.510 21.200 L 14.510 22.400 L 14.210 22.700 L 13.610 22.700 L 13.310 22.400 L 13.310 21.200 L 13.610 20.900" fill="none" stroke="#e8e4da" stroke-width="0.288" stroke-linecap="round" stroke-linejoin="round"/>
<path d="M 14.930 20.900 L 16.130 20.900" fill="none" stroke="#e8e4da" stroke-width="0.288" stroke-linecap="round" stroke-linejoin="round"/>
<path d="M 15.530 20.900 L 15.530 22.700" fill="none" stroke="#e8e4da" stroke-width="0.288" stroke-linecap="round" stroke-linejoin="round"/>
<path d="M 30.850 22.700 L 30.850 20.900 L 31.750 20.900 L 32.050 21.170 L 32.050 21.590 L 31.750 21.860 L 30.850 21.860" fill="none" stroke="#8b8f99" stroke-width="0.288" stroke-linecap="round" stroke-linejoin="round"/>
<path d="M 31.450 21.860 L 32.050 22.700" fill="none" stroke="#8b8f99" stroke-width="0.288" stroke-linecap="round" stroke-linejoin="round"/>
<path d="M 33.670 20.900 L 32.470 20.900 L 32.470 22.700 L 33.670 22.700" fill="none" stroke="#8b8f99" stroke-width="0.288" stroke-linecap="round" stroke-linejoin="round"/>
<path d="M 32.470 21.800 L 33.310 21.800" fill="none" stroke="#8b8f99" stroke-width="0.288" stroke-linecap="round" stroke-linejoin="round"/>
<path d="M 35.290 21.170 L 34.990 20.900 L 34.390 20.900 L 34.090 21.170 L 34.090 21.530 L 34.390 21.800 L 34.990 21.800 L 35.290 22.070 L 35.290 22.430 L 34.990 22.700 L 34.390 22.700 L 34.090 22.430" fill="none" stroke="#8b8f99" stroke-width="0.288" stroke-linecap="round" stroke-linejoin="round"/>
<path d="M 36.910 20.900 L 35.710 20.900 L 35.710 22.700 L 36.910 22.700" fill="none" stroke="#8b8f99" stroke-width="0.288" stroke-linecap="round" stroke-linejoin="round"/>
<path d="M 35.710 21.800 L 36.550 21.800" fill="none" stroke="#8b8f99" stroke-width="0.288" stroke-linecap="round" stroke-linejoin="round"/>
<path d="M 38.530 20.900 L 37.330 20.900 L 37.330 22.700 L 38.530 22.700" fill="none" stroke="#8b8f99" stroke-width="0.288" stroke-linecap="round" stroke-linejoin="round"/>
<path d="M 37.330 21.800 L 38.170 21.800" fill="none" stroke="#8b8f99" stroke-width="0.288" stroke-linecap="round" stroke-linejoin="round"/>
<path d="M 38.950 20.900 L 38.950 22.700" fill="none" stroke="#8b8f99" stroke-width="0.288" stroke-linecap="round" stroke-linejoin="round"/>
<path d="M 38.950 20.900 L 39.790 20.900 L 40.150 21.320 L 40.150 22.280 L 39.790 22.700 L 38.950 22.700" fill="none" stroke="#8b8f99" stroke-width="0.288" stroke-linecap="round" stroke-linejoin="round"/>
<path d="M 54.060 22.700 L 54.060 20.900 L 54.960 20.900 L 55.260 21.170 L 55.260 21.590 L 54.960 21.860 L 54.060 21.860" fill="none" stroke="#8b8f99" stroke-width="0.288" stroke-linecap="round" stroke-linejoin="round"/>
<path d="M 54.660 21.860 L 55.260 22.700" fill="none" stroke="#8b8f99" stroke-width="0.288" stroke-linecap="round" stroke-linejoin="round"/>
<path d="M 56.880 20.900 L 55.680 20.900 L 55.680 22.700 L 56.880 22.700" fill="none" stroke="#8b8f99" stroke-width="0.288" stroke-linecap="round" stroke-linejoin="round"/>
<path d="M 55.680 21.800 L 56.520 21.800" fill="none" stroke="#8b8f99" stroke-width="0.288" stroke-linecap="round" stroke-linejoin="round"/>
<path d="M 58.500 21.170 L 58.200 20.900 L 57.600 20.900 L 57.300 21.170 L 57.300 21.530 L 57.600 21.800 L 58.200 21.800 L 58.500 22.070 L 58.500 22.430 L 58.200 22.700 L 57.600 22.700 L 57.300 22.430" fill="none" stroke="#8b8f99" stroke-width="0.288" stroke-linecap="round" stroke-linejoin="round"/>
<path d="M 60.120 20.900 L 58.920 20.900 L 58.920 22.700 L 60.120 22.700" fill="none" stroke="#8b8f99" stroke-width="0.288" stroke-linecap="round" stroke-linejoin="round"/>
<path d="M 58.920 21.800 L 59.760 21.800" fill="none" stroke="#8b8f99" stroke-width="0.288" stroke-linecap="round" stroke-linejoin="round"/>
<path d="M 60.540 20.900 L 61.740 20.900" fill="none" stroke="#8b8f99" stroke-width="0.288" stroke-linecap="round" stroke-linejoin="round"/>
<path d="M 61.140 20.900 L 61.140 22.700" fill="none" stroke="#8b8f99" stroke-width="0.288" stroke-linecap="round" stroke-linejoin="round"/>
<path d="M 77.270 22.700 L 77.270 20.900 L 78.170 20.900 L 78.470 21.170 L 78.470 21.590 L 78.170 21.860 L 77.270 21.860" fill="none" stroke="#e8e4da" stroke-width="0.288" stroke-linecap="round" stroke-linejoin="round"/>
<path d="M 77.870 21.860 L 78.470 22.700" fill="none" stroke="#e8e4da" stroke-width="0.288" stroke-linecap="round" stroke-linejoin="round"/>
<path d="M 78.890 22.700 L 79.490 20.900 L 80.090 22.700" fill="none" stroke="#e8e4da" stroke-width="0.288" stroke-linecap="round" stroke-linejoin="round"/>
<path d="M 79.160 22.070 L 79.820 22.070" fill="none" stroke="#e8e4da" stroke-width="0.288" stroke-linecap="round" stroke-linejoin="round"/>
<path d="M 80.510 20.900 L 81.710 20.900" fill="none" stroke="#e8e4da" stroke-width="0.288" stroke-linecap="round" stroke-linejoin="round"/>
<path d="M 81.110 20.900 L 81.110 22.700" fill="none" stroke="#e8e4da" stroke-width="0.288" stroke-linecap="round" stroke-linejoin="round"/>
<path d="M 83.330 20.900 L 82.130 20.900 L 82.130 22.700 L 83.330 22.700" fill="none" stroke="#e8e4da" stroke-width="0.288" stroke-linecap="round" stroke-linejoin="round"/>
<path d="M 82.130 21.800 L 82.970 21.800" fill="none" stroke="#e8e4da" stroke-width="0.288" stroke-linecap="round" stroke-linejoin="round"/>
<path d="M 5.873 39.667 L 5.607 39.400 L 5.073 39.400 L 4.807 39.667 L 4.807 40.733 L 5.073 41.000 L 5.607 41.000 L 5.873 40.733" fill="none" stroke="#8b8f99" stroke-width="0.280" stroke-linecap="round" stroke-linejoin="round"/>
<path d="M 6.247 39.400 L 6.247 41.000" fill="none" stroke="#8b8f99" stroke-width="0.280" stroke-linecap="round" stroke-linejoin="round"/>
<path d="M 7.313 39.400 L 7.313 41.000" fill="none" stroke="#8b8f99" stroke-width="0.280" stroke-linecap="round" stroke-linejoin="round"/>
<path d="M 6.247 40.200 L 7.313 40.200" fill="none" stroke="#8b8f99" stroke-width="0.280" stroke-linecap="round" stroke-linejoin="round"/>
<path d="M 7.687 41.000 L 8.220 39.400 L 8.753 41.000" fill="none" stroke="#8b8f99" stroke-width="0.280" stroke-linecap="round" stroke-linejoin="round"/>
<path d="M 7.927 40.440 L 8.513 40.440" fill="none" stroke="#8b8f99" stroke-width="0.280" stroke-linecap="round" stroke-linejoin="round"/>
<path d="M 9.127 41.000 L 9.127 39.400 L 10.193 41.000 L 10.193 39.400" fill="none" stroke="#8b8f99" stroke-width="0.280" stroke-linecap="round" stroke-linejoin="round"/>
<path d="M 24.865 39.500 L 24.515 39.150 L 23.815 39.150 L 23.465 39.500 L 23.465 40.900 L 23.815 41.250 L 24.515 41.250 L 24.865 40.900 L 24.865 40.270 L 24.305 40.270" fill="none" stroke="#e8e4da" stroke-width="0.336" stroke-linecap="round" stroke-linejoin="round"/>
<path d="M 25.355 41.250 L 25.355 39.150 L 26.405 39.150 L 26.755 39.465 L 26.755 39.955 L 26.405 40.270 L 25.355 40.270" fill="none" stroke="#e8e4da" stroke-width="0.336" stroke-linecap="round" stroke-linejoin="round"/>
<path d="M 26.055 40.270 L 26.755 41.250" fill="none" stroke="#e8e4da" stroke-width="0.336" stroke-linecap="round" stroke-linejoin="round"/>
<path d="M 27.595 39.150 L 28.295 39.150 L 28.645 39.500 L 28.645 40.900 L 28.295 41.250 L 27.595 41.250 L 27.245 40.900 L 27.245 39.500 L 27.595 39.150" fill="none" stroke="#e8e4da" stroke-width="0.336" stroke-linecap="round" stroke-linejoin="round"/>
<path d="M 29.135 39.150 L 29.450 41.250 L 29.835 39.990 L 30.220 41.250 L 30.535 39.150" fill="none" stroke="#e8e4da" stroke-width="0.336" stroke-linecap="round" stroke-linejoin="round"/>
<path d="M 42.220 41.250 L 42.220 39.150 L 43.270 39.150 L 43.620 39.465 L 43.620 39.955 L 43.270 40.270 L 42.220 40.270" fill="none" stroke="#e8e4da" stroke-width="0.336" stroke-linecap="round" stroke-linejoin="round"/>
<path d="M 42.920 40.270 L 43.620 41.250" fill="none" stroke="#e8e4da" stroke-width="0.336" stroke-linecap="round" stroke-linejoin="round"/>
<path d="M 44.460 39.150 L 45.160 39.150 L 45.510 39.500 L 45.510 40.900 L 45.160 41.250 L 44.460 41.250 L 44.110 40.900 L 44.110 39.500 L 44.460 39.150" fill="none" stroke="#e8e4da" stroke-width="0.336" stroke-linecap="round" stroke-linejoin="round"/>
<path d="M 46.000 39.150 L 46.000 40.900 L 46.350 41.250 L 47.050 41.250 L 47.400 40.900 L 47.400 39.150" fill="none" stroke="#e8e4da" stroke-width="0.336" stroke-linecap="round" stroke-linejoin="round"/>
<path d="M 47.890 39.150 L 49.290 39.150" fill="none" stroke="#e8e4da" stroke-width="0.336" stroke-linecap="round" stroke-linejoin="round"/>
<path d="M 48.590 39.150 L 48.590 41.250" fill="none" stroke="#e8e4da" stroke-width="0.336" stroke-linecap="round" stroke-linejoin="round"/>
<path d="M 51.180 39.150 L 49.780 39.150 L 49.780 41.250 L 51.180 41.250" fill="none" stroke="#e8e4da" stroke-width="0.336" stroke-linecap="round" stroke-linejoin="round"/>
<path d="M 49.780 40.200 L 50.760 40.200" fill="none" stroke="#e8e4da" stroke-width="0.336" stroke-linecap="round" stroke-linejoin="round"/>
<path d="M 62.375 39.150 L 60.975 39.150 L 60.975 41.250 L 62.375 41.250" fill="none" stroke="#e8e4da" stroke-width="0.336" stroke-linecap="round" stroke-linejoin="round"/>
<path d="M 60.975 40.200 L 61.955 40.200" fill="none" stroke="#e8e4da" stroke-width="0.336" stroke-linecap="round" stroke-linejoin="round"/>
<path d="M 62.865 39.150 L 63.565 41.250 L 64.265 39.150" fill="none" stroke="#e8e4da" stroke-width="0.336" stroke-linecap="round" stroke-linejoin="round"/>
<path d="M 65.105 39.150 L 65.805 39.150 L 66.155 39.500 L 66.155 40.900 L 65.805 41.250 L 65.105 41.250 L 64.755 40.900 L 64.755 39.500 L 65.105 39.150" fill="none" stroke="#e8e4da" stroke-width="0.336" stroke-linecap="round" stroke-linejoin="round"/>
<path d="M 66.645 39.150 L 66.645 41.250 L 68.045 41.250" fill="none" stroke="#e8e4da" stroke-width="0.336" stroke-linecap="round" stroke-linejoin="round"/>
<path d="M 68.535 39.150 L 69.235 41.250 L 69.935 39.150" fill="none" stroke="#e8e4da" stroke-width="0.336" stroke-linecap="round" stroke-linejoin="round"/>
<path d="M 71.825 39.150 L 70.425 39.150 L 70.425 41.250 L 71.825 41.250" fill="none" stroke="#e8e4da" stroke-width="0.336" stroke-linecap="round" stroke-linejoin="round"/>
<path d="M 70.425 40.200 L 71.405 40.200" fill="none" stroke="#e8e4da" stroke-width="0.336" stroke-linecap="round" stroke-linejoin="round"/>
<path d="M 83.207 41.000 L 83.207 39.400 L 84.007 39.400 L 84.273 39.640 L 84.273 40.013 L 84.007 40.253 L 83.207 40.253" fill="none" stroke="#8b8f99" stroke-width="0.280" stroke-linecap="round" stroke-linejoin="round"/>
<path d="M 84.647 41.000 L 85.180 39.400 L 85.713 41.000" fill="none" stroke="#8b8f99" stroke-width="0.280" stroke-linecap="round" stroke-linejoin="round"/>
<path d="M 84.887 40.440 L 85.473 40.440" fill="none" stroke="#8b8f99" stroke-width="0.280" stroke-linecap="round" stroke-linejoin="round"/>
<path d="M 87.153 39.667 L 86.887 39.400 L 86.353 39.400 L 86.087 39.667 L 86.087 40.733 L 86.353 41.000 L 86.887 41.000 L 87.153 40.733 L 87.153 40.253 L 86.727 40.253" fill="none" stroke="#8b8f99" stroke-width="0.280" stroke-linecap="round" stroke-linejoin="round"/>
<path d="M 88.593 39.400 L 87.527 39.400 L 87.527 41.000 L 88.593 41.000" fill="none" stroke="#8b8f99" stroke-width="0.280" stroke-linecap="round" stroke-linejoin="round"/>
<path d="M 87.527 40.200 L 88.273 40.200" fill="none" stroke="#8b8f99" stroke-width="0.280" stroke-linecap="round" stroke-linejoin="round"/>
<path d="M 4.975 52.650 L 4.975 54.150" fill="none" stroke="#8b8f99" stroke-width="0.280" stroke-linecap="round" stroke-linejoin="round"/>
<path d="M 5.975 52.650 L 4.975 53.450 L 5.975 54.150" fill="none" stroke="#8b8f99" stroke-width="0.280" stroke-linecap="round" stroke-linejoin="round"/>
<path d="M 6.325 54.150 L 6.325 52.650 L 7.325 54.150 L 7.325 52.650" fill="none" stroke="#8b8f99" stroke-width="0.280" stroke-linecap="round" stroke-linejoin="round"/>
<path d="M 7.925 52.650 L 8.425 52.650 L 8.675 52.900 L 8.675 53.900 L 8.425 54.150 L 7.925 54.150 L 7.675 53.900 L 7.675 52.900 L 7.925 52.650" fill="none" stroke="#8b8f99" stroke-width="0.280" stroke-linecap="round" stroke-linejoin="round"/>
<path d="M 9.025 54.150 L 9.025 52.650 L 9.775 52.650 L 10.025 52.850 L 10.025 53.200 L 9.775 53.400 L 9.025 53.400" fill="none" stroke="#8b8f99" stroke-width="0.280" stroke-linecap="round" stroke-linejoin="round"/>
<path d="M 9.775 53.400 L 10.025 53.600 L 10.025 53.950 L 9.775 54.150 L 9.025 54.150" fill="none" stroke="#8b8f99" stroke-width="0.280" stroke-linecap="round" stroke-linejoin="round"/>
<path d="M 83.375 52.650 L 84.375 52.650" fill="none" stroke="#8b8f99" stroke-width="0.280" stroke-linecap="round" stroke-linejoin="round"/>
<path d="M 83.875 52.650 L 83.875 54.150" fill="none" stroke="#8b8f99" stroke-width="0.280" stroke-linecap="round" stroke-linejoin="round"/>
<path d="M 84.725 52.650 L 84.725 53.900 L 84.975 54.150 L 85.475 54.150 L 85.725 53.900 L 85.725 52.650" fill="none" stroke="#8b8f99" stroke-width="0.280" stroke-linecap="round" stroke-linejoin="round"/>
<path d="M 86.075 54.150 L 86.075 52.650 L 87.075 54.150 L 87.075 52.650" fill="none" stroke="#8b8f99" stroke-width="0.280" stroke-linecap="round" stroke-linejoin="round"/>
<path d="M 88.425 52.650 L 87.425 52.650 L 87.425 54.150 L 88.425 54.150" fill="none" stroke="#8b8f99" stroke-width="0.280" stroke-linecap="round" stroke-linejoin="round"/>
<path d="M 87.425 53.400 L 88.125 53.400" fill="none" stroke="#8b8f99" stroke-width="0.280" stroke-linecap="round" stroke-linejoin="round"/>
<path d="M 12.650 54.650 L 12.650 56.150 L 13.650 56.150" fill="none" stroke="#8b8f99" stroke-width="0.280" stroke-linecap="round" stroke-linejoin="round"/>
<path d="M 15.000 54.650 L 14.000 54.650 L 14.000 56.150 L 15.000 56.150" fill="none" stroke="#8b8f99" stroke-width="0.280" stroke-linecap="round" stroke-linejoin="round"/>
<path d="M 14.000 55.400 L 14.700 55.400" fill="none" stroke="#8b8f99" stroke-width="0.280" stroke-linecap="round" stroke-linejoin="round"/>
<path d="M 15.350 56.150 L 15.350 54.650 L 16.350 56.150 L 16.350 54.650" fill="none" stroke="#8b8f99" stroke-width="0.280" stroke-linecap="round" stroke-linejoin="round"/>
<path d="M 33.100 54.875 L 32.850 54.650 L 32.350 54.650 L 32.100 54.875 L 32.100 55.175 L 32.350 55.400 L 32.850 55.400 L 33.100 55.625 L 33.100 55.925 L 32.850 56.150 L 32.350 56.150 L 32.100 55.925" fill="none" stroke="#8b8f99" stroke-width="0.280" stroke-linecap="round" stroke-linejoin="round"/>
<path d="M 34.450 54.900 L 34.200 54.650 L 33.700 54.650 L 33.450 54.900 L 33.450 55.900 L 33.700 56.150 L 34.200 56.150 L 34.450 55.900" fill="none" stroke="#8b8f99" stroke-width="0.280" stroke-linecap="round" stroke-linejoin="round"/>
<path d="M 34.800 56.150 L 35.300 54.650 L 35.800 56.150" fill="none" stroke="#8b8f99" stroke-width="0.280" stroke-linecap="round" stroke-linejoin="round"/>
<path d="M 35.025 55.625 L 35.575 55.625" fill="none" stroke="#8b8f99" stroke-width="0.280" stroke-linecap="round" stroke-linejoin="round"/>
<path d="M 36.150 54.650 L 36.150 56.150 L 37.150 56.150" fill="none" stroke="#8b8f99" stroke-width="0.280" stroke-linecap="round" stroke-linejoin="round"/>
<path d="M 38.500 54.650 L 37.500 54.650 L 37.500 56.150 L 38.500 56.150" fill="none" stroke="#8b8f99" stroke-width="0.280" stroke-linecap="round" stroke-linejoin="round"/>
<path d="M 37.500 55.400 L 38.200 55.400" fill="none" stroke="#8b8f99" stroke-width="0.280" stroke-linecap="round" stroke-linejoin="round"/>
<path d="M 53.150 54.650 L 53.650 54.650 L 53.900 54.900 L 53.900 55.900 L 53.650 56.150 L 53.150 56.150 L 52.900 55.900 L 52.900 54.900 L 53.150 54.650" fill="none" stroke="#8b8f99" stroke-width="0.280" stroke-linecap="round" stroke-linejoin="round"/>
<path d="M 54.250 56.150 L 54.250 54.650 L 55.000 54.650 L 55.250 54.875 L 55.250 55.225 L 55.000 55.450 L 54.250 55.450" fill="none" stroke="#8b8f99" stroke-width="0.280" stroke-linecap="round" stroke-linejoin="round"/>
<path d="M 54.750 55.450 L 55.250 56.150" fill="none" stroke="#8b8f99" stroke-width="0.280" stroke-linecap="round" stroke-linejoin="round"/>
<path d="M 55.600 54.650 L 55.600 56.150" fill="none" stroke="#8b8f99" stroke-width="0.280" stroke-linecap="round" stroke-linejoin="round"/>
<path d="M 55.600 54.650 L 56.300 54.650 L 56.600 55.000 L 56.600 55.800 L 56.300 56.150 L 55.600 56.150" fill="none" stroke="#8b8f99" stroke-width="0.280" stroke-linecap="round" stroke-linejoin="round"/>
<path d="M 57.950 54.650 L 56.950 54.650 L 56.950 56.150 L 57.950 56.150" fill="none" stroke="#8b8f99" stroke-width="0.280" stroke-linecap="round" stroke-linejoin="round"/>
<path d="M 56.950 55.400 L 57.650 55.400" fill="none" stroke="#8b8f99" stroke-width="0.280" stroke-linecap="round" stroke-linejoin="round"/>
<path d="M 58.300 56.150 L 58.300 54.650 L 59.050 54.650 L 59.300 54.875 L 59.300 55.225 L 59.050 55.450 L 58.300 55.450" fill="none" stroke="#8b8f99" stroke-width="0.280" stroke-linecap="round" stroke-linejoin="round"/>
<path d="M 58.800 55.450 L 59.300 56.150" fill="none" stroke="#8b8f99" stroke-width="0.280" stroke-linecap="round" stroke-linejoin="round"/>
<path d="M 74.375 56.150 L 74.375 54.650 L 75.125 54.650 L 75.375 54.875 L 75.375 55.225 L 75.125 55.450 L 74.375 55.450" fill="none" stroke="#8b8f99" stroke-width="0.280" stroke-linecap="round" stroke-linejoin="round"/>
<path d="M 75.725 56.150 L 76.225 54.650 L 76.725 56.150" fill="none" stroke="#8b8f99" stroke-width="0.280" stroke-linecap="round" stroke-linejoin="round"/>
<path d="M 75.950 55.625 L 76.500 55.625" fill="none" stroke="#8b8f99" stroke-width="0.280" stroke-linecap="round" stroke-linejoin="round"/>
<path d="M 77.075 54.650 L 78.075 54.650" fill="none" stroke="#8b8f99" stroke-width="0.280" stroke-linecap="round" stroke-linejoin="round"/>
<path d="M 77.575 54.650 L 77.575 56.150" fill="none" stroke="#8b8f99" stroke-width="0.280" stroke-linecap="round" stroke-linejoin="round"/>
<path d="M 78.425 54.650 L 79.425 54.650" fill="none" stroke="#8b8f99" stroke-width="0.280" stroke-linecap="round" stroke-linejoin="round"/>
<path d="M 78.925 54.650 L 78.925 56.150" fill="none" stroke="#8b8f99" stroke-width="0.280" stroke-linecap="round" stroke-linejoin="round"/>
<path d="M 11.300 73.650 L 11.300 72.150 L 12.050 72.150 L 12.300 72.375 L 12.300 72.725 L 12.050 72.950 L 11.300 72.950" fill="none" stroke="#8b8f99" stroke-width="0.280" stroke-linecap="round" stroke-linejoin="round"/>
<path d="M 11.800 72.950 L 12.300 73.650" fill="none" stroke="#8b8f99" stroke-width="0.280" stroke-linecap="round" stroke-linejoin="round"/>
<path d="M 12.650 73.650 L 13.150 72.150 L 13.650 73.650" fill="none" stroke="#8b8f99" stroke-width="0.280" stroke-linecap="round" stroke-linejoin="round"/>
<path d="M 12.875 73.125 L 13.425 73.125" fill="none" stroke="#8b8f99" stroke-width="0.280" stroke-linecap="round" stroke-linejoin="round"/>
<path d="M 14.000 72.150 L 15.000 72.150" fill="none" stroke="#8b8f99" stroke-width="0.280" stroke-linecap="round" stroke-linejoin="round"/>
<path d="M 14.500 72.150 L 14.500 73.650" fill="none" stroke="#8b8f99" stroke-width="0.280" stroke-linecap="round" stroke-linejoin="round"/>
<path d="M 15.850 72.150 L 15.850 73.650" fill="none" stroke="#8b8f99" stroke-width="0.280" stroke-linecap="round" stroke-linejoin="round"/>
<path d="M 16.950 72.150 L 17.450 72.150 L 17.700 72.400 L 17.700 73.400 L 17.450 73.650 L 16.950 73.650 L 16.700 73.400 L 16.700 72.400 L 16.950 72.150" fill="none" stroke="#8b8f99" stroke-width="0.280" stroke-linecap="round" stroke-linejoin="round"/>
<path d="M 33.775 72.375 L 33.525 72.150 L 33.025 72.150 L 32.775 72.375 L 32.775 72.675 L 33.025 72.900 L 33.525 72.900 L 33.775 73.125 L 33.775 73.425 L 33.525 73.650 L 33.025 73.650 L 32.775 73.425" fill="none" stroke="#8b8f99" stroke-width="0.280" stroke-linecap="round" stroke-linejoin="round"/>
<path d="M 34.625 72.150 L 34.625 73.650" fill="none" stroke="#8b8f99" stroke-width="0.280" stroke-linecap="round" stroke-linejoin="round"/>
<path d="M 35.475 72.150 L 36.475 72.150 L 35.475 73.650 L 36.475 73.650" fill="none" stroke="#8b8f99" stroke-width="0.280" stroke-linecap="round" stroke-linejoin="round"/>
<path d="M 37.825 72.150 L 36.825 72.150 L 36.825 73.650 L 37.825 73.650" fill="none" stroke="#8b8f99" stroke-width="0.280" stroke-linecap="round" stroke-linejoin="round"/>
<path d="M 36.825 72.900 L 37.525 72.900" fill="none" stroke="#8b8f99" stroke-width="0.280" stroke-linecap="round" stroke-linejoin="round"/>
<path d="M 54.250 73.650 L 54.250 72.150 L 55.000 72.150 L 55.250 72.375 L 55.250 72.725 L 55.000 72.950 L 54.250 72.950" fill="none" stroke="#8b8f99" stroke-width="0.280" stroke-linecap="round" stroke-linejoin="round"/>
<path d="M 54.750 72.950 L 55.250 73.650" fill="none" stroke="#8b8f99" stroke-width="0.280" stroke-linecap="round" stroke-linejoin="round"/>
<path d="M 55.850 72.150 L 56.350 72.150 L 56.600 72.400 L 56.600 73.400 L 56.350 73.650 L 55.850 73.650 L 55.600 73.400 L 55.600 72.400 L 55.850 72.150" fill="none" stroke="#8b8f99" stroke-width="0.280" stroke-linecap="round" stroke-linejoin="round"/>
<path d="M 56.950 72.150 L 57.950 72.150" fill="none" stroke="#8b8f99" stroke-width="0.280" stroke-linecap="round" stroke-linejoin="round"/>
<path d="M 57.450 72.150 L 57.450 73.650" fill="none" stroke="#8b8f99" stroke-width="0.280" stroke-linecap="round" stroke-linejoin="round"/>
<path d="M 73.700 72.150 L 74.700 72.150" fill="none" stroke="#8b8f99" stroke-width="0.280" stroke-linecap="round" stroke-linejoin="round"/>
<path d="M 74.200 72.150 L 74.200 73.650" fill="none" stroke="#8b8f99" stroke-width="0.280" stroke-linecap="round" stroke-linejoin="round"/>
<path d="M 75.050 73.650 L 75.050 72.150 L 75.800 72.150 L 76.050 72.375 L 76.050 72.725 L 75.800 72.950 L 75.050 72.950" fill="none" stroke="#8b8f99" stroke-width="0.280" stroke-linecap="round" stroke-linejoin="round"/>
<path d="M 75.550 72.950 L 76.050 73.650" fill="none" stroke="#8b8f99" stroke-width="0.280" stroke-linecap="round" stroke-linejoin="round"/>
<path d="M 76.400 73.650 L 76.900 72.150 L 77.400 73.650" fill="none" stroke="#8b8f99" stroke-width="0.280" stroke-linecap="round" stroke-linejoin="round"/>
<path d="M 76.625 73.125 L 77.175 73.125" fill="none" stroke="#8b8f99" stroke-width="0.280" stroke-linecap="round" stroke-linejoin="round"/>
<path d="M 77.750 73.650 L 77.750 72.150 L 78.750 73.650 L 78.750 72.150" fill="none" stroke="#8b8f99" stroke-width="0.280" stroke-linecap="round" stroke-linejoin="round"/>
<path d="M 80.100 72.375 L 79.850 72.150 L 79.350 72.150 L 79.100 72.375 L 79.100 72.675 L 79.350 72.900 L 79.850 72.900 L 80.100 73.125 L 80.100 73.425 L 79.850 73.650 L 79.350 73.650 L 79.100 73.425" fill="none" stroke="#8b8f99" stroke-width="0.280" stroke-linecap="round" stroke-linejoin="round"/>
<path d="M 22.050 72.950 L 22.350 72.650 L 22.350 74.150" fill="none" stroke="#8b8f99" stroke-width="0.280" stroke-linecap="round" stroke-linejoin="round"/>
<path d="M 22.050 74.150 L 22.650 74.150" fill="none" stroke="#8b8f99" stroke-width="0.280" stroke-linecap="round" stroke-linejoin="round"/>

<path d="M 42.600 72.900 L 42.850 72.650 L 43.350 72.650 L 43.600 72.900 L 43.600 73.150 L 42.600 74.150 L 43.600 74.150" fill="none" stroke="#8b8f99" stroke-width="0.280" stroke-linecap="round" stroke-linejoin="round"/>

<path d="M 63.400 72.850 L 63.650 72.650 L 64.150 72.650 L 64.400 72.900 L 64.400 73.150 L 64.150 73.400 L 63.800 73.400" fill="none" stroke="#8b8f99" stroke-width="0.280" stroke-linecap="round" stroke-linejoin="round"/>
<path d="M 64.150 73.400 L 64.400 73.650 L 64.400 73.900 L 64.150 74.150 L 63.650 74.150 L 63.400 73.950" fill="none" stroke="#8b8f99" stroke-width="0.280" stroke-linecap="round" stroke-linejoin="round"/>



<circle cx="7.5" cy="99.0" r="4.4" fill="none" stroke="#3c414b" stroke-width="0.5"/>
<path d="M 5.300 92.100 L 5.050 91.850 L 4.550 91.850 L 4.300 92.100 L 4.300 93.100 L 4.550 93.350 L 5.050 93.350 L 5.300 93.100" fill="none" stroke="#8b8f99" stroke-width="0.280" stroke-linecap="round" stroke-linejoin="round"/>
<path d="M 5.650 91.850 L 5.650 93.350 L 6.650 93.350" fill="none" stroke="#8b8f99" stroke-width="0.280" stroke-linecap="round" stroke-linejoin="round"/>
<path d="M 7.250 91.850 L 7.750 91.850 L 8.000 92.100 L 8.000 93.100 L 7.750 93.350 L 7.250 93.350 L 7.000 93.100 L 7.000 92.100 L 7.250 91.850" fill="none" stroke="#8b8f99" stroke-width="0.280" stroke-linecap="round" stroke-linejoin="round"/>
<path d="M 9.350 92.100 L 9.100 91.850 L 8.600 91.850 L 8.350 92.100 L 8.350 93.100 L 8.600 93.350 L 9.100 93.350 L 9.350 93.100" fill="none" stroke="#8b8f99" stroke-width="0.280" stroke-linecap="round" stroke-linejoin="round"/>
<path d="M 9.700 91.850 L 9.700 93.350" fill="none" stroke="#8b8f99" stroke-width="0.280" stroke-linecap="round" stroke-linejoin="round"/>
<path d="M 10.700 91.850 L 9.700 92.650 L 10.700 93.350" fill="none" stroke="#8b8f99" stroke-width="0.280" stroke-linecap="round" stroke-linejoin="round"/>
<circle cx="18.7" cy="99.0" r="4.4" fill="none" stroke="#3c414b" stroke-width="0.5"/>
<path d="M 17.175 92.100 L 16.925 91.850 L 16.425 91.850 L 16.175 92.100 L 16.175 93.100 L 16.425 93.350 L 16.925 93.350 L 17.175 93.100 L 17.175 92.650 L 16.775 92.650" fill="none" stroke="#8b8f99" stroke-width="0.280" stroke-linecap="round" stroke-linejoin="round"/>
<path d="M 17.525 93.350 L 17.525 91.850 L 18.275 91.850 L 18.525 92.075 L 18.525 92.425 L 18.275 92.650 L 17.525 92.650" fill="none" stroke="#8b8f99" stroke-width="0.280" stroke-linecap="round" stroke-linejoin="round"/>
<path d="M 18.025 92.650 L 18.525 93.350" fill="none" stroke="#8b8f99" stroke-width="0.280" stroke-linecap="round" stroke-linejoin="round"/>
<path d="M 19.125 91.850 L 19.625 91.850 L 19.875 92.100 L 19.875 93.100 L 19.625 93.350 L 19.125 93.350 L 18.875 93.100 L 18.875 92.100 L 19.125 91.850" fill="none" stroke="#8b8f99" stroke-width="0.280" stroke-linecap="round" stroke-linejoin="round"/>
<path d="M 20.225 91.850 L 20.450 93.350 L 20.725 92.450 L 21.000 93.350 L 21.225 91.850" fill="none" stroke="#8b8f99" stroke-width="0.280" stroke-linecap="round" stroke-linejoin="round"/>
<circle cx="29.9" cy="99.0" r="4.4" fill="none" stroke="#3c414b" stroke-width="0.5"/>
<path d="M 26.700 93.350 L 26.700 91.850 L 27.450 91.850 L 27.700 92.075 L 27.700 92.425 L 27.450 92.650 L 26.700 92.650" fill="none" stroke="#8b8f99" stroke-width="0.280" stroke-linecap="round" stroke-linejoin="round"/>
<path d="M 27.200 92.650 L 27.700 93.350" fill="none" stroke="#8b8f99" stroke-width="0.280" stroke-linecap="round" stroke-linejoin="round"/>
<path d="M 28.300 91.850 L 28.800 91.850 L 29.050 92.100 L 29.050 93.100 L 28.800 93.350 L 28.300 93.350 L 28.050 93.100 L 28.050 92.100 L 28.300 91.850" fill="none" stroke="#8b8f99" stroke-width="0.280" stroke-linecap="round" stroke-linejoin="round"/>
<path d="M 29.400 91.850 L 29.400 93.100 L 29.650 93.350 L 30.150 93.350 L 30.400 93.100 L 30.400 91.850" fill="none" stroke="#8b8f99" stroke-width="0.280" stroke-linecap="round" stroke-linejoin="round"/>
<path d="M 30.750 91.850 L 31.750 91.850" fill="none" stroke="#8b8f99" stroke-width="0.280" stroke-linecap="round" stroke-linejoin="round"/>
<path d="M 31.250 91.850 L 31.250 93.350" fill="none" stroke="#8b8f99" stroke-width="0.280" stroke-linecap="round" stroke-linejoin="round"/>
<path d="M 33.100 91.850 L 32.100 91.850 L 32.100 93.350 L 33.100 93.350" fill="none" stroke="#8b8f99" stroke-width="0.280" stroke-linecap="round" stroke-linejoin="round"/>
<path d="M 32.100 92.600 L 32.800 92.600" fill="none" stroke="#8b8f99" stroke-width="0.280" stroke-linecap="round" stroke-linejoin="round"/>
<circle cx="41.1" cy="99.0" r="4.4" fill="none" stroke="#3c414b" stroke-width="0.5"/>
<path d="M 38.225 91.850 L 37.225 91.850 L 37.225 93.350 L 38.225 93.350" fill="none" stroke="#8b8f99" stroke-width="0.280" stroke-linecap="round" stroke-linejoin="round"/>
<path d="M 37.225 92.600 L 37.925 92.600" fill="none" stroke="#8b8f99" stroke-width="0.280" stroke-linecap="round" stroke-linejoin="round"/>
<path d="M 38.575 91.850 L 39.075 93.350 L 39.575 91.850" fill="none" stroke="#8b8f99" stroke-width="0.280" stroke-linecap="round" stroke-linejoin="round"/>
<path d="M 40.175 91.850 L 40.675 91.850 L 40.925 92.100 L 40.925 93.100 L 40.675 93.350 L 40.175 93.350 L 39.925 93.100 L 39.925 92.100 L 40.175 91.850" fill="none" stroke="#8b8f99" stroke-width="0.280" stroke-linecap="round" stroke-linejoin="round"/>
<path d="M 41.275 91.850 L 41.275 93.350 L 42.275 93.350" fill="none" stroke="#8b8f99" stroke-width="0.280" stroke-linecap="round" stroke-linejoin="round"/>
<path d="M 42.625 91.850 L 43.125 93.350 L 43.625 91.850" fill="none" stroke="#8b8f99" stroke-width="0.280" stroke-linecap="round" stroke-linejoin="round"/>
<path d="M 44.975 91.850 L 43.975 91.850 L 43.975 93.350 L 44.975 93.350" fill="none" stroke="#8b8f99" stroke-width="0.280" stroke-linecap="round" stroke-linejoin="round"/>
<path d="M 43.975 92.600 L 44.675 92.600" fill="none" stroke="#8b8f99" stroke-width="0.280" stroke-linecap="round" stroke-linejoin="round"/>
<circle cx="52.3" cy="99.0" r="4.4" fill="none" stroke="#d9a441" stroke-width="0.5"/>
<path d="M 49.425 92.100 L 49.175 91.850 L 48.675 91.850 L 48.425 92.100 L 48.425 93.100 L 48.675 93.350 L 49.175 93.350 L 49.425 93.100 L 49.425 92.650 L 49.025 92.650" fill="none" stroke="#e8e4da" stroke-width="0.280" stroke-linecap="round" stroke-linejoin="round"/>
<path d="M 49.775 93.350 L 50.275 91.850 L 50.775 93.350" fill="none" stroke="#e8e4da" stroke-width="0.280" stroke-linecap="round" stroke-linejoin="round"/>
<path d="M 50.000 92.825 L 50.550 92.825" fill="none" stroke="#e8e4da" stroke-width="0.280" stroke-linecap="round" stroke-linejoin="round"/>
<path d="M 51.125 91.850 L 52.125 91.850" fill="none" stroke="#e8e4da" stroke-width="0.280" stroke-linecap="round" stroke-linejoin="round"/>
<path d="M 51.625 91.850 L 51.625 93.350" fill="none" stroke="#e8e4da" stroke-width="0.280" stroke-linecap="round" stroke-linejoin="round"/>
<path d="M 53.475 91.850 L 52.475 91.850 L 52.475 93.350 L 53.475 93.350" fill="none" stroke="#e8e4da" stroke-width="0.280" stroke-linecap="round" stroke-linejoin="round"/>
<path d="M 52.475 92.600 L 53.175 92.600" fill="none" stroke="#e8e4da" stroke-width="0.280" stroke-linecap="round" stroke-linejoin="round"/>
<path d="M 55.425 92.150 L 55.725 91.850 L 55.725 93.350" fill="none" stroke="#e8e4da" stroke-width="0.280" stroke-linecap="round" stroke-linejoin="round"/>
<path d="M 55.425 93.350 L 56.025 93.350" fill="none" stroke="#e8e4da" stroke-width="0.280" stroke-linecap="round" stroke-linejoin="round"/>
<circle cx="63.5" cy="99.0" r="4.4" fill="none" stroke="#d9a441" stroke-width="0.5"/>
<path d="M 60.625 92.100 L 60.375 91.850 L 59.875 91.850 L 59.625 92.100 L 59.625 93.100 L 59.875 93.350 L 60.375 93.350 L 60.625 93.100 L 60.625 92.650 L 60.225 92.650" fill="none" stroke="#e8e4da" stroke-width="0.280" stroke-linecap="round" stroke-linejoin="round"/>
<path d="M 60.975 93.350 L 61.475 91.850 L 61.975 93.350" fill="none" stroke="#e8e4da" stroke-width="0.280" stroke-linecap="round" stroke-linejoin="round"/>
<path d="M 61.200 92.825 L 61.750 92.825" fill="none" stroke="#e8e4da" stroke-width="0.280" stroke-linecap="round" stroke-linejoin="round"/>
<path d="M 62.325 91.850 L 63.325 91.850" fill="none" stroke="#e8e4da" stroke-width="0.280" stroke-linecap="round" stroke-linejoin="round"/>
<path d="M 62.825 91.850 L 62.825 93.350" fill="none" stroke="#e8e4da" stroke-width="0.280" stroke-linecap="round" stroke-linejoin="round"/>
<path d="M 64.675 91.850 L 63.675 91.850 L 63.675 93.350 L 64.675 93.350" fill="none" stroke="#e8e4da" stroke-width="0.280" stroke-linecap="round" stroke-linejoin="round"/>
<path d="M 63.675 92.600 L 64.375 92.600" fill="none" stroke="#e8e4da" stroke-width="0.280" stroke-linecap="round" stroke-linejoin="round"/>
<path d="M 66.375 92.100 L 66.625 91.850 L 67.125 91.850 L 67.375 92.100 L 67.375 92.350 L 66.375 93.350 L 67.375 93.350" fill="none" stroke="#e8e4da" stroke-width="0.280" stroke-linecap="round" stroke-linejoin="round"/>
<circle cx="74.7" cy="99.0" r="4.4" fill="none" stroke="#d9a441" stroke-width="0.5"/>
<path d="M 71.825 92.100 L 71.575 91.850 L 71.075 91.850 L 70.825 92.100 L 70.825 93.100 L 71.075 93.350 L 71.575 93.350 L 71.825 93.100 L 71.825 92.650 L 71.425 92.650" fill="none" stroke="#e8e4da" stroke-width="0.280" stroke-linecap="round" stroke-linejoin="round"/>
<path d="M 72.175 93.350 L 72.675 91.850 L 73.175 93.350" fill="none" stroke="#e8e4da" stroke-width="0.280" stroke-linecap="round" stroke-linejoin="round"/>
<path d="M 72.400 92.825 L 72.950 92.825" fill="none" stroke="#e8e4da" stroke-width="0.280" stroke-linecap="round" stroke-linejoin="round"/>
<path d="M 73.525 91.850 L 74.525 91.850" fill="none" stroke="#e8e4da" stroke-width="0.280" stroke-linecap="round" stroke-linejoin="round"/>
<path d="M 74.025 91.850 L 74.025 93.350" fill="none" stroke="#e8e4da" stroke-width="0.280" stroke-linecap="round" stroke-linejoin="round"/>
<path d="M 75.875 91.850 L 74.875 91.850 L 74.875 93.350 L 75.875 93.350" fill="none" stroke="#e8e4da" stroke-width="0.280" stroke-linecap="round" stroke-linejoin="round"/>
<path d="M 74.875 92.600 L 75.575 92.600" fill="none" stroke="#e8e4da" stroke-width="0.280" stroke-linecap="round" stroke-linejoin="round"/>
<path d="M 77.575 92.050 L 77.825 91.850 L 78.325 91.850 L 78.575 92.100 L 78.575 92.350 L 78.325 92.600 L 77.975 92.600" fill="none" stroke="#e8e4da" stroke-width="0.280" stroke-linecap="round" stroke-linejoin="round"/>
<path d="M 78.325 92.600 L 78.575 92.850 L 78.575 93.100 L 78.325 93.350 L 77.825 93.350 L 77.575 93.150" fill="none" stroke="#e8e4da" stroke-width="0.280" stroke-linecap="round" stroke-linejoin="round"/>
<circle cx="85.9" cy="99.0" r="4.4" fill="none" stroke="#d9a441" stroke-width="0.5"/>
<path d="M 85.050 92.100 L 84.800 91.850 L 84.300 91.850 L 84.050 92.100 L 84.050 93.100 L 84.300 93.350 L 84.800 93.350 L 85.050 93.100" fill="none" stroke="#e8e4da" stroke-width="0.280" stroke-linecap="round" stroke-linejoin="round"/>
<path d="M 85.400 91.850 L 85.400 93.350 L 86.400 93.350" fill="none" stroke="#e8e4da" stroke-width="0.280" stroke-linecap="round" stroke-linejoin="round"/>
<path d="M 86.750 91.850 L 86.750 93.350" fill="none" stroke="#e8e4da" stroke-width="0.280" stroke-linecap="round" stroke-linejoin="round"/>
<path d="M 87.750 91.850 L 86.750 92.650 L 87.750 93.350" fill="none" stroke="#e8e4da" stroke-width="0.280" stroke-linecap="round" stroke-linejoin="round"/>
<circle cx="18.7" cy="115.5" r="4.4" fill="none" stroke="#d9a441" stroke-width="0.5"/>
<path d="M 15.500 109.850 L 15.500 108.350 L 16.000 109.150 L 16.500 108.350 L 16.500 109.850" fill="none" stroke="#e8e4da" stroke-width="0.280" stroke-linecap="round" stroke-linejoin="round"/>
<path d="M 17.100 108.350 L 17.600 108.350 L 17.850 108.600 L 17.850 109.600 L 17.600 109.850 L 17.100 109.850 L 16.850 109.600 L 16.850 108.600 L 17.100 108.350" fill="none" stroke="#e8e4da" stroke-width="0.280" stroke-linecap="round" stroke-linejoin="round"/>
<path d="M 18.200 108.350 L 18.200 109.850" fill="none" stroke="#e8e4da" stroke-width="0.280" stroke-linecap="round" stroke-linejoin="round"/>
<path d="M 18.200 108.350 L 18.900 108.350 L 19.200 108.700 L 19.200 109.500 L 18.900 109.850 L 18.200 109.850" fill="none" stroke="#e8e4da" stroke-width="0.280" stroke-linecap="round" stroke-linejoin="round"/>
<path d="M 21.150 108.650 L 21.450 108.350 L 21.450 109.850" fill="none" stroke="#e8e4da" stroke-width="0.280" stroke-linecap="round" stroke-linejoin="round"/>
<path d="M 21.150 109.850 L 21.750 109.850" fill="none" stroke="#e8e4da" stroke-width="0.280" stroke-linecap="round" stroke-linejoin="round"/>
<circle cx="29.9" cy="115.5" r="4.4" fill="none" stroke="#d9a441" stroke-width="0.5"/>
<path d="M 26.700 109.850 L 26.700 108.350 L 27.200 109.150 L 27.700 108.350 L 27.700 109.850" fill="none" stroke="#e8e4da" stroke-width="0.280" stroke-linecap="round" stroke-linejoin="round"/>
<path d="M 28.300 108.350 L 28.800 108.350 L 29.050 108.600 L 29.050 109.600 L 28.800 109.850 L 28.300 109.850 L 28.050 109.600 L 28.050 108.600 L 28.300 108.350" fill="none" stroke="#e8e4da" stroke-width="0.280" stroke-linecap="round" stroke-linejoin="round"/>
<path d="M 29.400 108.350 L 29.400 109.850" fill="none" stroke="#e8e4da" stroke-width="0.280" stroke-linecap="round" stroke-linejoin="round"/>
<path d="M 29.400 108.350 L 30.100 108.350 L 30.400 108.700 L 30.400 109.500 L 30.100 109.850 L 29.400 109.850" fill="none" stroke="#e8e4da" stroke-width="0.280" stroke-linecap="round" stroke-linejoin="round"/>
<path d="M 32.100 108.600 L 32.350 108.350 L 32.850 108.350 L 33.100 108.600 L 33.100 108.850 L 32.100 109.850 L 33.100 109.850" fill="none" stroke="#e8e4da" stroke-width="0.280" stroke-linecap="round" stroke-linejoin="round"/>
<circle cx="41.1" cy="115.5" r="4.4" fill="none" stroke="#d9a441" stroke-width="0.5"/>
<path d="M 37.900 109.850 L 37.900 108.350 L 38.400 109.150 L 38.900 108.350 L 38.900 109.850" fill="none" stroke="#e8e4da" stroke-width="0.280" stroke-linecap="round" stroke-linejoin="round"/>
<path d="M 39.500 108.350 L 40.000 108.350 L 40.250 108.600 L 40.250 109.600 L 40.000 109.850 L 39.500 109.850 L 39.250 109.600 L 39.250 108.600 L 39.500 108.350" fill="none" stroke="#e8e4da" stroke-width="0.280" stroke-linecap="round" stroke-linejoin="round"/>
<path d="M 40.600 108.350 L 40.600 109.850" fill="none" stroke="#e8e4da" stroke-width="0.280" stroke-linecap="round" stroke-linejoin="round"/>
<path d="M 40.600 108.350 L 41.300 108.350 L 41.600 108.700 L 41.600 109.500 L 41.300 109.850 L 40.600 109.850" fill="none" stroke="#e8e4da" stroke-width="0.280" stroke-linecap="round" stroke-linejoin="round"/>
<path d="M 43.300 108.550 L 43.550 108.350 L 44.050 108.350 L 44.300 108.600 L 44.300 108.850 L 44.050 109.100 L 43.700 109.100" fill="none" stroke="#e8e4da" stroke-width="0.280" stroke-linecap="round" stroke-linejoin="round"/>
<path d="M 44.050 109.100 L 44.300 109.350 L 44.300 109.600 L 44.050 109.850 L 43.550 109.850 L 43.300 109.650" fill="none" stroke="#e8e4da" stroke-width="0.280" stroke-linecap="round" stroke-linejoin="round"/>
<circle cx="52.3" cy="115.5" r="4.4" fill="none" stroke="#d9a441" stroke-width="0.5"/>
<path d="M 48.425 109.850 L 48.425 108.350 L 49.425 109.850 L 49.425 108.350" fill="none" stroke="#e8e4da" stroke-width="0.280" stroke-linecap="round" stroke-linejoin="round"/>
<path d="M 50.025 108.350 L 50.525 108.350 L 50.775 108.600 L 50.775 109.600 L 50.525 109.850 L 50.025 109.850 L 49.775 109.600 L 49.775 108.600 L 50.025 108.350" fill="none" stroke="#e8e4da" stroke-width="0.280" stroke-linecap="round" stroke-linejoin="round"/>
<path d="M 51.125 108.350 L 52.125 108.350" fill="none" stroke="#e8e4da" stroke-width="0.280" stroke-linecap="round" stroke-linejoin="round"/>
<path d="M 51.625 108.350 L 51.625 109.850" fill="none" stroke="#e8e4da" stroke-width="0.280" stroke-linecap="round" stroke-linejoin="round"/>
<path d="M 53.475 108.350 L 52.475 108.350 L 52.475 109.850 L 53.475 109.850" fill="none" stroke="#e8e4da" stroke-width="0.280" stroke-linecap="round" stroke-linejoin="round"/>
<path d="M 52.475 109.100 L 53.175 109.100" fill="none" stroke="#e8e4da" stroke-width="0.280" stroke-linecap="round" stroke-linejoin="round"/>
<path d="M 55.425 108.650 L 55.725 108.350 L 55.725 109.850" fill="none" stroke="#e8e4da" stroke-width="0.280" stroke-linecap="round" stroke-linejoin="round"/>
<path d="M 55.425 109.850 L 56.025 109.850" fill="none" stroke="#e8e4da" stroke-width="0.280" stroke-linecap="round" stroke-linejoin="round"/>
<circle cx="63.5" cy="115.5" r="4.4" fill="none" stroke="#d9a441" stroke-width="0.5"/>
<path d="M 59.625 109.850 L 59.625 108.350 L 60.625 109.850 L 60.625 108.350" fill="none" stroke="#e8e4da" stroke-width="0.280" stroke-linecap="round" stroke-linejoin="round"/>
<path d="M 61.225 108.350 L 61.725 108.350 L 61.975 108.600 L 61.975 109.600 L 61.725 109.850 L 61.225 109.850 L 60.975 109.600 L 60.975 108.600 L 61.225 108.350" fill="none" stroke="#e8e4da" stroke-width="0.280" stroke-linecap="round" stroke-linejoin="round"/>
<path d="M 62.325 108.350 L 63.325 108.350" fill="none" stroke="#e8e4da" stroke-width="0.280" stroke-linecap="round" stroke-linejoin="round"/>
<path d="M 62.825 108.350 L 62.825 109.850" fill="none" stroke="#e8e4da" stroke-width="0.280" stroke-linecap="round" stroke-linejoin="round"/>
<path d="M 64.675 108.350 L 63.675 108.350 L 63.675 109.850 L 64.675 109.850" fill="none" stroke="#e8e4da" stroke-width="0.280" stroke-linecap="round" stroke-linejoin="round"/>
<path d="M 63.675 109.100 L 64.375 109.100" fill="none" stroke="#e8e4da" stroke-width="0.280" stroke-linecap="round" stroke-linejoin="round"/>
<path d="M 66.375 108.600 L 66.625 108.350 L 67.125 108.350 L 67.375 108.600 L 67.375 108.850 L 66.375 109.850 L 67.375 109.850" fill="none" stroke="#e8e4da" stroke-width="0.280" stroke-linecap="round" stroke-linejoin="round"/>
<circle cx="74.7" cy="115.5" r="4.4" fill="none" stroke="#d9a441" stroke-width="0.5"/>
<path d="M 70.825 109.850 L 70.825 108.350 L 71.825 109.850 L 71.825 108.350" fill="none" stroke="#e8e4da" stroke-width="0.280" stroke-linecap="round" stroke-linejoin="round"/>
<path d="M 72.425 108.350 L 72.925 108.350 L 73.175 108.600 L 73.175 109.600 L 72.925 109.850 L 72.425 109.850 L 72.175 109.600 L 72.175 108.600 L 72.425 108.350" fill="none" stroke="#e8e4da" stroke-width="0.280" stroke-linecap="round" stroke-linejoin="round"/>
<path d="M 73.525 108.350 L 74.525 108.350" fill="none" stroke="#e8e4da" stroke-width="0.280" stroke-linecap="round" stroke-linejoin="round"/>
<path d="M 74.025 108.350 L 74.025 109.850" fill="none" stroke="#e8e4da" stroke-width="0.280" stroke-linecap="round" stroke-linejoin="round"/>
<path d="M 75.875 108.350 L 74.875 108.350 L 74.875 109.850 L 75.875 109.850" fill="none" stroke="#e8e4da" stroke-width="0.280" stroke-linecap="round" stroke-linejoin="round"/>
<path d="M 74.875 109.100 L 75.575 109.100" fill="none" stroke="#e8e4da" stroke-width="0.280" stroke-linecap="round" stroke-linejoin="round"/>
<path d="M 77.575 108.550 L 77.825 108.350 L 78.325 108.350 L 78.575 108.600 L 78.575 108.850 L 78.325 109.100 L 77.975 109.100" fill="none" stroke="#e8e4da" stroke-width="0.280" stroke-linecap="round" stroke-linejoin="round"/>
<path d="M 78.325 109.100 L 78.575 109.350 L 78.575 109.600 L 78.325 109.850 L 77.825 109.850 L 77.575 109.650" fill="none" stroke="#e8e4da" stroke-width="0.280" stroke-linecap="round" stroke-linejoin="round"/>
<path d="M 5.300 108.575 L 5.050 108.350 L 4.550 108.350 L 4.300 108.575 L 4.300 108.875 L 4.550 109.100 L 5.050 109.100 L 5.300 109.325 L 5.300 109.625 L 5.050 109.850 L 4.550 109.850 L 4.300 109.625" fill="none" stroke="#8b8f99" stroke-width="0.280" stroke-linecap="round" stroke-linejoin="round"/>
<path d="M 5.650 108.350 L 5.650 109.850" fill="none" stroke="#8b8f99" stroke-width="0.280" stroke-linecap="round" stroke-linejoin="round"/>
<path d="M 6.650 108.350 L 6.650 109.850" fill="none" stroke="#8b8f99" stroke-width="0.280" stroke-linecap="round" stroke-linejoin="round"/>
<path d="M 5.650 109.100 L 6.650 109.100" fill="none" stroke="#8b8f99" stroke-width="0.280" stroke-linecap="round" stroke-linejoin="round"/>
<path d="M 7.500 108.350 L 7.500 109.850" fill="none" stroke="#8b8f99" stroke-width="0.280" stroke-linecap="round" stroke-linejoin="round"/>
<path d="M 9.350 108.350 L 8.350 108.350 L 8.350 109.850" fill="none" stroke="#8b8f99" stroke-width="0.280" stroke-linecap="round" stroke-linejoin="round"/>
<path d="M 8.350 109.100 L 9.050 109.100" fill="none" stroke="#8b8f99" stroke-width="0.280" stroke-linecap="round" stroke-linejoin="round"/>
<path d="M 9.700 108.350 L 10.700 108.350" fill="none" stroke="#8b8f99" stroke-width="0.280" stroke-linecap="round" stroke-linejoin="round"/>
<path d="M 10.200 108.350 L 10.200 109.850" fill="none" stroke="#8b8f99" stroke-width="0.280" stroke-linecap="round" stroke-linejoin="round"/>
<circle cx="18.7" cy="15.0" r="4.4" fill="none" stroke="#3c414b" stroke-width="0.5"/>
<circle cx="41.1" cy="15.0" r="4.4" fill="none" stroke="#3c414b" stroke-width="0.5"/>
<circle cx="52.3" cy="15.0" r="4.4" fill="none" stroke="#3c414b" stroke-width="0.5"/>
<circle cx="74.7" cy="15.0" r="4.4" fill="none" stroke="#3c414b" stroke-width="0.5"/>
</svg>
