<svg xmlns="http://www.w3.org/2000/svg" width="121.92mm" height="128.5mm" viewBox="0 0 121.92 128.5">
<rect x="0" y="0" width="121.92" height="128.5" fill="#23262c"/>
<rect x="0.4" y="0.4" width="121.12" height="127.7" fill="none" stroke="#171a1f" stroke-width="0.8"/>
<path d="M 46.330 4.900 L 46.330 9.100" fill="none" stroke="#d9a441" stroke-width="0.850" stroke-linecap="round" stroke-linejoin="round"/>
<path d="M 49.130 4.900 L 49.130 9.100" fill="none" stroke="#d9a441" stroke-width="0.850" stroke-linecap="round" stroke-linejoin="round"/>
<path d="M 46.330 7.000 L 49.130 7.000" fill="none" stroke="#d9a441" stroke-width="0.850" stroke-linecap="round" stroke-linejoin="round"/>
<path d="M 50.110 9.100 L 51.510 4.900 L 52.910 9.100" fill="none" stroke="#d9a441" stroke-width="0.850" stroke-linecap="round" stroke-linejoin="round"/>
<path d="M 50.740 7.630 L 52.280 7.630" fill="none" stroke="#d9a441" stroke-width="0.850" stroke-linecap="round" stroke-linejoin="round"/>
<path d="M 53.890 4.900 L 55.290 7.000 L 56.690 4.900" fill="none" stroke="#d9a441" stroke-width="0.850" stroke-linecap="round" stroke-linejoin="round"/>
<path d="M 55.290 7.000 L 55.290 9.100" fill="none" stroke="#d9a441" stroke-width="0.850" stroke-linecap="round" stroke-linejoin="round"/>
<path d="M 57.670 9.100 L 57.670 4.900 L 59.070 7.140 L 60.470 4.900 L 60.470 9.100" fill="none" stroke="#d9a441" stroke-width="0.850" stroke-linecap="round" stroke-linejoin="round"/>
<path d="M 61.450 9.100 L 62.850 4.900 L 64.250 9.100" fill="none" stroke="#d9a441" stroke-width="0.850" stroke-linecap="round" stroke-linejoin="round"/>
<path d="M 62.080 7.630 L 63.620 7.630" fill="none" stroke="#d9a441" stroke-width="0.850" stroke-linecap="round" stroke-linejoin="round"/>
<path d="M 65.230 4.900 L 65.230 9.100" fill="none" stroke="#d9a441" stroke-width="0.850" stroke-linecap="round" stroke-linejoin="round"/>
<path d="M 68.030 4.900 L 65.230 7.140 L 68.030 9.100" fill="none" stroke="#d9a441" stroke-width="0.850" stroke-linecap="round" stroke-linejoin="round"/>
<path d="M 71.810 4.900 L 69.010 4.900 L 69.010 9.100 L 71.810 9.100" fill="none" stroke="#d9a441" stroke-width="0.850" stroke-linecap="round" stroke-linejoin="round"/>
<path d="M 69.010 7.000 L 70.970 7.000" fill="none" stroke="#d9a441" stroke-width="0.850" stroke-linecap="round" stroke-linejoin="round"/>
<path d="M 72.790 9.100 L 72.790 4.900 L 74.890 4.900 L 75.590 5.530 L 75.590 6.510 L 74.890 7.140 L 72.790 7.140" fill="none" stroke="#d9a441" stroke-width="0.850" stroke-linecap="round" stroke-linejoin="round"/>
<path d="M 74.190 7.140 L 75.590 9.100" fill="none" stroke="#d9a441" stroke-width="0.850" stroke-linecap="round" stroke-linejoin="round"/>
<path d="M 24 5 L 28 7" fill="none" stroke="#d9a441" stroke-width="0.55" opacity="0.6"/>
<path d="M 24 9 L 28 7" fill="none" stroke="#d9a441" stroke-width="0.55" opacity="0.6"/>
<path d="M 30 7 L 34 7" fill="none" stroke="#d9a441" stroke-width="0.55" opacity="0.6"/>
<path d="M 88 7 L 92 5" fill="none" stroke="#d9a441" stroke-width="0.55" opacity="0.6"/>
<path d="M 88 7 L 92 9" fill="none" stroke="#d9a441" stroke-width="0.55" opacity="0.6"/>
<path d="M 84 7 L 88 7" fill="none" stroke="#d9a441" stroke-width="0.55" opacity="0.6"/>
<path d="M 26.465 20.550 L 26.465 18.450 L 27.515 18.450 L 27.865 18.765 L 27.865 19.255 L 27.515 19.570 L 26.465 19.570" fill="none" stroke="#e8e4da" stroke-width="0.336" stroke-linecap="round" stroke-linejoin="round"/>
<path d="M 28.355 20.550 L 29.055 18.450 L 29.755 20.550" fill="none" stroke="#e8e4da" stroke-width="0.336" stroke-linecap="round" stroke-linejoin="round"/>
<path d="M 28.670 19.815 L 29.440 19.815" fill="none" stroke="#e8e4da" stroke-width="0.336" stroke-linecap="round" stroke-linejoin="round"/>
<path d="M 30.245 18.450 L 30.245 20.550" fill="none" stroke="#e8e4da" stroke-width="0.336" stroke-linecap="round" stroke-linejoin="round"/>
<path d="M 30.245 18.450 L 31.225 18.450 L 31.645 18.940 L 31.645 20.060 L 31.225 20.550 L 30.245 20.550" fill="none" stroke="#e8e4da" stroke-width="0.336" stroke-linecap="round" stroke-linejoin="round"/>
<path d="M 33.535 18.765 L 33.185 18.450 L 32.485 18.450 L 32.135 18.765 L 32.135 19.185 L 32.485 19.500 L 33.185 19.500 L 33.535 19.815 L 33.535 20.235 L 33.185 20.550 L 32.485 20.550 L 32.135 20.235" fill="none" stroke="#e8e4da" stroke-width="0.336" stroke-linecap="round" stroke-linejoin="round"/>
<rect x="5.6" y="23.6" width="12.8" height="12.8" rx="1.6" fill="none" stroke="#3c414b" stroke-width="0.5"/>
<rect x="5.6" y="41.6" width="12.8" height="12.8" rx="1.6" fill="none" stroke="#3c414b" stroke-width="0.5"/>
<rect x="5.6" y="59.6" width="12.8" height="12.8" rx="1.6" fill="none" stroke="#3c414b" stroke-width="0.5"/>
<rect x="5.6" y="77.6" width="12.8" height="12.8" rx="1.6" fill="none" stroke="#3c414b" stroke-width="0.5"/>
<rect x="23.6" y="23.6" width="12.8" height="12.8" rx="1.6" fill="none" stroke="#3c414b" stroke-width="0.5"/>
<rect x="23.6" y="41.6" width="12.8" height="12.8" rx="1.6" fill="none" stroke="#3c414b" stroke-width="0.5"/>
<rect x="23.6" y="59.6" width="12.8" height="12.8" rx="1.6" fill="none" stroke="#3c414b" stroke-width="0.5"/>
<rect x="23.6" y="77.6" width="12.8" height="12.8" rx="1.6" fill="none" stroke="#3c414b" stroke-width="0.5"/>
<rect x="41.6" y="23.6" width="12.8" height="12.8" rx="1.6" fill="none" stroke="#3c414b" stroke-width="0.5"/>
<rect x="41.6" y="41.6" width="12.8" height="12.8" rx="1.6" fill="none" stroke="#3c414b" stroke-width="0.5"/>
<rect x="41.6" y="59.6" width="12.8" height="12.8" rx="1.6" fill="none" stroke="#3c414b" stroke-width="0.5"/>
<rect x="41.6" y="77.6" width="12.8" height="12.8" rx="1.6" fill="none" stroke="#3c414b" stroke-width="0.5"/>
<path d="M 66.373 36.350 L 66.373 34.650 L 67.223 34.650 L 67.507 34.905 L 67.507 35.302 L 67.223 35.557 L 66.373 35.557" fill="none" stroke="#e8e4da" stroke-width="0.280" stroke-linecap="round" stroke-linejoin="round"/>
<path d="M 68.470 34.650 L 68.470 36.350" fill="none" stroke="#e8e4da" stroke-width="0.280" stroke-linecap="round" stroke-linejoin="round"/>
<path d="M 69.433 34.650 L 70.567 34.650" fill="none" stroke="#e8e4da" stroke-width="0.280" stroke-linecap="round" stroke-linejoin="round"/>
<path d="M 70.000 34.650 L 70.000 36.350" fill="none" stroke="#e8e4da" stroke-width="0.280" stroke-linecap="round" stroke-linejoin="round"/>
<path d="M 72.097 34.933 L 71.813 34.650 L 71.247 34.650 L 70.963 34.933 L 70.963 36.067 L 71.247 36.350 L 71.813 36.350 L 72.097 36.067" fill="none" stroke="#e8e4da" stroke-width="0.280" stroke-linecap="round" stroke-linejoin="round"/>
<path d="M 72.493 34.650 L 72.493 36.350" fill="none" stroke="#e8e4da" stroke-width="0.280" stroke-linecap="round" stroke-linejoin="round"/>
<path d="M 73.627 34.650 L 73.627 36.350" fill="none" stroke="#e8e4da" stroke-width="0.280" stroke-linecap="round" stroke-linejoin="round"/>
<path d="M 72.493 35.500 L 73.627 35.500" fill="none" stroke="#e8e4da" stroke-width="0.280" stroke-linecap="round" stroke-linejoin="round"/>
<path d="M 80.373 34.650 L 80.373 36.350 L 81.507 36.350" fill="none" stroke="#e8e4da" stroke-width="0.280" stroke-linecap="round" stroke-linejoin="round"/>
<path d="M 83.037 34.650 L 81.903 34.650 L 81.903 36.350 L 83.037 36.350" fill="none" stroke="#e8e4da" stroke-width="0.280" stroke-linecap="round" stroke-linejoin="round"/>
<path d="M 81.903 35.500 L 82.697 35.500" fill="none" stroke="#e8e4da" stroke-width="0.280" stroke-linecap="round" stroke-linejoin="round"/>
<path d="M 83.433 34.650 L 84.000 36.350 L 84.567 34.650" fill="none" stroke="#e8e4da" stroke-width="0.280" stroke-linecap="round" stroke-linejoin="round"/>
<path d="M 86.097 34.650 L 84.963 34.650 L 84.963 36.350 L 86.097 36.350" fill="none" stroke="#e8e4da" stroke-width="0.280" stroke-linecap="round" stroke-linejoin="round"/>
<path d="M 84.963 35.500 L 85.757 35.500" fill="none" stroke="#e8e4da" stroke-width="0.280" stroke-linecap="round" stroke-linejoin="round"/>
<path d="M 86.493 34.650 L 86.493 36.350 L 87.627 36.350" fill="none" stroke="#e8e4da" stroke-width="0.280" stroke-linecap="round" stroke-linejoin="round"/>
<path d="M 95.903 36.350 L 95.903 34.650 L 96.753 34.650 L 97.037 34.905 L 97.037 35.302 L 96.753 35.557 L 95.903 35.557" fill="none" stroke="#e8e4da" stroke-width="0.280" stroke-linecap="round" stroke-linejoin="round"/>
<path d="M 97.433 36.350 L 98.000 34.650 L 98.567 36.350" fill="none" stroke="#e8e4da" stroke-width="0.280" stroke-linecap="round" stroke-linejoin="round"/>
<path d="M 97.688 35.755 L 98.312 35.755" fill="none" stroke="#e8e4da" stroke-width="0.280" stroke-linecap="round" stroke-linejoin="round"/>
<path d="M 98.963 36.350 L 98.963 34.650 L 100.097 36.350 L 100.097 34.650" fill="none" stroke="#e8e4da" stroke-width="0.280" stroke-linecap="round" stroke-linejoin="round"/>
<path d="M 109.903 34.650 L 109.903 36.350 L 111.037 36.350" fill="none" stroke="#e8e4da" stroke-width="0.280" stroke-linecap="round" stroke-linejoin="round"/>
<path d="M 112.567 34.650 L 111.433 34.650 L 111.433 36.350 L 112.567 36.350" fill="none" stroke="#e8e4da" stroke-width="0.280" stroke-linecap="round" stroke-linejoin="round"/>
<path d="M 111.433 35.500 L 112.227 35.500" fill="none" stroke="#e8e4da" stroke-width="0.280" stroke-linecap="round" stroke-linejoin="round"/>
<path d="M 112.963 36.350 L 112.963 34.650 L 114.097 36.350 L 114.097 34.650" fill="none" stroke="#e8e4da" stroke-width="0.280" stroke-linecap="round" stroke-linejoin="round"/>
<path d="M 66.577 52.510 L 66.343 52.300 L 65.877 52.300 L 65.643 52.510 L 65.643 52.790 L 65.877 53.000 L 66.343 53.000 L 66.577 53.210 L 66.577 53.490 L 66.343 53.700 L 65.877 53.700 L 65.643 53.490" fill="none" stroke="#8b8f99" stroke-width="0.280" stroke-linecap="round" stroke-linejoin="round"/>
<path d="M 66.903 52.300 L 67.837 52.300" fill="none" stroke="#8b8f99" stroke-width="0.280" stroke-linecap="round" stroke-linejoin="round"/>
<path d="M 67.370 52.300 L 67.370 53.700" fill="none" stroke="#8b8f99" stroke-width="0.280" stroke-linecap="round" stroke-linejoin="round"/>
<path d="M 68.163 52.300 L 68.163 53.467 L 68.397 53.700 L 68.863 53.700 L 69.097 53.467 L 69.097 52.300" fill="none" stroke="#8b8f99" stroke-width="0.280" stroke-linecap="round" stroke-linejoin="round"/>
<path d="M 69.423 52.300 L 70.357 52.300" fill="none" stroke="#8b8f99" stroke-width="0.280" stroke-linecap="round" stroke-linejoin="round"/>
<path d="M 69.890 52.300 L 69.890 53.700" fill="none" stroke="#8b8f99" stroke-width="0.280" stroke-linecap="round" stroke-linejoin="round"/>
<path d="M 75.043 52.300 L 75.977 52.300" fill="none" stroke="#8b8f99" stroke-width="0.280" stroke-linecap="round" stroke-linejoin="round"/>
<path d="M 75.510 52.300 L 75.510 53.700" fill="none" stroke="#8b8f99" stroke-width="0.280" stroke-linecap="round" stroke-linejoin="round"/>
<path d="M 76.303 53.700 L 76.770 52.300 L 77.237 53.700" fill="none" stroke="#8b8f99" stroke-width="0.280" stroke-linecap="round" stroke-linejoin="round"/>
<path d="M 76.513 53.210 L 77.027 53.210" fill="none" stroke="#8b8f99" stroke-width="0.280" stroke-linecap="round" stroke-linejoin="round"/>
<path d="M 77.563 53.700 L 77.563 52.300 L 78.263 52.300 L 78.497 52.510 L 78.497 52.837 L 78.263 53.047 L 77.563 53.047" fill="none" stroke="#8b8f99" stroke-width="0.280" stroke-linecap="round" stroke-linejoin="round"/>
<path d="M 79.757 52.300 L 78.823 52.300 L 78.823 53.700 L 79.757 53.700" fill="none" stroke="#8b8f99" stroke-width="0.280" stroke-linecap="round" stroke-linejoin="round"/>
<path d="M 78.823 53.000 L 79.477 53.000" fill="none" stroke="#8b8f99" stroke-width="0.280" stroke-linecap="round" stroke-linejoin="round"/>
<path d="M 85.703 52.300 L 85.703 53.700 L 86.637 53.700" fill="none" stroke="#8b8f99" stroke-width="0.280" stroke-linecap="round" stroke-linejoin="round"/>
<path d="M 86.963 53.700 L 86.963 52.300 L 87.663 52.300 L 87.897 52.510 L 87.897 52.837 L 87.663 53.047 L 86.963 53.047" fill="none" stroke="#8b8f99" stroke-width="0.280" stroke-linecap="round" stroke-linejoin="round"/>
<path d="M 95.103 52.300 L 95.103 53.700" fill="none" stroke="#8b8f99" stroke-width="0.280" stroke-linecap="round" stroke-linejoin="round"/>
<path d="M 96.037 52.300 L 96.037 53.700" fill="none" stroke="#8b8f99" stroke-width="0.280" stroke-linecap="round" stroke-linejoin="round"/>
<path d="M 95.103 53.000 L 96.037 53.000" fill="none" stroke="#8b8f99" stroke-width="0.280" stroke-linecap="round" stroke-linejoin="round"/>
<path d="M 96.363 53.700 L 96.363 52.300 L 97.063 52.300 L 97.297 52.510 L 97.297 52.837 L 97.063 53.047 L 96.363 53.047" fill="none" stroke="#8b8f99" stroke-width="0.280" stroke-linecap="round" stroke-linejoin="round"/>
<path d="M 104.177 52.533 L 103.943 52.300 L 103.477 52.300 L 103.243 52.533 L 103.243 53.467 L 103.477 53.700 L 103.943 53.700 L 104.177 53.467" fill="none" stroke="#8b8f99" stroke-width="0.280" stroke-linecap="round" stroke-linejoin="round"/>
<path d="M 104.503 53.700 L 104.503 52.300 L 105.203 52.300 L 105.437 52.510 L 105.437 52.837 L 105.203 53.047 L 104.503 53.047" fill="none" stroke="#8b8f99" stroke-width="0.280" stroke-linecap="round" stroke-linejoin="round"/>
<path d="M 104.970 53.047 L 105.437 53.700" fill="none" stroke="#8b8f99" stroke-width="0.280" stroke-linecap="round" stroke-linejoin="round"/>
<path d="M 106.697 52.510 L 106.463 52.300 L 105.997 52.300 L 105.763 52.510 L 105.763 52.790 L 105.997 53.000 L 106.463 53.000 L 106.697 53.210 L 106.697 53.490 L 106.463 53.700 L 105.997 53.700 L 105.763 53.490" fill="none" stroke="#8b8f99" stroke-width="0.280" stroke-linecap="round" stroke-linejoin="round"/>
<path d="M 107.023 52.300 L 107.023 53.700" fill="none" stroke="#8b8f99" stroke-width="0.280" stroke-linecap="round" stroke-linejoin="round"/>
<path d="M 107.957 52.300 L 107.957 53.700" fill="none" stroke="#8b8f99" stroke-width="0.280" stroke-linecap="round" stroke-linejoin="round"/>
<path d="M 107.023 53.000 L 107.957 53.000" fill="none" stroke="#8b8f99" stroke-width="0.280" stroke-linecap="round" stroke-linejoin="round"/>
<path d="M 113.273 53.700 L 113.273 52.300 L 113.973 52.300 L 114.207 52.510 L 114.207 52.837 L 113.973 53.047 L 113.273 53.047" fill="none" stroke="#8b8f99" stroke-width="0.280" stroke-linecap="round" stroke-linejoin="round"/>
<path d="M 113.740 53.047 L 114.207 53.700" fill="none" stroke="#8b8f99" stroke-width="0.280" stroke-linecap="round" stroke-linejoin="round"/>
<path d="M 115.467 52.300 L 114.533 52.300 L 114.533 53.700 L 115.467 53.700" fill="none" stroke="#8b8f99" stroke-width="0.280" stroke-linecap="round" stroke-linejoin="round"/>
<path d="M 114.533 53.000 L 115.187 53.000" fill="none" stroke="#8b8f99" stroke-width="0.280" stroke-linecap="round" stroke-linejoin="round"/>
<path d="M 115.793 52.300 L 116.260 53.700 L 116.727 52.300" fill="none" stroke="#8b8f99" stroke-width="0.280" stroke-linecap="round" stroke-linejoin="round"/>
<path d="M 67.903 72.850 L 67.903 71.150 L 68.753 71.150 L 69.037 71.377 L 69.037 71.773 L 68.753 72.000 L 67.903 72.000" fill="none" stroke="#e8e4da" stroke-width="0.280" stroke-linecap="round" stroke-linejoin="round"/>
<path d="M 68.753 72.000 L 69.037 72.227 L 69.037 72.623 L 68.753 72.850 L 67.903 72.850" fill="none" stroke="#e8e4da" stroke-width="0.280" stroke-linecap="round" stroke-linejoin="round"/>
<path d="M 69.433 72.850 L 69.433 71.150 L 70.283 71.150 L 70.567 71.405 L 70.567 71.802 L 70.283 72.057 L 69.433 72.057" fill="none" stroke="#e8e4da" stroke-width="0.280" stroke-linecap="round" stroke-linejoin="round"/>
<path d="M 70.963 72.850 L 70.963 71.150 L 71.530 72.057 L 72.097 71.150 L 72.097 72.850" fill="none" stroke="#e8e4da" stroke-width="0.280" stroke-linecap="round" stroke-linejoin="round"/>
<path d="M 81.507 71.405 L 81.223 71.150 L 80.657 71.150 L 80.373 71.405 L 80.373 71.745 L 80.657 72.000 L 81.223 72.000 L 81.507 72.255 L 81.507 72.595 L 81.223 72.850 L 80.657 72.850 L 80.373 72.595" fill="none" stroke="#e8e4da" stroke-width="0.280" stroke-linecap="round" stroke-linejoin="round"/>
<path d="M 81.903 71.150 L 82.158 72.850 L 82.470 71.830 L 82.782 72.850 L 83.037 71.150" fill="none" stroke="#e8e4da" stroke-width="0.280" stroke-linecap="round" stroke-linejoin="round"/>
<path d="M 84.000 71.150 L 84.000 72.850" fill="none" stroke="#e8e4da" stroke-width="0.280" stroke-linecap="round" stroke-linejoin="round"/>
<path d="M 84.963 72.850 L 84.963 71.150 L 86.097 72.850 L 86.097 71.150" fill="none" stroke="#e8e4da" stroke-width="0.280" stroke-linecap="round" stroke-linejoin="round"/>
<path d="M 87.627 71.433 L 87.343 71.150 L 86.777 71.150 L 86.493 71.433 L 86.493 72.567 L 86.777 72.850 L 87.343 72.850 L 87.627 72.567 L 87.627 72.057 L 87.173 72.057" fill="none" stroke="#e8e4da" stroke-width="0.280" stroke-linecap="round" stroke-linejoin="round"/>
<path d="M 95.507 71.405 L 95.223 71.150 L 94.657 71.150 L 94.373 71.405 L 94.373 71.745 L 94.657 72.000 L 95.223 72.000 L 95.507 72.255 L 95.507 72.595 L 95.223 72.850 L 94.657 72.850 L 94.373 72.595" fill="none" stroke="#e8e4da" stroke-width="0.280" stroke-linecap="round" stroke-linejoin="round"/>
<path d="M 95.903 71.150 L 97.037 71.150" fill="none" stroke="#e8e4da" stroke-width="0.280" stroke-linecap="round" stroke-linejoin="round"/>
<path d="M 96.470 71.150 L 96.470 72.850" fill="none" stroke="#e8e4da" stroke-width="0.280" stroke-linecap="round" stroke-linejoin="round"/>
<path d="M 98.567 71.150 L 97.433 71.150 L 97.433 72.850 L 98.567 72.850" fill="none" stroke="#e8e4da" stroke-width="0.280" stroke-linecap="round" stroke-linejoin="round"/>
<path d="M 97.433 72.000 L 98.227 72.000" fill="none" stroke="#e8e4da" stroke-width="0.280" stroke-linecap="round" stroke-linejoin="round"/>
<path d="M 98.963 72.850 L 98.963 71.150 L 99.813 71.150 L 100.097 71.405 L 100.097 71.802 L 99.813 72.057 L 98.963 72.057" fill="none" stroke="#e8e4da" stroke-width="0.280" stroke-linecap="round" stroke-linejoin="round"/>
<path d="M 101.627 71.405 L 101.343 71.150 L 100.777 71.150 L 100.493 71.405 L 100.493 71.745 L 100.777 72.000 L 101.343 72.000 L 101.627 72.255 L 101.627 72.595 L 101.343 72.850 L 100.777 72.850 L 100.493 72.595" fill="none" stroke="#e8e4da" stroke-width="0.280" stroke-linecap="round" stroke-linejoin="round"/>
<path d="M 111.507 91.150 L 110.373 91.150 L 110.373 92.850" fill="none" stroke="#e8e4da" stroke-width="0.280" stroke-linecap="round" stroke-linejoin="round"/>
<path d="M 110.373 92.000 L 111.167 92.000" fill="none" stroke="#e8e4da" stroke-width="0.280" stroke-linecap="round" stroke-linejoin="round"/>
<path d="M 111.903 92.850 L 112.470 91.150 L 113.037 92.850" fill="none" stroke="#e8e4da" stroke-width="0.280" stroke-linecap="round" stroke-linejoin="round"/>
<path d="M 112.158 92.255 L 112.782 92.255" fill="none" stroke="#e8e4da" stroke-width="0.280" stroke-linecap="round" stroke-linejoin="round"/>
<path d="M 113.433 91.150 L 113.433 92.850" fill="none" stroke="#e8e4da" stroke-width="0.280" stroke-linecap="round" stroke-linejoin="round"/>
<path d="M 113.433 91.150 L 114.227 91.150 L 114.567 91.547 L 114.567 92.453 L 114.227 92.850 L 113.433 92.850" fill="none" stroke="#e8e4da" stroke-width="0.280" stroke-linecap="round" stroke-linejoin="round"/>
<path d="M 116.097 91.150 L 114.963 91.150 L 114.963 92.850 L 116.097 92.850" fill="none" stroke="#e8e4da" stroke-width="0.280" stroke-linecap="round" stroke-linejoin="round"/>
<path d="M 114.963 92.000 L 115.757 92.000" fill="none" stroke="#e8e4da" stroke-width="0.280" stroke-linecap="round" stroke-linejoin="round"/>
<path d="M 116.493 92.850 L 116.493 91.150 L 117.343 91.150 L 117.627 91.405 L 117.627 91.802 L 117.343 92.057 L 116.493 92.057" fill="none" stroke="#e8e4da" stroke-width="0.280" stroke-linecap="round" stroke-linejoin="round"/>
<path d="M 117.060 92.057 L 117.627 92.850" fill="none" stroke="#e8e4da" stroke-width="0.280" stroke-linecap="round" stroke-linejoin="round"/>
<path d="M 68.027 91.300 L 68.027 89.700 L 68.827 89.700 L 69.093 89.940 L 69.093 90.313 L 68.827 90.553 L 68.027 90.553" fill="none" stroke="#8b8f99" stroke-width="0.280" stroke-linecap="round" stroke-linejoin="round"/>
<path d="M 68.560 90.553 L 69.093 91.300" fill="none" stroke="#8b8f99" stroke-width="0.280" stroke-linecap="round" stroke-linejoin="round"/>
<path d="M 69.467 89.700 L 69.467 91.033 L 69.733 91.300 L 70.267 91.300 L 70.533 91.033 L 70.533 89.700" fill="none" stroke="#8b8f99" stroke-width="0.280" stroke-linecap="round" stroke-linejoin="round"/>
<path d="M 70.907 91.300 L 70.907 89.700 L 71.973 91.300 L 71.973 89.700" fill="none" stroke="#8b8f99" stroke-width="0.280" stroke-linecap="round" stroke-linejoin="round"/>
<path d="M 82.027 91.300 L 82.027 89.700 L 82.827 89.700 L 83.093 89.940 L 83.093 90.313 L 82.827 90.553 L 82.027 90.553" fill="none" stroke="#8b8f99" stroke-width="0.280" stroke-linecap="round" stroke-linejoin="round"/>
<path d="M 82.560 90.553 L 83.093 91.300" fill="none" stroke="#8b8f99" stroke-width="0.280" stroke-linecap="round" stroke-linejoin="round"/>
<path d="M 84.533 89.700 L 83.467 89.700 L 83.467 91.300 L 84.533 91.300" fill="none" stroke="#8b8f99" stroke-width="0.280" stroke-linecap="round" stroke-linejoin="round"/>
<path d="M 83.467 90.500 L 84.213 90.500" fill="none" stroke="#8b8f99" stroke-width="0.280" stroke-linecap="round" stroke-linejoin="round"/>
<path d="M 85.973 89.967 L 85.707 89.700 L 85.173 89.700 L 84.907 89.967 L 84.907 91.033 L 85.173 91.300 L 85.707 91.300 L 85.973 91.033" fill="none" stroke="#8b8f99" stroke-width="0.280" stroke-linecap="round" stroke-linejoin="round"/>
<path d="M 54.907 94.205 L 54.623 93.950 L 54.057 93.950 L 53.773 94.205 L 53.773 94.545 L 54.057 94.800 L 54.623 94.800 L 54.907 95.055 L 54.907 95.395 L 54.623 95.650 L 54.057 95.650 L 53.773 95.395" fill="none" stroke="#e8e4da" stroke-width="0.280" stroke-linecap="round" stroke-linejoin="round"/>
<path d="M 55.303 93.950 L 56.437 93.950" fill="none" stroke="#e8e4da" stroke-width="0.280" stroke-linecap="round" stroke-linejoin="round"/>
<path d="M 55.870 93.950 L 55.870 95.650" fill="none" stroke="#e8e4da" stroke-width="0.280" stroke-linecap="round" stroke-linejoin="round"/>
<path d="M 57.967 93.950 L 56.833 93.950 L 56.833 95.650 L 57.967 95.650" fill="none" stroke="#e8e4da" stroke-width="0.280" stroke-linecap="round" stroke-linejoin="round"/>
<path d="M 56.833 94.800 L 57.627 94.800" fill="none" stroke="#e8e4da" stroke-width="0.280" stroke-linecap="round" stroke-linejoin="round"/>
<path d="M 58.363 95.650 L 58.363 93.950 L 59.213 93.950 L 59.497 94.205 L 59.497 94.602 L 59.213 94.857 L 58.363 94.857" fill="none" stroke="#e8e4da" stroke-width="0.280" stroke-linecap="round" stroke-linejoin="round"/>
<path d="M 61.027 94.205 L 60.743 93.950 L 60.177 93.950 L 59.893 94.205 L 59.893 94.545 L 60.177 94.800 L 60.743 94.800 L 61.027 95.055 L 61.027 95.395 L 60.743 95.650 L 60.177 95.650 L 59.893 95.395" fill="none" stroke="#e8e4da" stroke-width="0.280" stroke-linecap="round" stroke-linejoin="round"/>
<circle cx="102.0" cy="103.5" r="4.4" fill="none" stroke="#3c414b" stroke-width="0.5"/>
<path d="M 99.800 96.600 L 99.550 96.350 L 99.050 96.350 L 98.800 96.600 L 98.800 97.600 L 99.050 97.850 L 99.550 97.850 L 99.800 97.600" fill="none" stroke="#8b8f99" stroke-width="0.280" stroke-linecap="round" stroke-linejoin="round"/>
<path d="M 100.150 96.350 L 100.150 97.850 L 101.150 97.850" fill="none" stroke="#8b8f99" stroke-width="0.280" stroke-linecap="round" stroke-linejoin="round"/>
<path d="M 101.750 96.350 L 102.250 96.350 L 102.500 96.600 L 102.500 97.600 L 102.250 97.850 L 101.750 97.850 L 101.500 97.600 L 101.500 96.600 L 101.750 96.350" fill="none" stroke="#8b8f99" stroke-width="0.280" stroke-linecap="round" stroke-linejoin="round"/>
<path d="M 103.850 96.600 L 103.600 96.350 L 103.100 96.350 L 102.850 96.600 L 102.850 97.600 L 103.100 97.850 L 103.600 97.850 L 103.850 97.600" fill="none" stroke="#8b8f99" stroke-width="0.280" stroke-linecap="round" stroke-linejoin="round"/>
<path d="M 104.200 96.350 L 104.200 97.850" fill="none" stroke="#8b8f99" stroke-width="0.280" stroke-linecap="round" stroke-linejoin="round"/>
<path d="M 105.200 96.350 L 104.200 97.150 L 105.200 97.850" fill="none" stroke="#8b8f99" stroke-width="0.280" stroke-linecap="round" stroke-linejoin="round"/>
<circle cx="113.5" cy="103.5" r="4.4" fill="none" stroke="#3c414b" stroke-width="0.5"/>
<path d="M 110.300 97.850 L 110.300 96.350 L 111.050 96.350 L 111.300 96.575 L 111.300 96.925 L 111.050 97.150 L 110.300 97.150" fill="none" stroke="#8b8f99" stroke-width="0.280" stroke-linecap="round" stroke-linejoin="round"/>
<path d="M 110.800 97.150 L 111.300 97.850" fill="none" stroke="#8b8f99" stroke-width="0.280" stroke-linecap="round" stroke-linejoin="round"/>
<path d="M 112.650 96.350 L 111.650 96.350 L 111.650 97.850 L 112.650 97.850" fill="none" stroke="#8b8f99" stroke-width="0.280" stroke-linecap="round" stroke-linejoin="round"/>
<path d="M 111.650 97.100 L 112.350 97.100" fill="none" stroke="#8b8f99" stroke-width="0.280" stroke-linecap="round" stroke-linejoin="round"/>
<path d="M 114.000 96.575 L 113.750 96.350 L 113.250 96.350 L 113.000 96.575 L 113.000 96.875 L 113.250 97.100 L 113.750 97.100 L 114.000 97.325 L 114.000 97.625 L 113.750 97.850 L 113.250 97.850 L 113.000 97.625" fill="none" stroke="#8b8f99" stroke-width="0.280" stroke-linecap="round" stroke-linejoin="round"/>
<path d="M 115.350 96.350 L 114.350 96.350 L 114.350 97.850 L 115.350 97.850" fill="none" stroke="#8b8f99" stroke-width="0.280" stroke-linecap="round" stroke-linejoin="round"/>
<path d="M 114.350 97.100 L 115.050 97.100" fill="none" stroke="#8b8f99" stroke-width="0.280" stroke-linecap="round" stroke-linejoin="round"/>
<path d="M 115.700 96.350 L 116.700 96.350" fill="none" stroke="#8b8f99" stroke-width="0.280" stroke-linecap="round" stroke-linejoin="round"/>
<path d="M 116.200 96.350 L 116.200 97.850" fill="none" stroke="#8b8f99" stroke-width="0.280" stroke-linecap="round" stroke-linejoin="round"/>
<circle cx="102.0" cy="117.0" r="4.4" fill="none" stroke="#d9a441" stroke-width="0.5"/>
<path d="M 94.667 116.200 L 94.667 117.800 L 95.733 117.800" fill="none" stroke="#e8e4da" stroke-width="0.280" stroke-linecap="round" stroke-linejoin="round"/>
<circle cx="113.5" cy="117.0" r="4.4" fill="none" stroke="#d9a441" stroke-width="0.5"/>
<path d="M 119.767 117.800 L 119.767 116.200 L 120.567 116.200 L 120.833 116.440 L 120.833 116.813 L 120.567 117.053 L 119.767 117.053" fill="none" stroke="#e8e4da" stroke-width="0.280" stroke-linecap="round" stroke-linejoin="round"/>
<path d="M 120.300 117.053 L 120.833 117.800" fill="none" stroke="#e8e4da" stroke-width="0.280" stroke-linecap="round" stroke-linejoin="round"/>
</svg>
