<svg xmlns="http://www.w3.org/2000/svg" width="50.8mm" height="128.5mm" viewBox="0 0 50.8 128.5">
<rect x="0" y="0" width="50.8" height="128.5" fill="#23262c"/>
<rect x="0.4" y="0.4" width="50.0" height="127.7" fill="none" stroke="#171a1f" stroke-width="0.8"/>
<path d="M 15.067 5.000 L 15.067 9.000 L 17.733 9.000" fill="none" stroke="#d9a441" stroke-width="0.800" stroke-linecap="round" stroke-linejoin="round"/>
<path d="M 18.667 9.000 L 20.000 5.000 L 21.333 9.000" fill="none" stroke="#d9a441" stroke-width="0.800" stroke-linecap="round" stroke-linejoin="round"/>
<path d="M 19.267 7.600 L 20.733 7.600" fill="none" stroke="#d9a441" stroke-width="0.800" stroke-linecap="round" stroke-linejoin="round"/>
<path d="M 22.267 9.000 L 22.267 5.000 L 24.267 5.000 L 24.933 5.600 L 24.933 6.533 L 24.267 7.133 L 22.267 7.133" fill="none" stroke="#d9a441" stroke-width="0.800" stroke-linecap="round" stroke-linejoin="round"/>
<path d="M 23.600 7.133 L 24.933 9.000" fill="none" stroke="#d9a441" stroke-width="0.800" stroke-linecap="round" stroke-linejoin="round"/>
<path d="M 27.200 5.000 L 27.200 9.000" fill="none" stroke="#d9a441" stroke-width="0.800" stroke-linecap="round" stroke-linejoin="round"/>
<path d="M 29.467 9.000 L 30.800 5.000 L 32.133 9.000" fill="none" stroke="#d9a441" stroke-width="0.800" stroke-linecap="round" stroke-linejoin="round"/>
<path d="M 30.067 7.600 L 31.533 7.600" fill="none" stroke="#d9a441" stroke-width="0.800" stroke-linecap="round" stroke-linejoin="round"/>
<path d="M 33.067 5.000 L 35.733 5.000" fill="none" stroke="#d9a441" stroke-width="0.800" stroke-linecap="round" stroke-linejoin="round"/>
<path d="M 34.400 5.000 L 34.400 9.000" fill="none" stroke="#d9a441" stroke-width="0.800" stroke-linecap="round" stroke-linejoin="round"/>
<circle cx="8.5" cy="6.6" r="2.6" fill="none" stroke="#d9a441" stroke-width="0.55" opacity="0.7"/>
<path d="M 10.4 8.4 C 12.5 10.5 9.5 11.5 11.5 13" fill="none" stroke="#d9a441" stroke-width="0.55" opacity="0.7"/>
<path d="M 11.780 24.300 L 11.780 22.500 L 12.680 22.500 L 12.980 22.770 L 12.980 23.190 L 12.680 23.460 L 11.780 23.460" fill="none" stroke="#8b8f99" stroke-width="0.288" stroke-linecap="round" stroke-linejoin="round"/>
<path d="M 12.380 23.460 L 12.980 24.300" fill="none" stroke="#8b8f99" stroke-width="0.288" stroke-linecap="round" stroke-linejoin="round"/>
<path d="M 14.600 22.500 L 13.400 22.500 L 13.400 24.300 L 14.600 24.300" fill="none" stroke="#8b8f99" stroke-width="0.288" stroke-linecap="round" stroke-linejoin="round"/>
<path d="M 13.400 23.400 L 14.240 23.400" fill="none" stroke="#8b8f99" stroke-width="0.288" stroke-linecap="round" stroke-linejoin="round"/>
<path d="M 16.220 22.800 L 15.920 22.500 L 15.320 22.500 L 15.020 22.800 L 15.020 24.000 L 15.320 24.300 L 15.920 24.300 L 16.220 24.000" fill="none" stroke="#8b8f99" stroke-width="0.288" stroke-linecap="round" stroke-linejoin="round"/>
<path d="M 33.770 24.300 L 33.770 22.500 L 34.670 22.500 L 34.970 22.770 L 34.970 23.190 L 34.670 23.460 L 33.770 23.460" fill="none" stroke="#8b8f99" stroke-width="0.288" stroke-linecap="round" stroke-linejoin="round"/>
<path d="M 35.390 22.500 L 35.390 24.300 L 36.590 24.300" fill="none" stroke="#8b8f99" stroke-width="0.288" stroke-linecap="round" stroke-linejoin="round"/>
<path d="M 37.010 24.300 L 37.610 22.500 L 38.210 24.300" fill="none" stroke="#8b8f99" stroke-width="0.288" stroke-linecap="round" stroke-linejoin="round"/>
<path d="M 37.280 23.670 L 37.940 23.670" fill="none" stroke="#8b8f99" stroke-width="0.288" stroke-linecap="round" stroke-linejoin="round"/>
<path d="M 38.630 22.500 L 39.230 23.400 L 39.830 22.500" fill="none" stroke="#8b8f99" stroke-width="0.288" stroke-linecap="round" stroke-linejoin="round"/>
<path d="M 39.230 23.400 L 39.230 24.300" fill="none" stroke="#8b8f99" stroke-width="0.288" stroke-linecap="round" stroke-linejoin="round"/>
<path d="M 22.320 42.065 L 21.970 41.750 L 21.270 41.750 L 20.920 42.065 L 20.920 42.485 L 21.270 42.800 L 21.970 42.800 L 22.320 43.115 L 22.320 43.535 L 21.970 43.850 L 21.270 43.850 L 20.920 43.535" fill="none" stroke="#e8e4da" stroke-width="0.336" stroke-linecap="round" stroke-linejoin="round"/>
<path d="M 22.810 43.850 L 22.810 41.750 L 23.860 41.750 L 24.210 42.065 L 24.210 42.555 L 23.860 42.870 L 22.810 42.870" fill="none" stroke="#e8e4da" stroke-width="0.336" stroke-linecap="round" stroke-linejoin="round"/>
<path d="M 26.100 41.750 L 24.700 41.750 L 24.700 43.850 L 26.100 43.850" fill="none" stroke="#e8e4da" stroke-width="0.336" stroke-linecap="round" stroke-linejoin="round"/>
<path d="M 24.700 42.800 L 25.680 42.800" fill="none" stroke="#e8e4da" stroke-width="0.336" stroke-linecap="round" stroke-linejoin="round"/>
<path d="M 27.990 41.750 L 26.590 41.750 L 26.590 43.850 L 27.990 43.850" fill="none" stroke="#e8e4da" stroke-width="0.336" stroke-linecap="round" stroke-linejoin="round"/>
<path d="M 26.590 42.800 L 27.570 42.800" fill="none" stroke="#e8e4da" stroke-width="0.336" stroke-linecap="round" stroke-linejoin="round"/>
<path d="M 28.480 41.750 L 28.480 43.850" fill="none" stroke="#e8e4da" stroke-width="0.336" stroke-linecap="round" stroke-linejoin="round"/>
<path d="M 28.480 41.750 L 29.460 41.750 L 29.880 42.240 L 29.880 43.360 L 29.460 43.850 L 28.480 43.850" fill="none" stroke="#e8e4da" stroke-width="0.336" stroke-linecap="round" stroke-linejoin="round"/>
<circle cx="10.0" cy="53.5" r="4.4" fill="none" stroke="#3c414b" stroke-width="0.5"/>
<path d="M 8.150 47.850 L 8.150 46.350 L 8.900 46.350 L 9.150 46.575 L 9.150 46.925 L 8.900 47.150 L 8.150 47.150" fill="none" stroke="#8b8f99" stroke-width="0.280" stroke-linecap="round" stroke-linejoin="round"/>
<path d="M 8.650 47.150 L 9.150 47.850" fill="none" stroke="#8b8f99" stroke-width="0.280" stroke-linecap="round" stroke-linejoin="round"/>
<path d="M 10.500 46.350 L 9.500 46.350 L 9.500 47.850 L 10.500 47.850" fill="none" stroke="#8b8f99" stroke-width="0.280" stroke-linecap="round" stroke-linejoin="round"/>
<path d="M 9.500 47.100 L 10.200 47.100" fill="none" stroke="#8b8f99" stroke-width="0.280" stroke-linecap="round" stroke-linejoin="round"/>
<path d="M 11.850 46.600 L 11.600 46.350 L 11.100 46.350 L 10.850 46.600 L 10.850 47.600 L 11.100 47.850 L 11.600 47.850 L 11.850 47.600" fill="none" stroke="#8b8f99" stroke-width="0.280" stroke-linecap="round" stroke-linejoin="round"/>
<circle cx="25.4" cy="53.5" r="4.4" fill="none" stroke="#3c414b" stroke-width="0.5"/>
<path d="M 22.875 47.850 L 22.875 46.350 L 23.625 46.350 L 23.875 46.575 L 23.875 46.925 L 23.625 47.150 L 22.875 47.150" fill="none" stroke="#8b8f99" stroke-width="0.280" stroke-linecap="round" stroke-linejoin="round"/>
<path d="M 24.225 46.350 L 24.225 47.850 L 25.225 47.850" fill="none" stroke="#8b8f99" stroke-width="0.280" stroke-linecap="round" stroke-linejoin="round"/>
<path d="M 25.575 47.850 L 26.075 46.350 L 26.575 47.850" fill="none" stroke="#8b8f99" stroke-width="0.280" stroke-linecap="round" stroke-linejoin="round"/>
<path d="M 25.800 47.325 L 26.350 47.325" fill="none" stroke="#8b8f99" stroke-width="0.280" stroke-linecap="round" stroke-linejoin="round"/>
<path d="M 26.925 46.350 L 27.425 47.100 L 27.925 46.350" fill="none" stroke="#8b8f99" stroke-width="0.280" stroke-linecap="round" stroke-linejoin="round"/>
<path d="M 27.425 47.100 L 27.425 47.850" fill="none" stroke="#8b8f99" stroke-width="0.280" stroke-linecap="round" stroke-linejoin="round"/>
<circle cx="40.8" cy="53.5" r="4.4" fill="none" stroke="#3c414b" stroke-width="0.5"/>
<path d="M 38.600 46.600 L 38.350 46.350 L 37.850 46.350 L 37.600 46.600 L 37.600 47.600 L 37.850 47.850 L 38.350 47.850 L 38.600 47.600" fill="none" stroke="#8b8f99" stroke-width="0.280" stroke-linecap="round" stroke-linejoin="round"/>
<path d="M 38.950 46.350 L 38.950 47.850 L 39.950 47.850" fill="none" stroke="#8b8f99" stroke-width="0.280" stroke-linecap="round" stroke-linejoin="round"/>
<path d="M 40.550 46.350 L 41.050 46.350 L 41.300 46.600 L 41.300 47.600 L 41.050 47.850 L 40.550 47.850 L 40.300 47.600 L 40.300 46.600 L 40.550 46.350" fill="none" stroke="#8b8f99" stroke-width="0.280" stroke-linecap="round" stroke-linejoin="round"/>
<path d="M 42.650 46.600 L 42.400 46.350 L 41.900 46.350 L 41.650 46.600 L 41.650 47.600 L 41.900 47.850 L 42.400 47.850 L 42.650 47.600" fill="none" stroke="#8b8f99" stroke-width="0.280" stroke-linecap="round" stroke-linejoin="round"/>
<path d="M 43.000 46.350 L 43.000 47.850" fill="none" stroke="#8b8f99" stroke-width="0.280" stroke-linecap="round" stroke-linejoin="round"/>
<path d="M 44.000 46.350 L 43.000 47.150 L 44.000 47.850" fill="none" stroke="#8b8f99" stroke-width="0.280" stroke-linecap="round" stroke-linejoin="round"/>
<circle cx="10.0" cy="66.5" r="4.4" fill="none" stroke="#3c414b" stroke-width="0.5"/>
<path d="M 6.800 60.850 L 6.800 59.350 L 7.550 59.350 L 7.800 59.575 L 7.800 59.925 L 7.550 60.150 L 6.800 60.150" fill="none" stroke="#8b8f99" stroke-width="0.280" stroke-linecap="round" stroke-linejoin="round"/>
<path d="M 7.300 60.150 L 7.800 60.850" fill="none" stroke="#8b8f99" stroke-width="0.280" stroke-linecap="round" stroke-linejoin="round"/>
<path d="M 9.150 59.350 L 8.150 59.350 L 8.150 60.850 L 9.150 60.850" fill="none" stroke="#8b8f99" stroke-width="0.280" stroke-linecap="round" stroke-linejoin="round"/>
<path d="M 8.150 60.100 L 8.850 60.100" fill="none" stroke="#8b8f99" stroke-width="0.280" stroke-linecap="round" stroke-linejoin="round"/>
<path d="M 10.500 59.575 L 10.250 59.350 L 9.750 59.350 L 9.500 59.575 L 9.500 59.875 L 9.750 60.100 L 10.250 60.100 L 10.500 60.325 L 10.500 60.625 L 10.250 60.850 L 9.750 60.850 L 9.500 60.625" fill="none" stroke="#8b8f99" stroke-width="0.280" stroke-linecap="round" stroke-linejoin="round"/>
<path d="M 11.850 59.350 L 10.850 59.350 L 10.850 60.850 L 11.850 60.850" fill="none" stroke="#8b8f99" stroke-width="0.280" stroke-linecap="round" stroke-linejoin="round"/>
<path d="M 10.850 60.100 L 11.550 60.100" fill="none" stroke="#8b8f99" stroke-width="0.280" stroke-linecap="round" stroke-linejoin="round"/>
<path d="M 12.200 59.350 L 13.200 59.350" fill="none" stroke="#8b8f99" stroke-width="0.280" stroke-linecap="round" stroke-linejoin="round"/>
<path d="M 12.700 59.350 L 12.700 60.850" fill="none" stroke="#8b8f99" stroke-width="0.280" stroke-linecap="round" stroke-linejoin="round"/>
<path d="M 22.450 59.350 L 22.950 59.350 L 23.200 59.600 L 23.200 60.600 L 22.950 60.850 L 22.450 60.850 L 22.200 60.600 L 22.200 59.600 L 22.450 59.350" fill="none" stroke="#8b8f99" stroke-width="0.280" stroke-linecap="round" stroke-linejoin="round"/>
<path d="M 22.850 60.450 L 23.275 60.975" fill="none" stroke="#8b8f99" stroke-width="0.280" stroke-linecap="round" stroke-linejoin="round"/>
<path d="M 23.550 59.350 L 23.550 60.600 L 23.800 60.850 L 24.300 60.850 L 24.550 60.600 L 24.550 59.350" fill="none" stroke="#8b8f99" stroke-width="0.280" stroke-linecap="round" stroke-linejoin="round"/>
<path d="M 24.900 60.850 L 25.400 59.350 L 25.900 60.850" fill="none" stroke="#8b8f99" stroke-width="0.280" stroke-linecap="round" stroke-linejoin="round"/>
<path d="M 25.125 60.325 L 25.675 60.325" fill="none" stroke="#8b8f99" stroke-width="0.280" stroke-linecap="round" stroke-linejoin="round"/>
<path d="M 26.250 60.850 L 26.250 59.350 L 27.250 60.850 L 27.250 59.350" fill="none" stroke="#8b8f99" stroke-width="0.280" stroke-linecap="round" stroke-linejoin="round"/>
<path d="M 27.600 59.350 L 28.600 59.350" fill="none" stroke="#8b8f99" stroke-width="0.280" stroke-linecap="round" stroke-linejoin="round"/>
<path d="M 28.100 59.350 L 28.100 60.850" fill="none" stroke="#8b8f99" stroke-width="0.280" stroke-linecap="round" stroke-linejoin="round"/>
<circle cx="40.8" cy="66.5" r="4.4" fill="none" stroke="#d9a441" stroke-width="0.5"/>
<path d="M 39.950 59.350 L 38.950 59.350 L 38.950 60.850 L 39.950 60.850" fill="none" stroke="#e8e4da" stroke-width="0.280" stroke-linecap="round" stroke-linejoin="round"/>
<path d="M 38.950 60.100 L 39.650 60.100" fill="none" stroke="#e8e4da" stroke-width="0.280" stroke-linecap="round" stroke-linejoin="round"/>
<path d="M 40.550 59.350 L 41.050 59.350 L 41.300 59.600 L 41.300 60.600 L 41.050 60.850 L 40.550 60.850 L 40.300 60.600 L 40.300 59.600 L 40.550 59.350" fill="none" stroke="#e8e4da" stroke-width="0.280" stroke-linecap="round" stroke-linejoin="round"/>
<path d="M 41.650 59.350 L 41.650 60.850 L 42.650 60.850" fill="none" stroke="#e8e4da" stroke-width="0.280" stroke-linecap="round" stroke-linejoin="round"/>
<path d="M 13.055 73.450 L 13.055 75.550" fill="none" stroke="#e8e4da" stroke-width="0.336" stroke-linecap="round" stroke-linejoin="round"/>
<path d="M 14.245 75.550 L 14.245 73.450 L 15.645 75.550 L 15.645 73.450" fill="none" stroke="#e8e4da" stroke-width="0.336" stroke-linecap="round" stroke-linejoin="round"/>
<path d="M 34.560 73.450 L 35.260 73.450 L 35.610 73.800 L 35.610 75.200 L 35.260 75.550 L 34.560 75.550 L 34.210 75.200 L 34.210 73.800 L 34.560 73.450" fill="none" stroke="#e8e4da" stroke-width="0.336" stroke-linecap="round" stroke-linejoin="round"/>
<path d="M 36.100 73.450 L 36.100 75.200 L 36.450 75.550 L 37.150 75.550 L 37.500 75.200 L 37.500 73.450" fill="none" stroke="#e8e4da" stroke-width="0.336" stroke-linecap="round" stroke-linejoin="round"/>
<path d="M 37.990 73.450 L 39.390 73.450" fill="none" stroke="#e8e4da" stroke-width="0.336" stroke-linecap="round" stroke-linejoin="round"/>
<path d="M 38.690 73.450 L 38.690 75.550" fill="none" stroke="#e8e4da" stroke-width="0.336" stroke-linecap="round" stroke-linejoin="round"/>
<circle cx="14.0" cy="81.5" r="4.4" fill="none" stroke="#3c414b" stroke-width="0.5"/>
<circle cx="36.8" cy="81.5" r="4.4" fill="none" stroke="#d9a441" stroke-width="0.5"/>
<path d="M 22.200 80.750 L 22.700 82.250 L 23.200 80.750" fill="none" stroke="#8b8f99" stroke-width="0.280" stroke-linecap="round" stroke-linejoin="round"/>
<path d="M 23.650 82.350 L 24.450 80.650" fill="none" stroke="#8b8f99" stroke-width="0.280" stroke-linecap="round" stroke-linejoin="round"/>
<path d="M 25.150 80.750 L 25.650 80.750 L 25.900 81.000 L 25.900 82.000 L 25.650 82.250 L 25.150 82.250 L 24.900 82.000 L 24.900 81.000 L 25.150 80.750" fill="none" stroke="#8b8f99" stroke-width="0.280" stroke-linecap="round" stroke-linejoin="round"/>
<path d="M 27.250 81.000 L 27.000 80.750 L 26.500 80.750 L 26.250 81.000 L 26.250 82.000 L 26.500 82.250 L 27.000 82.250 L 27.250 82.000" fill="none" stroke="#8b8f99" stroke-width="0.280" stroke-linecap="round" stroke-linejoin="round"/>
<path d="M 27.600 80.750 L 28.600 80.750" fill="none" stroke="#8b8f99" stroke-width="0.280" stroke-linecap="round" stroke-linejoin="round"/>
<path d="M 28.100 80.750 L 28.100 82.250" fill="none" stroke="#8b8f99" stroke-width="0.280" stroke-linecap="round" stroke-linejoin="round"/>
<circle cx="14.0" cy="94.0" r="4.4" fill="none" stroke="#3c414b" stroke-width="0.5"/>
<circle cx="36.8" cy="94.0" r="4.4" fill="none" stroke="#d9a441" stroke-width="0.5"/>
<path d="M 23.875 93.500 L 23.625 93.250 L 23.125 93.250 L 22.875 93.500 L 22.875 94.500 L 23.125 94.750 L 23.625 94.750 L 23.875 94.500 L 23.875 94.050 L 23.475 94.050" fill="none" stroke="#8b8f99" stroke-width="0.280" stroke-linecap="round" stroke-linejoin="round"/>
<path d="M 24.225 94.750 L 24.725 93.250 L 25.225 94.750" fill="none" stroke="#8b8f99" stroke-width="0.280" stroke-linecap="round" stroke-linejoin="round"/>
<path d="M 24.450 94.225 L 25.000 94.225" fill="none" stroke="#8b8f99" stroke-width="0.280" stroke-linecap="round" stroke-linejoin="round"/>
<path d="M 25.575 93.250 L 26.575 93.250" fill="none" stroke="#8b8f99" stroke-width="0.280" stroke-linecap="round" stroke-linejoin="round"/>
<path d="M 26.075 93.250 L 26.075 94.750" fill="none" stroke="#8b8f99" stroke-width="0.280" stroke-linecap="round" stroke-linejoin="round"/>
<path d="M 27.925 93.250 L 26.925 93.250 L 26.925 94.750 L 27.925 94.750" fill="none" stroke="#8b8f99" stroke-width="0.280" stroke-linecap="round" stroke-linejoin="round"/>
<path d="M 26.925 94.000 L 27.625 94.000" fill="none" stroke="#8b8f99" stroke-width="0.280" stroke-linecap="round" stroke-linejoin="round"/>
<circle cx="14.0" cy="106.5" r="4.4" fill="none" stroke="#3c414b" stroke-width="0.5"/>
<circle cx="36.8" cy="106.5" r="4.4" fill="none" stroke="#d9a441" stroke-width="0.5"/>
<path d="M 23.875 106.000 L 23.625 105.750 L 23.125 105.750 L 22.875 106.000 L 22.875 107.000 L 23.125 107.250 L 23.625 107.250 L 23.875 107.000" fill="none" stroke="#8b8f99" stroke-width="0.280" stroke-linecap="round" stroke-linejoin="round"/>
<path d="M 24.225 105.750 L 24.725 107.250 L 25.225 105.750" fill="none" stroke="#8b8f99" stroke-width="0.280" stroke-linecap="round" stroke-linejoin="round"/>
<path d="M 27.175 106.050 L 27.475 105.750 L 27.475 107.250" fill="none" stroke="#8b8f99" stroke-width="0.280" stroke-linecap="round" stroke-linejoin="round"/>
<path d="M 27.175 107.250 L 27.775 107.250" fill="none" stroke="#8b8f99" stroke-width="0.280" stroke-linecap="round" stroke-linejoin="round"/>
<circle cx="14.0" cy="119.0" r="4.4" fill="none" stroke="#3c414b" stroke-width="0.5"/>
<circle cx="36.8" cy="119.0" r="4.4" fill="none" stroke="#d9a441" stroke-width="0.5"/>
<path d="M 23.875 118.500 L 23.625 118.250 L 23.125 118.250 L 22.875 118.500 L 22.875 119.500 L 23.125 119.750 L 23.625 119.750 L 23.875 119.500" fill="none" stroke="#8b8f99" stroke-width="0.280" stroke-linecap="round" stroke-linejoin="round"/>
<path d="M 24.225 118.250 L 24.725 119.750 L 25.225 118.250" fill="none" stroke="#8b8f99" stroke-width="0.280" stroke-linecap="round" stroke-linejoin="round"/>
<path d="M 26.925 118.500 L 27.175 118.250 L 27.675 118.250 L 27.925 118.500 L 27.925 118.750 L 26.925 119.750 L 27.925 119.750" fill="none" stroke="#8b8f99" stroke-width="0.280" stroke-linecap="round" stroke-linejoin="round"/>
</svg>
