<svg xmlns="http://www.w3.org/2000/svg" width="101.6mm" height="128.5mm" viewBox="0 0 101.6 128.5">
<rect x="0" y="0" width="101.6" height="128.5" fill="#23262c"/>
<rect x="0.4" y="0.4" width="100.8" height="127.7" fill="none" stroke="#171a1f" stroke-width="0.8"/>
<path d="M 40.860 5.030 L 40.160 4.400 L 38.760 4.400 L 38.060 5.030 L 38.060 5.870 L 38.760 6.500 L 40.160 6.500 L 40.860 7.130 L 40.860 7.970 L 40.160 8.600 L 38.760 8.600 L 38.060 7.970" fill="none" stroke="#d9a441" stroke-width="0.850" stroke-linecap="round" stroke-linejoin="round"/>
<path d="M 43.240 4.400 L 43.240 8.600" fill="none" stroke="#d9a441" stroke-width="0.850" stroke-linecap="round" stroke-linejoin="round"/>
<path d="M 45.620 8.600 L 45.620 4.400 L 47.720 4.400 L 48.420 5.030 L 48.420 6.010 L 47.720 6.640 L 45.620 6.640" fill="none" stroke="#d9a441" stroke-width="0.850" stroke-linecap="round" stroke-linejoin="round"/>
<path d="M 47.020 6.640 L 48.420 8.600" fill="none" stroke="#d9a441" stroke-width="0.850" stroke-linecap="round" stroke-linejoin="round"/>
<path d="M 50.100 4.400 L 51.500 4.400 L 52.200 5.100 L 52.200 7.900 L 51.500 8.600 L 50.100 8.600 L 49.400 7.900 L 49.400 5.100 L 50.100 4.400" fill="none" stroke="#d9a441" stroke-width="0.850" stroke-linecap="round" stroke-linejoin="round"/>
<path d="M 55.980 5.100 L 55.280 4.400 L 53.880 4.400 L 53.180 5.100 L 53.180 7.900 L 53.880 8.600 L 55.280 8.600 L 55.980 7.900" fill="none" stroke="#d9a441" stroke-width="0.850" stroke-linecap="round" stroke-linejoin="round"/>
<path d="M 59.760 5.100 L 59.060 4.400 L 57.660 4.400 L 56.960 5.100 L 56.960 7.900 L 57.660 8.600 L 59.060 8.600 L 59.760 7.900" fill="none" stroke="#d9a441" stroke-width="0.850" stroke-linecap="round" stroke-linejoin="round"/>
<path d="M 61.440 4.400 L 62.840 4.400 L 63.540 5.100 L 63.540 7.900 L 62.840 8.600 L 61.440 8.600 L 60.740 7.900 L 60.740 5.100 L 61.440 4.400" fill="none" stroke="#d9a441" stroke-width="0.850" stroke-linecap="round" stroke-linejoin="round"/>
<path d="M 16.67 6.88 L 16.50 6.97 L 16.28 7.04 L 16.01 7.08 L 15.72 7.10 L 15.41 7.09 L 15.10 7.04 L 14.80 6.96 L 14.55 6.84 L 14.35 6.70 L 14.23 6.53 L 14.19 6.35 L 14.24 6.16 L 14.38 5.98 L 14.63 5.81 L 14.96 5.66 L 15.37 5.55 L 15.84 5.47 L 16.34 5.45 L 16.86 5.48 L 17.37 5.57 L 17.84 5.70 L 18.23 5.89 L 18.54 6.11 L 18.74 6.37 L 18.80 6.65" fill="none" stroke="#d9a441" stroke-width="0.5" opacity="0.55"/>
<path d="M 85.67 6.88 L 85.50 6.97 L 85.28 7.04 L 85.01 7.08 L 84.72 7.10 L 84.41 7.09 L 84.10 7.04 L 83.80 6.96 L 83.55 6.84 L 83.35 6.70 L 83.23 6.53 L 83.19 6.35 L 83.24 6.16 L 83.38 5.98 L 83.63 5.81 L 83.96 5.66 L 84.37 5.55 L 84.84 5.47 L 85.34 5.45 L 85.86 5.48 L 86.37 5.57 L 86.84 5.70 L 87.23 5.89 L 87.54 6.11 L 87.74 6.37 L 87.80 6.65" fill="none" stroke="#d9a441" stroke-width="0.5" opacity="0.55"/>
<path d="M 10.355 19.950 L 8.955 19.950 L 8.955 22.050" fill="none" stroke="#e8e4da" stroke-width="0.336" stroke-linecap="round" stroke-linejoin="round"/>
<path d="M 8.955 21.000 L 9.935 21.000" fill="none" stroke="#e8e4da" stroke-width="0.336" stroke-linecap="round" stroke-linejoin="round"/>
<path d="M 10.845 19.950 L 12.245 22.050" fill="none" stroke="#e8e4da" stroke-width="0.336" stroke-linecap="round" stroke-linejoin="round"/>
<path d="M 12.245 19.950 L 10.845 22.050" fill="none" stroke="#e8e4da" stroke-width="0.336" stroke-linecap="round" stroke-linejoin="round"/>
<path d="M 26.193 20.467 L 25.927 20.200 L 25.393 20.200 L 25.127 20.467 L 25.127 21.533 L 25.393 21.800 L 25.927 21.800 L 26.193 21.533 L 26.193 21.053 L 25.767 21.053" fill="none" stroke="#8b8f99" stroke-width="0.280" stroke-linecap="round" stroke-linejoin="round"/>
<path d="M 27.633 20.200 L 26.567 20.200 L 26.567 21.800 L 27.633 21.800" fill="none" stroke="#8b8f99" stroke-width="0.280" stroke-linecap="round" stroke-linejoin="round"/>
<path d="M 26.567 21.000 L 27.313 21.000" fill="none" stroke="#8b8f99" stroke-width="0.280" stroke-linecap="round" stroke-linejoin="round"/>
<path d="M 28.007 21.800 L 28.007 20.200 L 29.073 21.800 L 29.073 20.200" fill="none" stroke="#8b8f99" stroke-width="0.280" stroke-linecap="round" stroke-linejoin="round"/>
<path d="M 30.887 21.800 L 30.887 20.200 L 31.420 21.053 L 31.953 20.200 L 31.953 21.800" fill="none" stroke="#8b8f99" stroke-width="0.280" stroke-linecap="round" stroke-linejoin="round"/>
<path d="M 32.593 20.200 L 33.127 20.200 L 33.393 20.467 L 33.393 21.533 L 33.127 21.800 L 32.593 21.800 L 32.327 21.533 L 32.327 20.467 L 32.593 20.200" fill="none" stroke="#8b8f99" stroke-width="0.280" stroke-linecap="round" stroke-linejoin="round"/>
<path d="M 33.767 20.200 L 33.767 21.800" fill="none" stroke="#8b8f99" stroke-width="0.280" stroke-linecap="round" stroke-linejoin="round"/>
<path d="M 33.767 20.200 L 34.513 20.200 L 34.833 20.573 L 34.833 21.427 L 34.513 21.800 L 33.767 21.800" fill="none" stroke="#8b8f99" stroke-width="0.280" stroke-linecap="round" stroke-linejoin="round"/>
<path d="M 36.273 20.200 L 35.207 20.200 L 35.207 21.800 L 36.273 21.800" fill="none" stroke="#8b8f99" stroke-width="0.280" stroke-linecap="round" stroke-linejoin="round"/>
<path d="M 35.207 21.000 L 35.953 21.000" fill="none" stroke="#8b8f99" stroke-width="0.280" stroke-linecap="round" stroke-linejoin="round"/>
<path d="M 46.293 20.467 L 46.027 20.200 L 45.493 20.200 L 45.227 20.467 L 45.227 21.533 L 45.493 21.800 L 46.027 21.800 L 46.293 21.533" fill="none" stroke="#8b8f99" stroke-width="0.280" stroke-linecap="round" stroke-linejoin="round"/>
<path d="M 46.667 20.200 L 46.667 21.800 L 47.733 21.800" fill="none" stroke="#8b8f99" stroke-width="0.280" stroke-linecap="round" stroke-linejoin="round"/>
<path d="M 48.107 20.200 L 48.107 21.800" fill="none" stroke="#8b8f99" stroke-width="0.280" stroke-linecap="round" stroke-linejoin="round"/>
<path d="M 49.173 20.200 L 48.107 21.053 L 49.173 21.800" fill="none" stroke="#8b8f99" stroke-width="0.280" stroke-linecap="round" stroke-linejoin="round"/>
<path d="M 50.987 21.800 L 50.987 20.200 L 51.520 21.053 L 52.053 20.200 L 52.053 21.800" fill="none" stroke="#8b8f99" stroke-width="0.280" stroke-linecap="round" stroke-linejoin="round"/>
<path d="M 52.693 20.200 L 53.227 20.200 L 53.493 20.467 L 53.493 21.533 L 53.227 21.800 L 52.693 21.800 L 52.427 21.533 L 52.427 20.467 L 52.693 20.200" fill="none" stroke="#8b8f99" stroke-width="0.280" stroke-linecap="round" stroke-linejoin="round"/>
<path d="M 53.867 20.200 L 53.867 21.800" fill="none" stroke="#8b8f99" stroke-width="0.280" stroke-linecap="round" stroke-linejoin="round"/>
<path d="M 53.867 20.200 L 54.613 20.200 L 54.933 20.573 L 54.933 21.427 L 54.613 21.800 L 53.867 21.800" fill="none" stroke="#8b8f99" stroke-width="0.280" stroke-linecap="round" stroke-linejoin="round"/>
<path d="M 56.373 20.200 L 55.307 20.200 L 55.307 21.800 L 56.373 21.800" fill="none" stroke="#8b8f99" stroke-width="0.280" stroke-linecap="round" stroke-linejoin="round"/>
<path d="M 55.307 21.000 L 56.053 21.000" fill="none" stroke="#8b8f99" stroke-width="0.280" stroke-linecap="round" stroke-linejoin="round"/>
<path d="M 68.553 20.440 L 68.287 20.200 L 67.753 20.200 L 67.487 20.440 L 67.487 20.760 L 67.753 21.000 L 68.287 21.000 L 68.553 21.240 L 68.553 21.560 L 68.287 21.800 L 67.753 21.800 L 67.487 21.560" fill="none" stroke="#8b8f99" stroke-width="0.280" stroke-linecap="round" stroke-linejoin="round"/>
<path d="M 69.993 20.467 L 69.727 20.200 L 69.193 20.200 L 68.927 20.467 L 68.927 21.533 L 69.193 21.800 L 69.727 21.800 L 69.993 21.533" fill="none" stroke="#8b8f99" stroke-width="0.280" stroke-linecap="round" stroke-linejoin="round"/>
<path d="M 70.367 21.800 L 70.900 20.200 L 71.433 21.800" fill="none" stroke="#8b8f99" stroke-width="0.280" stroke-linecap="round" stroke-linejoin="round"/>
<path d="M 70.607 21.240 L 71.193 21.240" fill="none" stroke="#8b8f99" stroke-width="0.280" stroke-linecap="round" stroke-linejoin="round"/>
<path d="M 71.807 20.200 L 71.807 21.800 L 72.873 21.800" fill="none" stroke="#8b8f99" stroke-width="0.280" stroke-linecap="round" stroke-linejoin="round"/>
<path d="M 74.313 20.200 L 73.247 20.200 L 73.247 21.800 L 74.313 21.800" fill="none" stroke="#8b8f99" stroke-width="0.280" stroke-linecap="round" stroke-linejoin="round"/>
<path d="M 73.247 21.000 L 73.993 21.000" fill="none" stroke="#8b8f99" stroke-width="0.280" stroke-linecap="round" stroke-linejoin="round"/>
<path d="M 88.865 20.265 L 88.515 19.950 L 87.815 19.950 L 87.465 20.265 L 87.465 20.685 L 87.815 21.000 L 88.515 21.000 L 88.865 21.315 L 88.865 21.735 L 88.515 22.050 L 87.815 22.050 L 87.465 21.735" fill="none" stroke="#e8e4da" stroke-width="0.336" stroke-linecap="round" stroke-linejoin="round"/>
<path d="M 90.055 19.950 L 90.055 22.050" fill="none" stroke="#e8e4da" stroke-width="0.336" stroke-linecap="round" stroke-linejoin="round"/>
<path d="M 91.245 19.950 L 92.645 19.950 L 91.245 22.050 L 92.645 22.050" fill="none" stroke="#e8e4da" stroke-width="0.336" stroke-linecap="round" stroke-linejoin="round"/>
<path d="M 94.535 19.950 L 93.135 19.950 L 93.135 22.050 L 94.535 22.050" fill="none" stroke="#e8e4da" stroke-width="0.336" stroke-linecap="round" stroke-linejoin="round"/>
<path d="M 93.135 21.000 L 94.115 21.000" fill="none" stroke="#e8e4da" stroke-width="0.336" stroke-linecap="round" stroke-linejoin="round"/>
<path d="M 9.580 38.800 L 9.280 38.500 L 8.680 38.500 L 8.380 38.800 L 8.380 40.000 L 8.680 40.300 L 9.280 40.300 L 9.580 40.000 L 9.580 39.460 L 9.100 39.460" fill="none" stroke="#8b8f99" stroke-width="0.288" stroke-linecap="round" stroke-linejoin="round"/>
<path d="M 11.200 38.500 L 10.000 38.500 L 10.000 40.300 L 11.200 40.300" fill="none" stroke="#8b8f99" stroke-width="0.288" stroke-linecap="round" stroke-linejoin="round"/>
<path d="M 10.000 39.400 L 10.840 39.400" fill="none" stroke="#8b8f99" stroke-width="0.288" stroke-linecap="round" stroke-linejoin="round"/>
<path d="M 11.620 40.300 L 11.620 38.500 L 12.820 40.300 L 12.820 38.500" fill="none" stroke="#8b8f99" stroke-width="0.288" stroke-linecap="round" stroke-linejoin="round"/>
<path d="M 25.730 44.465 L 25.380 44.150 L 24.680 44.150 L 24.330 44.465 L 24.330 44.885 L 24.680 45.200 L 25.380 45.200 L 25.730 45.515 L 25.730 45.935 L 25.380 46.250 L 24.680 46.250 L 24.330 45.935" fill="none" stroke="#e8e4da" stroke-width="0.336" stroke-linecap="round" stroke-linejoin="round"/>
<path d="M 27.620 44.500 L 27.270 44.150 L 26.570 44.150 L 26.220 44.500 L 26.220 45.900 L 26.570 46.250 L 27.270 46.250 L 27.620 45.900" fill="none" stroke="#e8e4da" stroke-width="0.336" stroke-linecap="round" stroke-linejoin="round"/>
<path d="M 28.110 46.250 L 28.810 44.150 L 29.510 46.250" fill="none" stroke="#e8e4da" stroke-width="0.336" stroke-linecap="round" stroke-linejoin="round"/>
<path d="M 28.425 45.515 L 29.195 45.515" fill="none" stroke="#e8e4da" stroke-width="0.336" stroke-linecap="round" stroke-linejoin="round"/>
<path d="M 30.000 44.150 L 31.400 44.150" fill="none" stroke="#e8e4da" stroke-width="0.336" stroke-linecap="round" stroke-linejoin="round"/>
<path d="M 30.700 44.150 L 30.700 46.250" fill="none" stroke="#e8e4da" stroke-width="0.336" stroke-linecap="round" stroke-linejoin="round"/>
<path d="M 31.890 44.150 L 33.290 44.150" fill="none" stroke="#e8e4da" stroke-width="0.336" stroke-linecap="round" stroke-linejoin="round"/>
<path d="M 32.590 44.150 L 32.590 46.250" fill="none" stroke="#e8e4da" stroke-width="0.336" stroke-linecap="round" stroke-linejoin="round"/>
<path d="M 35.180 44.150 L 33.780 44.150 L 33.780 46.250 L 35.180 46.250" fill="none" stroke="#e8e4da" stroke-width="0.336" stroke-linecap="round" stroke-linejoin="round"/>
<path d="M 33.780 45.200 L 34.760 45.200" fill="none" stroke="#e8e4da" stroke-width="0.336" stroke-linecap="round" stroke-linejoin="round"/>
<path d="M 35.670 46.250 L 35.670 44.150 L 36.720 44.150 L 37.070 44.465 L 37.070 44.955 L 36.720 45.270 L 35.670 45.270" fill="none" stroke="#e8e4da" stroke-width="0.336" stroke-linecap="round" stroke-linejoin="round"/>
<path d="M 36.370 45.270 L 37.070 46.250" fill="none" stroke="#e8e4da" stroke-width="0.336" stroke-linecap="round" stroke-linejoin="round"/>
<path d="M 65.475 46.250 L 65.475 44.150 L 66.175 45.270 L 66.875 44.150 L 66.875 46.250" fill="none" stroke="#e8e4da" stroke-width="0.336" stroke-linecap="round" stroke-linejoin="round"/>
<path d="M 68.765 44.150 L 67.365 44.150 L 67.365 46.250 L 68.765 46.250" fill="none" stroke="#e8e4da" stroke-width="0.336" stroke-linecap="round" stroke-linejoin="round"/>
<path d="M 67.365 45.200 L 68.345 45.200" fill="none" stroke="#e8e4da" stroke-width="0.336" stroke-linecap="round" stroke-linejoin="round"/>
<path d="M 69.255 44.150 L 69.255 46.250 L 70.655 46.250" fill="none" stroke="#e8e4da" stroke-width="0.336" stroke-linecap="round" stroke-linejoin="round"/>
<path d="M 71.495 44.150 L 72.195 44.150 L 72.545 44.500 L 72.545 45.900 L 72.195 46.250 L 71.495 46.250 L 71.145 45.900 L 71.145 44.500 L 71.495 44.150" fill="none" stroke="#e8e4da" stroke-width="0.336" stroke-linecap="round" stroke-linejoin="round"/>
<path d="M 73.035 44.150 L 73.035 46.250" fill="none" stroke="#e8e4da" stroke-width="0.336" stroke-linecap="round" stroke-linejoin="round"/>
<path d="M 73.035 44.150 L 74.015 44.150 L 74.435 44.640 L 74.435 45.760 L 74.015 46.250 L 73.035 46.250" fill="none" stroke="#e8e4da" stroke-width="0.336" stroke-linecap="round" stroke-linejoin="round"/>
<path d="M 74.925 44.150 L 75.625 45.200 L 76.325 44.150" fill="none" stroke="#e8e4da" stroke-width="0.336" stroke-linecap="round" stroke-linejoin="round"/>
<path d="M 75.625 45.200 L 75.625 46.250" fill="none" stroke="#e8e4da" stroke-width="0.336" stroke-linecap="round" stroke-linejoin="round"/>
<path d="M 88.780 38.500 L 89.980 38.500" fill="none" stroke="#8b8f99" stroke-width="0.288" stroke-linecap="round" stroke-linejoin="round"/>
<path d="M 89.380 38.500 L 89.380 40.300" fill="none" stroke="#8b8f99" stroke-width="0.288" stroke-linecap="round" stroke-linejoin="round"/>
<path d="M 90.400 40.300 L 91.000 38.500 L 91.600 40.300" fill="none" stroke="#8b8f99" stroke-width="0.288" stroke-linecap="round" stroke-linejoin="round"/>
<path d="M 90.670 39.670 L 91.330 39.670" fill="none" stroke="#8b8f99" stroke-width="0.288" stroke-linecap="round" stroke-linejoin="round"/>
<path d="M 92.020 40.300 L 92.020 38.500 L 92.920 38.500 L 93.220 38.770 L 93.220 39.190 L 92.920 39.460 L 92.020 39.460" fill="none" stroke="#8b8f99" stroke-width="0.288" stroke-linecap="round" stroke-linejoin="round"/>
<path d="M 5.175 66.550 L 5.490 68.650 L 5.875 67.390 L 6.260 68.650 L 6.575 66.550" fill="none" stroke="#e8e4da" stroke-width="0.336" stroke-linecap="round" stroke-linejoin="round"/>
<path d="M 7.065 68.650 L 7.765 66.550 L 8.465 68.650" fill="none" stroke="#e8e4da" stroke-width="0.336" stroke-linecap="round" stroke-linejoin="round"/>
<path d="M 7.380 67.915 L 8.150 67.915" fill="none" stroke="#e8e4da" stroke-width="0.336" stroke-linecap="round" stroke-linejoin="round"/>
<path d="M 8.955 68.650 L 8.955 66.550 L 10.355 68.650 L 10.355 66.550" fill="none" stroke="#e8e4da" stroke-width="0.336" stroke-linecap="round" stroke-linejoin="round"/>
<path d="M 10.845 66.550 L 10.845 68.650" fill="none" stroke="#e8e4da" stroke-width="0.336" stroke-linecap="round" stroke-linejoin="round"/>
<path d="M 10.845 66.550 L 11.825 66.550 L 12.245 67.040 L 12.245 68.160 L 11.825 68.650 L 10.845 68.650" fill="none" stroke="#e8e4da" stroke-width="0.336" stroke-linecap="round" stroke-linejoin="round"/>
<path d="M 14.135 66.550 L 12.735 66.550 L 12.735 68.650 L 14.135 68.650" fill="none" stroke="#e8e4da" stroke-width="0.336" stroke-linecap="round" stroke-linejoin="round"/>
<path d="M 12.735 67.600 L 13.715 67.600" fill="none" stroke="#e8e4da" stroke-width="0.336" stroke-linecap="round" stroke-linejoin="round"/>
<path d="M 14.625 68.650 L 14.625 66.550 L 15.675 66.550 L 16.025 66.865 L 16.025 67.355 L 15.675 67.670 L 14.625 67.670" fill="none" stroke="#e8e4da" stroke-width="0.336" stroke-linecap="round" stroke-linejoin="round"/>
<path d="M 15.325 67.670 L 16.025 68.650" fill="none" stroke="#e8e4da" stroke-width="0.336" stroke-linecap="round" stroke-linejoin="round"/>
<path d="M 27.670 61.600 L 27.670 63.400 L 28.870 63.400" fill="none" stroke="#8b8f99" stroke-width="0.288" stroke-linecap="round" stroke-linejoin="round"/>
<path d="M 29.590 61.600 L 30.190 61.600 L 30.490 61.900 L 30.490 63.100 L 30.190 63.400 L 29.590 63.400 L 29.290 63.100 L 29.290 61.900 L 29.590 61.600" fill="none" stroke="#8b8f99" stroke-width="0.288" stroke-linecap="round" stroke-linejoin="round"/>
<path d="M 32.110 61.900 L 31.810 61.600 L 31.210 61.600 L 30.910 61.900 L 30.910 63.100 L 31.210 63.400 L 31.810 63.400 L 32.110 63.100" fill="none" stroke="#8b8f99" stroke-width="0.288" stroke-linecap="round" stroke-linejoin="round"/>
<path d="M 32.530 61.600 L 32.530 63.400" fill="none" stroke="#8b8f99" stroke-width="0.288" stroke-linecap="round" stroke-linejoin="round"/>
<path d="M 33.730 61.600 L 32.530 62.560 L 33.730 63.400" fill="none" stroke="#8b8f99" stroke-width="0.288" stroke-linecap="round" stroke-linejoin="round"/>
<path d="M 47.265 69.650 L 47.265 67.550 L 48.315 67.550 L 48.665 67.865 L 48.665 68.355 L 48.315 68.670 L 47.265 68.670" fill="none" stroke="#e8e4da" stroke-width="0.336" stroke-linecap="round" stroke-linejoin="round"/>
<path d="M 47.965 68.670 L 48.665 69.650" fill="none" stroke="#e8e4da" stroke-width="0.336" stroke-linecap="round" stroke-linejoin="round"/>
<path d="M 49.155 69.650 L 49.855 67.550 L 50.555 69.650" fill="none" stroke="#e8e4da" stroke-width="0.336" stroke-linecap="round" stroke-linejoin="round"/>
<path d="M 49.470 68.915 L 50.240 68.915" fill="none" stroke="#e8e4da" stroke-width="0.336" stroke-linecap="round" stroke-linejoin="round"/>
<path d="M 51.045 67.550 L 52.445 67.550" fill="none" stroke="#e8e4da" stroke-width="0.336" stroke-linecap="round" stroke-linejoin="round"/>
<path d="M 51.745 67.550 L 51.745 69.650" fill="none" stroke="#e8e4da" stroke-width="0.336" stroke-linecap="round" stroke-linejoin="round"/>
<path d="M 54.335 67.550 L 52.935 67.550 L 52.935 69.650 L 54.335 69.650" fill="none" stroke="#e8e4da" stroke-width="0.336" stroke-linecap="round" stroke-linejoin="round"/>
<path d="M 52.935 68.600 L 53.915 68.600" fill="none" stroke="#e8e4da" stroke-width="0.336" stroke-linecap="round" stroke-linejoin="round"/>
<path d="M 67.450 61.600 L 66.250 61.600 L 66.250 63.400" fill="none" stroke="#8b8f99" stroke-width="0.288" stroke-linecap="round" stroke-linejoin="round"/>
<path d="M 66.250 62.500 L 67.090 62.500" fill="none" stroke="#8b8f99" stroke-width="0.288" stroke-linecap="round" stroke-linejoin="round"/>
<path d="M 67.870 63.400 L 67.870 61.600 L 68.770 61.600 L 69.070 61.870 L 69.070 62.290 L 68.770 62.560 L 67.870 62.560" fill="none" stroke="#8b8f99" stroke-width="0.288" stroke-linecap="round" stroke-linejoin="round"/>
<path d="M 68.470 62.560 L 69.070 63.400" fill="none" stroke="#8b8f99" stroke-width="0.288" stroke-linecap="round" stroke-linejoin="round"/>
<path d="M 70.690 61.600 L 69.490 61.600 L 69.490 63.400 L 70.690 63.400" fill="none" stroke="#8b8f99" stroke-width="0.288" stroke-linecap="round" stroke-linejoin="round"/>
<path d="M 69.490 62.500 L 70.330 62.500" fill="none" stroke="#8b8f99" stroke-width="0.288" stroke-linecap="round" stroke-linejoin="round"/>
<path d="M 72.310 61.600 L 71.110 61.600 L 71.110 63.400 L 72.310 63.400" fill="none" stroke="#8b8f99" stroke-width="0.288" stroke-linecap="round" stroke-linejoin="round"/>
<path d="M 71.110 62.500 L 71.950 62.500" fill="none" stroke="#8b8f99" stroke-width="0.288" stroke-linecap="round" stroke-linejoin="round"/>
<path d="M 72.730 61.600 L 73.930 61.600 L 72.730 63.400 L 73.930 63.400" fill="none" stroke="#8b8f99" stroke-width="0.288" stroke-linecap="round" stroke-linejoin="round"/>
<path d="M 75.550 61.600 L 74.350 61.600 L 74.350 63.400 L 75.550 63.400" fill="none" stroke="#8b8f99" stroke-width="0.288" stroke-linecap="round" stroke-linejoin="round"/>
<path d="M 74.350 62.500 L 75.190 62.500" fill="none" stroke="#8b8f99" stroke-width="0.288" stroke-linecap="round" stroke-linejoin="round"/>
<path d="M 88.865 66.865 L 88.515 66.550 L 87.815 66.550 L 87.465 66.865 L 87.465 67.285 L 87.815 67.600 L 88.515 67.600 L 88.865 67.915 L 88.865 68.335 L 88.515 68.650 L 87.815 68.650 L 87.465 68.335" fill="none" stroke="#e8e4da" stroke-width="0.336" stroke-linecap="round" stroke-linejoin="round"/>
<path d="M 89.355 68.650 L 89.355 66.550 L 90.405 66.550 L 90.755 66.865 L 90.755 67.355 L 90.405 67.670 L 89.355 67.670" fill="none" stroke="#e8e4da" stroke-width="0.336" stroke-linecap="round" stroke-linejoin="round"/>
<path d="M 91.945 66.550 L 91.945 68.650" fill="none" stroke="#e8e4da" stroke-width="0.336" stroke-linecap="round" stroke-linejoin="round"/>
<path d="M 93.135 68.650 L 93.135 66.550 L 94.535 68.650 L 94.535 66.550" fill="none" stroke="#e8e4da" stroke-width="0.336" stroke-linecap="round" stroke-linejoin="round"/>
<path d="M 8.010 78.650 L 8.010 76.550 L 8.710 77.670 L 9.410 76.550 L 9.410 78.650" fill="none" stroke="#e8e4da" stroke-width="0.336" stroke-linecap="round" stroke-linejoin="round"/>
<path d="M 10.600 76.550 L 10.600 78.650" fill="none" stroke="#e8e4da" stroke-width="0.336" stroke-linecap="round" stroke-linejoin="round"/>
<path d="M 11.790 76.550 L 13.190 78.650" fill="none" stroke="#e8e4da" stroke-width="0.336" stroke-linecap="round" stroke-linejoin="round"/>
<path d="M 13.190 76.550 L 11.790 78.650" fill="none" stroke="#e8e4da" stroke-width="0.336" stroke-linecap="round" stroke-linejoin="round"/>
<path d="M 28.110 78.650 L 28.110 76.550 L 29.160 76.550 L 29.510 76.865 L 29.510 77.355 L 29.160 77.670 L 28.110 77.670" fill="none" stroke="#e8e4da" stroke-width="0.336" stroke-linecap="round" stroke-linejoin="round"/>
<path d="M 30.350 76.550 L 31.050 76.550 L 31.400 76.900 L 31.400 78.300 L 31.050 78.650 L 30.350 78.650 L 30.000 78.300 L 30.000 76.900 L 30.350 76.550" fill="none" stroke="#e8e4da" stroke-width="0.336" stroke-linecap="round" stroke-linejoin="round"/>
<path d="M 33.290 76.865 L 32.940 76.550 L 32.240 76.550 L 31.890 76.865 L 31.890 77.285 L 32.240 77.600 L 32.940 77.600 L 33.290 77.915 L 33.290 78.335 L 32.940 78.650 L 32.240 78.650 L 31.890 78.335" fill="none" stroke="#e8e4da" stroke-width="0.336" stroke-linecap="round" stroke-linejoin="round"/>
<path d="M 46.320 78.650 L 46.320 76.550 L 47.370 76.550 L 47.720 76.865 L 47.720 77.355 L 47.370 77.670 L 46.320 77.670" fill="none" stroke="#e8e4da" stroke-width="0.336" stroke-linecap="round" stroke-linejoin="round"/>
<path d="M 48.910 76.550 L 48.910 78.650" fill="none" stroke="#e8e4da" stroke-width="0.336" stroke-linecap="round" stroke-linejoin="round"/>
<path d="M 50.100 76.550 L 51.500 76.550" fill="none" stroke="#e8e4da" stroke-width="0.336" stroke-linecap="round" stroke-linejoin="round"/>
<path d="M 50.800 76.550 L 50.800 78.650" fill="none" stroke="#e8e4da" stroke-width="0.336" stroke-linecap="round" stroke-linejoin="round"/>
<path d="M 53.390 76.900 L 53.040 76.550 L 52.340 76.550 L 51.990 76.900 L 51.990 78.300 L 52.340 78.650 L 53.040 78.650 L 53.390 78.300" fill="none" stroke="#e8e4da" stroke-width="0.336" stroke-linecap="round" stroke-linejoin="round"/>
<path d="M 53.880 76.550 L 53.880 78.650" fill="none" stroke="#e8e4da" stroke-width="0.336" stroke-linecap="round" stroke-linejoin="round"/>
<path d="M 55.280 76.550 L 55.280 78.650" fill="none" stroke="#e8e4da" stroke-width="0.336" stroke-linecap="round" stroke-linejoin="round"/>
<path d="M 53.880 77.600 L 55.280 77.600" fill="none" stroke="#e8e4da" stroke-width="0.336" stroke-linecap="round" stroke-linejoin="round"/>
<path d="M 67.820 76.865 L 67.470 76.550 L 66.770 76.550 L 66.420 76.865 L 66.420 77.285 L 66.770 77.600 L 67.470 77.600 L 67.820 77.915 L 67.820 78.335 L 67.470 78.650 L 66.770 78.650 L 66.420 78.335" fill="none" stroke="#e8e4da" stroke-width="0.336" stroke-linecap="round" stroke-linejoin="round"/>
<path d="M 68.310 76.550 L 68.310 78.650" fill="none" stroke="#e8e4da" stroke-width="0.336" stroke-linecap="round" stroke-linejoin="round"/>
<path d="M 69.710 76.550 L 69.710 78.650" fill="none" stroke="#e8e4da" stroke-width="0.336" stroke-linecap="round" stroke-linejoin="round"/>
<path d="M 68.310 77.600 L 69.710 77.600" fill="none" stroke="#e8e4da" stroke-width="0.336" stroke-linecap="round" stroke-linejoin="round"/>
<path d="M 70.200 78.650 L 70.900 76.550 L 71.600 78.650" fill="none" stroke="#e8e4da" stroke-width="0.336" stroke-linecap="round" stroke-linejoin="round"/>
<path d="M 70.515 77.915 L 71.285 77.915" fill="none" stroke="#e8e4da" stroke-width="0.336" stroke-linecap="round" stroke-linejoin="round"/>
<path d="M 72.090 78.650 L 72.090 76.550 L 73.140 76.550 L 73.490 76.865 L 73.490 77.355 L 73.140 77.670 L 72.090 77.670" fill="none" stroke="#e8e4da" stroke-width="0.336" stroke-linecap="round" stroke-linejoin="round"/>
<path d="M 75.380 76.550 L 73.980 76.550 L 73.980 78.650 L 75.380 78.650" fill="none" stroke="#e8e4da" stroke-width="0.336" stroke-linecap="round" stroke-linejoin="round"/>
<path d="M 73.980 77.600 L 74.960 77.600" fill="none" stroke="#e8e4da" stroke-width="0.336" stroke-linecap="round" stroke-linejoin="round"/>
<circle cx="10.6" cy="90.5" r="4.0" fill="none" stroke="#3c414b" stroke-width="0.5"/>
<path d="M 10.437 83.900 L 9.503 83.900 L 9.503 85.300" fill="none" stroke="#8b8f99" stroke-width="0.280" stroke-linecap="round" stroke-linejoin="round"/>
<path d="M 9.503 84.600 L 10.157 84.600" fill="none" stroke="#8b8f99" stroke-width="0.280" stroke-linecap="round" stroke-linejoin="round"/>
<path d="M 10.763 83.900 L 11.697 85.300" fill="none" stroke="#8b8f99" stroke-width="0.280" stroke-linecap="round" stroke-linejoin="round"/>
<path d="M 11.697 83.900 L 10.763 85.300" fill="none" stroke="#8b8f99" stroke-width="0.280" stroke-linecap="round" stroke-linejoin="round"/>
<circle cx="30.7" cy="90.5" r="4.0" fill="none" stroke="#3c414b" stroke-width="0.5"/>
<path d="M 29.277 84.110 L 29.043 83.900 L 28.577 83.900 L 28.343 84.110 L 28.343 84.390 L 28.577 84.600 L 29.043 84.600 L 29.277 84.810 L 29.277 85.090 L 29.043 85.300 L 28.577 85.300 L 28.343 85.090" fill="none" stroke="#8b8f99" stroke-width="0.280" stroke-linecap="round" stroke-linejoin="round"/>
<path d="M 30.537 84.133 L 30.303 83.900 L 29.837 83.900 L 29.603 84.133 L 29.603 85.067 L 29.837 85.300 L 30.303 85.300 L 30.537 85.067" fill="none" stroke="#8b8f99" stroke-width="0.280" stroke-linecap="round" stroke-linejoin="round"/>
<path d="M 30.863 83.900 L 31.797 83.900" fill="none" stroke="#8b8f99" stroke-width="0.280" stroke-linecap="round" stroke-linejoin="round"/>
<path d="M 31.330 83.900 L 31.330 85.300" fill="none" stroke="#8b8f99" stroke-width="0.280" stroke-linecap="round" stroke-linejoin="round"/>
<path d="M 32.123 85.300 L 32.123 83.900 L 32.823 83.900 L 33.057 84.110 L 33.057 84.437 L 32.823 84.647 L 32.123 84.647" fill="none" stroke="#8b8f99" stroke-width="0.280" stroke-linecap="round" stroke-linejoin="round"/>
<path d="M 32.590 84.647 L 33.057 85.300" fill="none" stroke="#8b8f99" stroke-width="0.280" stroke-linecap="round" stroke-linejoin="round"/>
<circle cx="50.8" cy="90.5" r="4.0" fill="none" stroke="#3c414b" stroke-width="0.5"/>
<path d="M 48.443 85.300 L 48.443 83.900 L 48.910 84.647 L 49.377 83.900 L 49.377 85.300" fill="none" stroke="#8b8f99" stroke-width="0.280" stroke-linecap="round" stroke-linejoin="round"/>
<path d="M 49.703 83.900 L 49.703 85.300 L 50.637 85.300" fill="none" stroke="#8b8f99" stroke-width="0.280" stroke-linecap="round" stroke-linejoin="round"/>
<path d="M 50.963 83.900 L 50.963 85.300" fill="none" stroke="#8b8f99" stroke-width="0.280" stroke-linecap="round" stroke-linejoin="round"/>
<path d="M 50.963 83.900 L 51.617 83.900 L 51.897 84.227 L 51.897 84.973 L 51.617 85.300 L 50.963 85.300" fill="none" stroke="#8b8f99" stroke-width="0.280" stroke-linecap="round" stroke-linejoin="round"/>
<path d="M 52.223 83.900 L 52.690 84.600 L 53.157 83.900" fill="none" stroke="#8b8f99" stroke-width="0.280" stroke-linecap="round" stroke-linejoin="round"/>
<path d="M 52.690 84.600 L 52.690 85.300" fill="none" stroke="#8b8f99" stroke-width="0.280" stroke-linecap="round" stroke-linejoin="round"/>
<circle cx="70.9" cy="90.5" r="4.0" fill="none" stroke="#3c414b" stroke-width="0.5"/>
<path d="M 69.477 84.110 L 69.243 83.900 L 68.777 83.900 L 68.543 84.110 L 68.543 84.390 L 68.777 84.600 L 69.243 84.600 L 69.477 84.810 L 69.477 85.090 L 69.243 85.300 L 68.777 85.300 L 68.543 85.090" fill="none" stroke="#8b8f99" stroke-width="0.280" stroke-linecap="round" stroke-linejoin="round"/>
<path d="M 70.270 83.900 L 70.270 85.300" fill="none" stroke="#8b8f99" stroke-width="0.280" stroke-linecap="round" stroke-linejoin="round"/>
<path d="M 71.063 83.900 L 71.997 83.900 L 71.063 85.300 L 71.997 85.300" fill="none" stroke="#8b8f99" stroke-width="0.280" stroke-linecap="round" stroke-linejoin="round"/>
<path d="M 73.257 83.900 L 72.323 83.900 L 72.323 85.300 L 73.257 85.300" fill="none" stroke="#8b8f99" stroke-width="0.280" stroke-linecap="round" stroke-linejoin="round"/>
<path d="M 72.323 84.600 L 72.977 84.600" fill="none" stroke="#8b8f99" stroke-width="0.280" stroke-linecap="round" stroke-linejoin="round"/>
<circle cx="91.0" cy="90.5" r="4.0" fill="none" stroke="#3c414b" stroke-width="0.5"/>
<path d="M 88.643 85.300 L 88.643 83.900 L 89.343 83.900 L 89.577 84.110 L 89.577 84.437 L 89.343 84.647 L 88.643 84.647" fill="none" stroke="#8b8f99" stroke-width="0.280" stroke-linecap="round" stroke-linejoin="round"/>
<path d="M 89.110 84.647 L 89.577 85.300" fill="none" stroke="#8b8f99" stroke-width="0.280" stroke-linecap="round" stroke-linejoin="round"/>
<path d="M 89.903 85.300 L 90.370 83.900 L 90.837 85.300" fill="none" stroke="#8b8f99" stroke-width="0.280" stroke-linecap="round" stroke-linejoin="round"/>
<path d="M 90.113 84.810 L 90.627 84.810" fill="none" stroke="#8b8f99" stroke-width="0.280" stroke-linecap="round" stroke-linejoin="round"/>
<path d="M 91.163 83.900 L 92.097 83.900" fill="none" stroke="#8b8f99" stroke-width="0.280" stroke-linecap="round" stroke-linejoin="round"/>
<path d="M 91.630 83.900 L 91.630 85.300" fill="none" stroke="#8b8f99" stroke-width="0.280" stroke-linecap="round" stroke-linejoin="round"/>
<path d="M 93.357 83.900 L 92.423 83.900 L 92.423 85.300 L 93.357 85.300" fill="none" stroke="#8b8f99" stroke-width="0.280" stroke-linecap="round" stroke-linejoin="round"/>
<path d="M 92.423 84.600 L 93.077 84.600" fill="none" stroke="#8b8f99" stroke-width="0.280" stroke-linecap="round" stroke-linejoin="round"/>
<circle cx="10.6" cy="100.8" r="4.0" fill="none" stroke="#3c414b" stroke-width="0.5"/>
<path d="M 8.243 94.200 L 8.453 95.600 L 8.710 94.760 L 8.967 95.600 L 9.177 94.200" fill="none" stroke="#8b8f99" stroke-width="0.280" stroke-linecap="round" stroke-linejoin="round"/>
<path d="M 9.503 95.600 L 9.503 94.200 L 10.437 95.600 L 10.437 94.200" fill="none" stroke="#8b8f99" stroke-width="0.280" stroke-linecap="round" stroke-linejoin="round"/>
<path d="M 10.763 94.200 L 10.763 95.600" fill="none" stroke="#8b8f99" stroke-width="0.280" stroke-linecap="round" stroke-linejoin="round"/>
<path d="M 10.763 94.200 L 11.417 94.200 L 11.697 94.527 L 11.697 95.273 L 11.417 95.600 L 10.763 95.600" fill="none" stroke="#8b8f99" stroke-width="0.280" stroke-linecap="round" stroke-linejoin="round"/>
<path d="M 12.023 95.600 L 12.023 94.200 L 12.723 94.200 L 12.957 94.410 L 12.957 94.737 L 12.723 94.947 L 12.023 94.947" fill="none" stroke="#8b8f99" stroke-width="0.280" stroke-linecap="round" stroke-linejoin="round"/>
<path d="M 12.490 94.947 L 12.957 95.600" fill="none" stroke="#8b8f99" stroke-width="0.280" stroke-linecap="round" stroke-linejoin="round"/>
<circle cx="30.7" cy="100.8" r="4.0" fill="none" stroke="#3c414b" stroke-width="0.5"/>
<path d="M 28.973 95.600 L 28.973 94.200 L 29.673 94.200 L 29.907 94.410 L 29.907 94.737 L 29.673 94.947 L 28.973 94.947" fill="none" stroke="#8b8f99" stroke-width="0.280" stroke-linecap="round" stroke-linejoin="round"/>
<path d="M 30.467 94.200 L 30.933 94.200 L 31.167 94.433 L 31.167 95.367 L 30.933 95.600 L 30.467 95.600 L 30.233 95.367 L 30.233 94.433 L 30.467 94.200" fill="none" stroke="#8b8f99" stroke-width="0.280" stroke-linecap="round" stroke-linejoin="round"/>
<path d="M 32.427 94.410 L 32.193 94.200 L 31.727 94.200 L 31.493 94.410 L 31.493 94.690 L 31.727 94.900 L 32.193 94.900 L 32.427 95.110 L 32.427 95.390 L 32.193 95.600 L 31.727 95.600 L 31.493 95.390" fill="none" stroke="#8b8f99" stroke-width="0.280" stroke-linecap="round" stroke-linejoin="round"/>
<circle cx="50.8" cy="100.8" r="4.0" fill="none" stroke="#3c414b" stroke-width="0.5"/>
<path d="M 47.813 95.600 L 47.813 94.200 L 48.513 94.200 L 48.747 94.410 L 48.747 94.737 L 48.513 94.947 L 47.813 94.947" fill="none" stroke="#8b8f99" stroke-width="0.280" stroke-linecap="round" stroke-linejoin="round"/>
<path d="M 49.540 94.200 L 49.540 95.600" fill="none" stroke="#8b8f99" stroke-width="0.280" stroke-linecap="round" stroke-linejoin="round"/>
<path d="M 50.333 94.200 L 51.267 94.200" fill="none" stroke="#8b8f99" stroke-width="0.280" stroke-linecap="round" stroke-linejoin="round"/>
<path d="M 50.800 94.200 L 50.800 95.600" fill="none" stroke="#8b8f99" stroke-width="0.280" stroke-linecap="round" stroke-linejoin="round"/>
<path d="M 52.527 94.433 L 52.293 94.200 L 51.827 94.200 L 51.593 94.433 L 51.593 95.367 L 51.827 95.600 L 52.293 95.600 L 52.527 95.367" fill="none" stroke="#8b8f99" stroke-width="0.280" stroke-linecap="round" stroke-linejoin="round"/>
<path d="M 52.853 94.200 L 52.853 95.600" fill="none" stroke="#8b8f99" stroke-width="0.280" stroke-linecap="round" stroke-linejoin="round"/>
<path d="M 53.787 94.200 L 53.787 95.600" fill="none" stroke="#8b8f99" stroke-width="0.280" stroke-linecap="round" stroke-linejoin="round"/>
<path d="M 52.853 94.900 L 53.787 94.900" fill="none" stroke="#8b8f99" stroke-width="0.280" stroke-linecap="round" stroke-linejoin="round"/>
<circle cx="70.9" cy="100.8" r="4.0" fill="none" stroke="#3c414b" stroke-width="0.5"/>
<path d="M 68.847 94.410 L 68.613 94.200 L 68.147 94.200 L 67.913 94.410 L 67.913 94.690 L 68.147 94.900 L 68.613 94.900 L 68.847 95.110 L 68.847 95.390 L 68.613 95.600 L 68.147 95.600 L 67.913 95.390" fill="none" stroke="#8b8f99" stroke-width="0.280" stroke-linecap="round" stroke-linejoin="round"/>
<path d="M 69.173 94.200 L 69.173 95.600" fill="none" stroke="#8b8f99" stroke-width="0.280" stroke-linecap="round" stroke-linejoin="round"/>
<path d="M 70.107 94.200 L 70.107 95.600" fill="none" stroke="#8b8f99" stroke-width="0.280" stroke-linecap="round" stroke-linejoin="round"/>
<path d="M 69.173 94.900 L 70.107 94.900" fill="none" stroke="#8b8f99" stroke-width="0.280" stroke-linecap="round" stroke-linejoin="round"/>
<path d="M 70.433 95.600 L 70.900 94.200 L 71.367 95.600" fill="none" stroke="#8b8f99" stroke-width="0.280" stroke-linecap="round" stroke-linejoin="round"/>
<path d="M 70.643 95.110 L 71.157 95.110" fill="none" stroke="#8b8f99" stroke-width="0.280" stroke-linecap="round" stroke-linejoin="round"/>
<path d="M 71.693 95.600 L 71.693 94.200 L 72.393 94.200 L 72.627 94.410 L 72.627 94.737 L 72.393 94.947 L 71.693 94.947" fill="none" stroke="#8b8f99" stroke-width="0.280" stroke-linecap="round" stroke-linejoin="round"/>
<path d="M 73.887 94.200 L 72.953 94.200 L 72.953 95.600 L 73.887 95.600" fill="none" stroke="#8b8f99" stroke-width="0.280" stroke-linecap="round" stroke-linejoin="round"/>
<path d="M 72.953 94.900 L 73.607 94.900" fill="none" stroke="#8b8f99" stroke-width="0.280" stroke-linecap="round" stroke-linejoin="round"/>
<circle cx="91.0" cy="100.8" r="4.0" fill="none" stroke="#3c414b" stroke-width="0.5"/>
<path d="M 89.577 94.410 L 89.343 94.200 L 88.877 94.200 L 88.643 94.410 L 88.643 94.690 L 88.877 94.900 L 89.343 94.900 L 89.577 95.110 L 89.577 95.390 L 89.343 95.600 L 88.877 95.600 L 88.643 95.390" fill="none" stroke="#8b8f99" stroke-width="0.280" stroke-linecap="round" stroke-linejoin="round"/>
<path d="M 89.903 95.600 L 89.903 94.200 L 90.603 94.200 L 90.837 94.410 L 90.837 94.737 L 90.603 94.947 L 89.903 94.947" fill="none" stroke="#8b8f99" stroke-width="0.280" stroke-linecap="round" stroke-linejoin="round"/>
<path d="M 91.630 94.200 L 91.630 95.600" fill="none" stroke="#8b8f99" stroke-width="0.280" stroke-linecap="round" stroke-linejoin="round"/>
<path d="M 92.423 95.600 L 92.423 94.200 L 93.357 95.600 L 93.357 94.200" fill="none" stroke="#8b8f99" stroke-width="0.280" stroke-linecap="round" stroke-linejoin="round"/>
<circle cx="10.6" cy="111.1" r="4.0" fill="none" stroke="#3c414b" stroke-width="0.5"/>
<path d="M 8.873 105.900 L 8.873 104.500 L 9.340 105.247 L 9.807 104.500 L 9.807 105.900" fill="none" stroke="#8b8f99" stroke-width="0.280" stroke-linecap="round" stroke-linejoin="round"/>
<path d="M 10.600 104.500 L 10.600 105.900" fill="none" stroke="#8b8f99" stroke-width="0.280" stroke-linecap="round" stroke-linejoin="round"/>
<path d="M 11.393 104.500 L 12.327 105.900" fill="none" stroke="#8b8f99" stroke-width="0.280" stroke-linecap="round" stroke-linejoin="round"/>
<path d="M 12.327 104.500 L 11.393 105.900" fill="none" stroke="#8b8f99" stroke-width="0.280" stroke-linecap="round" stroke-linejoin="round"/>
<circle cx="30.7" cy="111.1" r="4.0" fill="none" stroke="#3c414b" stroke-width="0.5"/>
<path d="M 29.907 104.733 L 29.673 104.500 L 29.207 104.500 L 28.973 104.733 L 28.973 105.667 L 29.207 105.900 L 29.673 105.900 L 29.907 105.667 L 29.907 105.247 L 29.533 105.247" fill="none" stroke="#8b8f99" stroke-width="0.280" stroke-linecap="round" stroke-linejoin="round"/>
<path d="M 31.167 104.500 L 30.233 104.500 L 30.233 105.900 L 31.167 105.900" fill="none" stroke="#8b8f99" stroke-width="0.280" stroke-linecap="round" stroke-linejoin="round"/>
<path d="M 30.233 105.200 L 30.887 105.200" fill="none" stroke="#8b8f99" stroke-width="0.280" stroke-linecap="round" stroke-linejoin="round"/>
<path d="M 31.493 105.900 L 31.493 104.500 L 32.427 105.900 L 32.427 104.500" fill="none" stroke="#8b8f99" stroke-width="0.280" stroke-linecap="round" stroke-linejoin="round"/>
<circle cx="50.8" cy="111.1" r="4.0" fill="none" stroke="#3c414b" stroke-width="0.5"/>
<path d="M 48.747 104.733 L 48.513 104.500 L 48.047 104.500 L 47.813 104.733 L 47.813 105.667 L 48.047 105.900 L 48.513 105.900 L 48.747 105.667" fill="none" stroke="#8b8f99" stroke-width="0.280" stroke-linecap="round" stroke-linejoin="round"/>
<path d="M 49.073 104.500 L 49.073 105.900 L 50.007 105.900" fill="none" stroke="#8b8f99" stroke-width="0.280" stroke-linecap="round" stroke-linejoin="round"/>
<path d="M 50.567 104.500 L 51.033 104.500 L 51.267 104.733 L 51.267 105.667 L 51.033 105.900 L 50.567 105.900 L 50.333 105.667 L 50.333 104.733 L 50.567 104.500" fill="none" stroke="#8b8f99" stroke-width="0.280" stroke-linecap="round" stroke-linejoin="round"/>
<path d="M 52.527 104.733 L 52.293 104.500 L 51.827 104.500 L 51.593 104.733 L 51.593 105.667 L 51.827 105.900 L 52.293 105.900 L 52.527 105.667" fill="none" stroke="#8b8f99" stroke-width="0.280" stroke-linecap="round" stroke-linejoin="round"/>
<path d="M 52.853 104.500 L 52.853 105.900" fill="none" stroke="#8b8f99" stroke-width="0.280" stroke-linecap="round" stroke-linejoin="round"/>
<path d="M 53.787 104.500 L 52.853 105.247 L 53.787 105.900" fill="none" stroke="#8b8f99" stroke-width="0.280" stroke-linecap="round" stroke-linejoin="round"/>
<circle cx="70.9" cy="111.1" r="4.0" fill="none" stroke="#3c414b" stroke-width="0.5"/>
<path d="M 68.543 104.500 L 68.543 105.900 L 69.477 105.900" fill="none" stroke="#8b8f99" stroke-width="0.280" stroke-linecap="round" stroke-linejoin="round"/>
<path d="M 70.037 104.500 L 70.503 104.500 L 70.737 104.733 L 70.737 105.667 L 70.503 105.900 L 70.037 105.900 L 69.803 105.667 L 69.803 104.733 L 70.037 104.500" fill="none" stroke="#8b8f99" stroke-width="0.280" stroke-linecap="round" stroke-linejoin="round"/>
<path d="M 71.997 104.733 L 71.763 104.500 L 71.297 104.500 L 71.063 104.733 L 71.063 105.667 L 71.297 105.900 L 71.763 105.900 L 71.997 105.667" fill="none" stroke="#8b8f99" stroke-width="0.280" stroke-linecap="round" stroke-linejoin="round"/>
<path d="M 72.323 104.500 L 72.323 105.900" fill="none" stroke="#8b8f99" stroke-width="0.280" stroke-linecap="round" stroke-linejoin="round"/>
<path d="M 73.257 104.500 L 72.323 105.247 L 73.257 105.900" fill="none" stroke="#8b8f99" stroke-width="0.280" stroke-linecap="round" stroke-linejoin="round"/>
<circle cx="91.0" cy="111.1" r="4.0" fill="none" stroke="#3c414b" stroke-width="0.5"/>
<path d="M 90.207 104.500 L 89.273 104.500 L 89.273 105.900" fill="none" stroke="#8b8f99" stroke-width="0.280" stroke-linecap="round" stroke-linejoin="round"/>
<path d="M 89.273 105.200 L 89.927 105.200" fill="none" stroke="#8b8f99" stroke-width="0.280" stroke-linecap="round" stroke-linejoin="round"/>
<path d="M 90.533 105.900 L 90.533 104.500 L 91.233 104.500 L 91.467 104.710 L 91.467 105.037 L 91.233 105.247 L 90.533 105.247" fill="none" stroke="#8b8f99" stroke-width="0.280" stroke-linecap="round" stroke-linejoin="round"/>
<path d="M 91.000 105.247 L 91.467 105.900" fill="none" stroke="#8b8f99" stroke-width="0.280" stroke-linecap="round" stroke-linejoin="round"/>
<path d="M 91.793 104.500 L 92.727 104.500 L 91.793 105.900 L 92.727 105.900" fill="none" stroke="#8b8f99" stroke-width="0.280" stroke-linecap="round" stroke-linejoin="round"/>
<circle cx="10.6" cy="121.4" r="4.0" fill="none" stroke="#3c414b" stroke-width="0.5"/>
<path d="M 8.710 114.800 L 8.710 116.200" fill="none" stroke="#8b8f99" stroke-width="0.280" stroke-linecap="round" stroke-linejoin="round"/>
<path d="M 9.503 116.200 L 9.503 114.800 L 10.437 116.200 L 10.437 114.800" fill="none" stroke="#8b8f99" stroke-width="0.280" stroke-linecap="round" stroke-linejoin="round"/>
<path d="M 12.023 114.800 L 12.023 116.200 L 12.957 116.200" fill="none" stroke="#8b8f99" stroke-width="0.280" stroke-linecap="round" stroke-linejoin="round"/>
<circle cx="30.7" cy="121.4" r="4.0" fill="none" stroke="#3c414b" stroke-width="0.5"/>
<path d="M 28.810 114.800 L 28.810 116.200" fill="none" stroke="#8b8f99" stroke-width="0.280" stroke-linecap="round" stroke-linejoin="round"/>
<path d="M 29.603 116.200 L 29.603 114.800 L 30.537 116.200 L 30.537 114.800" fill="none" stroke="#8b8f99" stroke-width="0.280" stroke-linecap="round" stroke-linejoin="round"/>
<path d="M 32.123 116.200 L 32.123 114.800 L 32.823 114.800 L 33.057 115.010 L 33.057 115.337 L 32.823 115.547 L 32.123 115.547" fill="none" stroke="#8b8f99" stroke-width="0.280" stroke-linecap="round" stroke-linejoin="round"/>
<path d="M 32.590 115.547 L 33.057 116.200" fill="none" stroke="#8b8f99" stroke-width="0.280" stroke-linecap="round" stroke-linejoin="round"/>
<circle cx="50.8" cy="121.4" r="4.0" fill="none" stroke="#d9a441" stroke-width="0.5"/>
<path d="M 50.637 115.033 L 50.403 114.800 L 49.937 114.800 L 49.703 115.033 L 49.703 115.967 L 49.937 116.200 L 50.403 116.200 L 50.637 115.967" fill="none" stroke="#e8e4da" stroke-width="0.280" stroke-linecap="round" stroke-linejoin="round"/>
<path d="M 50.963 114.800 L 51.430 116.200 L 51.897 114.800" fill="none" stroke="#e8e4da" stroke-width="0.280" stroke-linecap="round" stroke-linejoin="round"/>
<circle cx="70.9" cy="121.4" r="4.0" fill="none" stroke="#d9a441" stroke-width="0.5"/>
<path d="M 68.147 114.800 L 68.613 114.800 L 68.847 115.033 L 68.847 115.967 L 68.613 116.200 L 68.147 116.200 L 67.913 115.967 L 67.913 115.033 L 68.147 114.800" fill="none" stroke="#e8e4da" stroke-width="0.280" stroke-linecap="round" stroke-linejoin="round"/>
<path d="M 69.173 114.800 L 69.173 115.967 L 69.407 116.200 L 69.873 116.200 L 70.107 115.967 L 70.107 114.800" fill="none" stroke="#e8e4da" stroke-width="0.280" stroke-linecap="round" stroke-linejoin="round"/>
<path d="M 70.433 114.800 L 71.367 114.800" fill="none" stroke="#e8e4da" stroke-width="0.280" stroke-linecap="round" stroke-linejoin="round"/>
<path d="M 70.900 114.800 L 70.900 116.200" fill="none" stroke="#e8e4da" stroke-width="0.280" stroke-linecap="round" stroke-linejoin="round"/>
<path d="M 72.953 114.800 L 72.953 116.200 L 73.887 116.200" fill="none" stroke="#e8e4da" stroke-width="0.280" stroke-linecap="round" stroke-linejoin="round"/>
<circle cx="91.0" cy="121.4" r="4.0" fill="none" stroke="#d9a441" stroke-width="0.5"/>
<path d="M 88.247 114.800 L 88.713 114.800 L 88.947 115.033 L 88.947 115.967 L 88.713 116.200 L 88.247 116.200 L 88.013 115.967 L 88.013 115.033 L 88.247 114.800" fill="none" stroke="#e8e4da" stroke-width="0.280" stroke-linecap="round" stroke-linejoin="round"/>
<path d="M 89.273 114.800 L 89.273 115.967 L 89.507 116.200 L 89.973 116.200 L 90.207 115.967 L 90.207 114.800" fill="none" stroke="#e8e4da" stroke-width="0.280" stroke-linecap="round" stroke-linejoin="round"/>
<path d="M 90.533 114.800 L 91.467 114.800" fill="none" stroke="#e8e4da" stroke-width="0.280" stroke-linecap="round" stroke-linejoin="round"/>
<path d="M 91.000 114.800 L 91.000 116.200" fill="none" stroke="#e8e4da" stroke-width="0.280" stroke-linecap="round" stroke-linejoin="round"/>
<path d="M 93.053 116.200 L 93.053 114.800 L 93.753 114.800 L 93.987 115.010 L 93.987 115.337 L 93.753 115.547 L 93.053 115.547" fill="none" stroke="#e8e4da" stroke-width="0.280" stroke-linecap="round" stroke-linejoin="round"/>
<path d="M 93.520 115.547 L 93.987 116.200" fill="none" stroke="#e8e4da" stroke-width="0.280" stroke-linecap="round" stroke-linejoin="round"/>
</svg>
