<svg xmlns="http://www.w3.org/2000/svg" width="40.64mm" height="128.5mm" viewBox="0 0 40.64 128.5">
<rect x="0" y="0" width="40.64" height="128.5" fill="#23262c"/>
<rect x="0.4" y="0.4" width="39.84" height="127.7" fill="none" stroke="#171a1f" stroke-width="0.8"/>
<path d="M 10.743 7.810 L 10.177 7.300 L 9.043 7.300 L 8.477 7.810 L 8.477 8.490 L 9.043 9.000 L 10.177 9.000 L 10.743 9.510 L 10.743 10.190 L 10.177 10.700 L 9.043 10.700 L 8.477 10.190" fill="none" stroke="#d9a441" stroke-width="0.700" stroke-linecap="round" stroke-linejoin="round"/>
<path d="M 11.537 7.300 L 13.803 7.300" fill="none" stroke="#d9a441" stroke-width="0.700" stroke-linecap="round" stroke-linejoin="round"/>
<path d="M 12.670 7.300 L 12.670 10.700" fill="none" stroke="#d9a441" stroke-width="0.700" stroke-linecap="round" stroke-linejoin="round"/>
<path d="M 15.730 7.300 L 15.730 10.700" fill="none" stroke="#d9a441" stroke-width="0.700" stroke-linecap="round" stroke-linejoin="round"/>
<path d="M 17.657 7.300 L 17.657 10.700 L 19.923 10.700" fill="none" stroke="#d9a441" stroke-width="0.700" stroke-linecap="round" stroke-linejoin="round"/>
<path d="M 22.983 7.300 L 20.717 7.300 L 20.717 10.700 L 22.983 10.700" fill="none" stroke="#d9a441" stroke-width="0.700" stroke-linecap="round" stroke-linejoin="round"/>
<path d="M 20.717 9.000 L 22.303 9.000" fill="none" stroke="#d9a441" stroke-width="0.700" stroke-linecap="round" stroke-linejoin="round"/>
<path d="M 23.777 7.300 L 26.043 7.300" fill="none" stroke="#d9a441" stroke-width="0.700" stroke-linecap="round" stroke-linejoin="round"/>
<path d="M 24.910 7.300 L 24.910 10.700" fill="none" stroke="#d9a441" stroke-width="0.700" stroke-linecap="round" stroke-linejoin="round"/>
<path d="M 26.837 7.300 L 29.103 7.300" fill="none" stroke="#d9a441" stroke-width="0.700" stroke-linecap="round" stroke-linejoin="round"/>
<path d="M 27.970 7.300 L 27.970 10.700" fill="none" stroke="#d9a441" stroke-width="0.700" stroke-linecap="round" stroke-linejoin="round"/>
<path d="M 30.463 7.300 L 31.597 7.300 L 32.163 7.867 L 32.163 10.133 L 31.597 10.700 L 30.463 10.700 L 29.897 10.133 L 29.897 7.867 L 30.463 7.300" fill="none" stroke="#d9a441" stroke-width="0.700" stroke-linecap="round" stroke-linejoin="round"/>
<path d="M 14.32 12.6 L 24.82 12.6 L 26.82 13.3 L 24.82 14.0 L 14.32 14.0 Z" fill="#d9a441" opacity="0.5"/>
<path d="M 15.620000000000001 11.2 L 16.82 15.4" stroke="#d9a441" stroke-width="0.9" opacity="0.5"/>
<path d="M 17.483 29.450 L 17.483 31.750 L 19.017 31.750" fill="none" stroke="#e8e4da" stroke-width="0.368" stroke-linecap="round" stroke-linejoin="round"/>
<path d="M 19.553 31.750 L 19.553 29.450 L 20.703 29.450 L 21.087 29.795 L 21.087 30.332 L 20.703 30.677 L 19.553 30.677" fill="none" stroke="#e8e4da" stroke-width="0.368" stroke-linecap="round" stroke-linejoin="round"/>
<path d="M 23.157 29.450 L 21.623 29.450 L 21.623 31.750" fill="none" stroke="#e8e4da" stroke-width="0.368" stroke-linecap="round" stroke-linejoin="round"/>
<path d="M 21.623 30.600 L 22.697 30.600" fill="none" stroke="#e8e4da" stroke-width="0.368" stroke-linecap="round" stroke-linejoin="round"/>
<path d="M 17.483 52.750 L 17.483 50.450 L 18.633 50.450 L 19.017 50.795 L 19.017 51.332 L 18.633 51.677 L 17.483 51.677" fill="none" stroke="#e8e4da" stroke-width="0.368" stroke-linecap="round" stroke-linejoin="round"/>
<path d="M 18.250 51.677 L 19.017 52.750" fill="none" stroke="#e8e4da" stroke-width="0.368" stroke-linecap="round" stroke-linejoin="round"/>
<path d="M 21.087 50.450 L 19.553 50.450 L 19.553 52.750 L 21.087 52.750" fill="none" stroke="#e8e4da" stroke-width="0.368" stroke-linecap="round" stroke-linejoin="round"/>
<path d="M 19.553 51.600 L 20.627 51.600" fill="none" stroke="#e8e4da" stroke-width="0.368" stroke-linecap="round" stroke-linejoin="round"/>
<path d="M 23.157 50.795 L 22.773 50.450 L 22.007 50.450 L 21.623 50.795 L 21.623 51.255 L 22.007 51.600 L 22.773 51.600 L 23.157 51.945 L 23.157 52.405 L 22.773 52.750 L 22.007 52.750 L 21.623 52.405" fill="none" stroke="#e8e4da" stroke-width="0.368" stroke-linecap="round" stroke-linejoin="round"/>
<path d="M 17.483 71.450 L 17.483 73.750" fill="none" stroke="#e8e4da" stroke-width="0.368" stroke-linecap="round" stroke-linejoin="round"/>
<path d="M 19.017 71.450 L 19.017 73.750" fill="none" stroke="#e8e4da" stroke-width="0.368" stroke-linecap="round" stroke-linejoin="round"/>
<path d="M 17.483 72.600 L 19.017 72.600" fill="none" stroke="#e8e4da" stroke-width="0.368" stroke-linecap="round" stroke-linejoin="round"/>
<path d="M 19.553 73.750 L 19.553 71.450 L 20.703 71.450 L 21.087 71.795 L 21.087 72.332 L 20.703 72.677 L 19.553 72.677" fill="none" stroke="#e8e4da" stroke-width="0.368" stroke-linecap="round" stroke-linejoin="round"/>
<path d="M 23.157 71.450 L 21.623 71.450 L 21.623 73.750" fill="none" stroke="#e8e4da" stroke-width="0.368" stroke-linecap="round" stroke-linejoin="round"/>
<path d="M 21.623 72.600 L 22.697 72.600" fill="none" stroke="#e8e4da" stroke-width="0.368" stroke-linecap="round" stroke-linejoin="round"/>
<path d="M 4.307 14.000 L 4.307 15.600 L 5.373 15.600" fill="none" stroke="#8b8f99" stroke-width="0.280" stroke-linecap="round" stroke-linejoin="round"/>
<path d="M 6.280 14.000 L 6.280 15.600" fill="none" stroke="#8b8f99" stroke-width="0.280" stroke-linecap="round" stroke-linejoin="round"/>
<path d="M 7.187 15.600 L 7.187 14.000 L 8.253 15.600 L 8.253 14.000" fill="none" stroke="#8b8f99" stroke-width="0.280" stroke-linecap="round" stroke-linejoin="round"/>
<path d="M 8.627 14.000 L 8.627 15.600" fill="none" stroke="#8b8f99" stroke-width="0.280" stroke-linecap="round" stroke-linejoin="round"/>
<path d="M 9.693 14.000 L 8.627 14.853 L 9.693 15.600" fill="none" stroke="#8b8f99" stroke-width="0.280" stroke-linecap="round" stroke-linejoin="round"/>
<path d="M 5.027 35.600 L 5.027 34.000 L 5.827 34.000 L 6.093 34.240 L 6.093 34.613 L 5.827 34.853 L 5.027 34.853" fill="none" stroke="#8b8f99" stroke-width="0.280" stroke-linecap="round" stroke-linejoin="round"/>
<path d="M 5.560 34.853 L 6.093 35.600" fill="none" stroke="#8b8f99" stroke-width="0.280" stroke-linecap="round" stroke-linejoin="round"/>
<path d="M 7.533 34.000 L 6.467 34.000 L 6.467 35.600 L 7.533 35.600" fill="none" stroke="#8b8f99" stroke-width="0.280" stroke-linecap="round" stroke-linejoin="round"/>
<path d="M 6.467 34.800 L 7.213 34.800" fill="none" stroke="#8b8f99" stroke-width="0.280" stroke-linecap="round" stroke-linejoin="round"/>
<path d="M 8.973 34.240 L 8.707 34.000 L 8.173 34.000 L 7.907 34.240 L 7.907 34.560 L 8.173 34.800 L 8.707 34.800 L 8.973 35.040 L 8.973 35.360 L 8.707 35.600 L 8.173 35.600 L 7.907 35.360" fill="none" stroke="#8b8f99" stroke-width="0.280" stroke-linecap="round" stroke-linejoin="round"/>
<path d="M 5.747 47.600 L 5.747 49.200" fill="none" stroke="#8b8f99" stroke-width="0.280" stroke-linecap="round" stroke-linejoin="round"/>
<path d="M 6.813 47.600 L 6.813 49.200" fill="none" stroke="#8b8f99" stroke-width="0.280" stroke-linecap="round" stroke-linejoin="round"/>
<path d="M 5.747 48.400 L 6.813 48.400" fill="none" stroke="#8b8f99" stroke-width="0.280" stroke-linecap="round" stroke-linejoin="round"/>
<path d="M 7.187 49.200 L 7.187 47.600 L 7.987 47.600 L 8.253 47.840 L 8.253 48.213 L 7.987 48.453 L 7.187 48.453" fill="none" stroke="#8b8f99" stroke-width="0.280" stroke-linecap="round" stroke-linejoin="round"/>
<path d="M 31.627 35.600 L 31.627 34.000 L 32.427 34.000 L 32.693 34.240 L 32.693 34.613 L 32.427 34.853 L 31.627 34.853" fill="none" stroke="#8b8f99" stroke-width="0.280" stroke-linecap="round" stroke-linejoin="round"/>
<path d="M 32.160 34.853 L 32.693 35.600" fill="none" stroke="#8b8f99" stroke-width="0.280" stroke-linecap="round" stroke-linejoin="round"/>
<path d="M 34.133 34.000 L 33.067 34.000 L 33.067 35.600 L 34.133 35.600" fill="none" stroke="#8b8f99" stroke-width="0.280" stroke-linecap="round" stroke-linejoin="round"/>
<path d="M 33.067 34.800 L 33.813 34.800" fill="none" stroke="#8b8f99" stroke-width="0.280" stroke-linecap="round" stroke-linejoin="round"/>
<path d="M 35.573 34.240 L 35.307 34.000 L 34.773 34.000 L 34.507 34.240 L 34.507 34.560 L 34.773 34.800 L 35.307 34.800 L 35.573 35.040 L 35.573 35.360 L 35.307 35.600 L 34.773 35.600 L 34.507 35.360" fill="none" stroke="#8b8f99" stroke-width="0.280" stroke-linecap="round" stroke-linejoin="round"/>
<path d="M 32.347 47.600 L 32.347 49.200 L 33.413 49.200" fill="none" stroke="#8b8f99" stroke-width="0.280" stroke-linecap="round" stroke-linejoin="round"/>
<path d="M 33.787 49.200 L 33.787 47.600 L 34.587 47.600 L 34.853 47.840 L 34.853 48.213 L 34.587 48.453 L 33.787 48.453" fill="none" stroke="#8b8f99" stroke-width="0.280" stroke-linecap="round" stroke-linejoin="round"/>
<circle cx="8.0" cy="84.0" r="4.4" fill="none" stroke="#3c414b" stroke-width="0.5"/>
<path d="M 6.027 76.900 L 6.027 78.500 L 7.093 78.500" fill="none" stroke="#8b8f99" stroke-width="0.280" stroke-linecap="round" stroke-linejoin="round"/>
<path d="M 7.467 78.500 L 7.467 76.900 L 8.267 76.900 L 8.533 77.140 L 8.533 77.513 L 8.267 77.753 L 7.467 77.753" fill="none" stroke="#8b8f99" stroke-width="0.280" stroke-linecap="round" stroke-linejoin="round"/>
<path d="M 9.973 76.900 L 8.907 76.900 L 8.907 78.500" fill="none" stroke="#8b8f99" stroke-width="0.280" stroke-linecap="round" stroke-linejoin="round"/>
<path d="M 8.907 77.700 L 9.653 77.700" fill="none" stroke="#8b8f99" stroke-width="0.280" stroke-linecap="round" stroke-linejoin="round"/>
<circle cx="20.32" cy="84.0" r="4.4" fill="none" stroke="#3c414b" stroke-width="0.5"/>
<path d="M 18.347 78.500 L 18.347 76.900 L 19.147 76.900 L 19.413 77.140 L 19.413 77.513 L 19.147 77.753 L 18.347 77.753" fill="none" stroke="#8b8f99" stroke-width="0.280" stroke-linecap="round" stroke-linejoin="round"/>
<path d="M 18.880 77.753 L 19.413 78.500" fill="none" stroke="#8b8f99" stroke-width="0.280" stroke-linecap="round" stroke-linejoin="round"/>
<path d="M 20.853 76.900 L 19.787 76.900 L 19.787 78.500 L 20.853 78.500" fill="none" stroke="#8b8f99" stroke-width="0.280" stroke-linecap="round" stroke-linejoin="round"/>
<path d="M 19.787 77.700 L 20.533 77.700" fill="none" stroke="#8b8f99" stroke-width="0.280" stroke-linecap="round" stroke-linejoin="round"/>
<path d="M 22.293 77.140 L 22.027 76.900 L 21.493 76.900 L 21.227 77.140 L 21.227 77.460 L 21.493 77.700 L 22.027 77.700 L 22.293 77.940 L 22.293 78.260 L 22.027 78.500 L 21.493 78.500 L 21.227 78.260" fill="none" stroke="#8b8f99" stroke-width="0.280" stroke-linecap="round" stroke-linejoin="round"/>
<circle cx="32.6" cy="84.0" r="4.4" fill="none" stroke="#3c414b" stroke-width="0.5"/>
<path d="M 30.627 76.900 L 30.627 78.500" fill="none" stroke="#8b8f99" stroke-width="0.280" stroke-linecap="round" stroke-linejoin="round"/>
<path d="M 31.693 76.900 L 31.693 78.500" fill="none" stroke="#8b8f99" stroke-width="0.280" stroke-linecap="round" stroke-linejoin="round"/>
<path d="M 30.627 77.700 L 31.693 77.700" fill="none" stroke="#8b8f99" stroke-width="0.280" stroke-linecap="round" stroke-linejoin="round"/>
<path d="M 32.067 78.500 L 32.067 76.900 L 32.867 76.900 L 33.133 77.140 L 33.133 77.513 L 32.867 77.753 L 32.067 77.753" fill="none" stroke="#8b8f99" stroke-width="0.280" stroke-linecap="round" stroke-linejoin="round"/>
<path d="M 34.573 76.900 L 33.507 76.900 L 33.507 78.500" fill="none" stroke="#8b8f99" stroke-width="0.280" stroke-linecap="round" stroke-linejoin="round"/>
<path d="M 33.507 77.700 L 34.253 77.700" fill="none" stroke="#8b8f99" stroke-width="0.280" stroke-linecap="round" stroke-linejoin="round"/>
<circle cx="8.0" cy="95.5" r="4.4" fill="none" stroke="#3c414b" stroke-width="0.5"/>
<path d="M 3.867 90.000 L 3.867 88.400 L 4.667 88.400 L 4.933 88.640 L 4.933 89.013 L 4.667 89.253 L 3.867 89.253" fill="none" stroke="#8b8f99" stroke-width="0.280" stroke-linecap="round" stroke-linejoin="round"/>
<path d="M 5.307 90.000 L 5.840 88.400 L 6.373 90.000" fill="none" stroke="#8b8f99" stroke-width="0.280" stroke-linecap="round" stroke-linejoin="round"/>
<path d="M 5.547 89.440 L 6.133 89.440" fill="none" stroke="#8b8f99" stroke-width="0.280" stroke-linecap="round" stroke-linejoin="round"/>
<path d="M 6.747 90.000 L 6.747 88.400 L 7.813 90.000 L 7.813 88.400" fill="none" stroke="#8b8f99" stroke-width="0.280" stroke-linecap="round" stroke-linejoin="round"/>
<path d="M 9.627 88.400 L 9.627 90.000 L 10.693 90.000" fill="none" stroke="#8b8f99" stroke-width="0.280" stroke-linecap="round" stroke-linejoin="round"/>
<path d="M 11.067 90.000 L 11.067 88.400 L 11.867 88.400 L 12.133 88.640 L 12.133 89.013 L 11.867 89.253 L 11.067 89.253" fill="none" stroke="#8b8f99" stroke-width="0.280" stroke-linecap="round" stroke-linejoin="round"/>
<circle cx="32.6" cy="95.5" r="4.4" fill="none" stroke="#3c414b" stroke-width="0.5"/>
<path d="M 28.467 90.000 L 28.467 88.400 L 29.267 88.400 L 29.533 88.640 L 29.533 89.013 L 29.267 89.253 L 28.467 89.253" fill="none" stroke="#8b8f99" stroke-width="0.280" stroke-linecap="round" stroke-linejoin="round"/>
<path d="M 29.907 90.000 L 30.440 88.400 L 30.973 90.000" fill="none" stroke="#8b8f99" stroke-width="0.280" stroke-linecap="round" stroke-linejoin="round"/>
<path d="M 30.147 89.440 L 30.733 89.440" fill="none" stroke="#8b8f99" stroke-width="0.280" stroke-linecap="round" stroke-linejoin="round"/>
<path d="M 31.347 90.000 L 31.347 88.400 L 32.413 90.000 L 32.413 88.400" fill="none" stroke="#8b8f99" stroke-width="0.280" stroke-linecap="round" stroke-linejoin="round"/>
<path d="M 34.227 88.400 L 34.227 90.000" fill="none" stroke="#8b8f99" stroke-width="0.280" stroke-linecap="round" stroke-linejoin="round"/>
<path d="M 35.293 88.400 L 35.293 90.000" fill="none" stroke="#8b8f99" stroke-width="0.280" stroke-linecap="round" stroke-linejoin="round"/>
<path d="M 34.227 89.200 L 35.293 89.200" fill="none" stroke="#8b8f99" stroke-width="0.280" stroke-linecap="round" stroke-linejoin="round"/>
<path d="M 35.667 90.000 L 35.667 88.400 L 36.467 88.400 L 36.733 88.640 L 36.733 89.013 L 36.467 89.253 L 35.667 89.253" fill="none" stroke="#8b8f99" stroke-width="0.280" stroke-linecap="round" stroke-linejoin="round"/>
<circle cx="8.0" cy="107.0" r="4.4" fill="none" stroke="#3c414b" stroke-width="0.5"/>
<path d="M 5.840 99.900 L 5.840 101.500" fill="none" stroke="#8b8f99" stroke-width="0.280" stroke-linecap="round" stroke-linejoin="round"/>
<path d="M 6.747 101.500 L 6.747 99.900 L 7.813 101.500 L 7.813 99.900" fill="none" stroke="#8b8f99" stroke-width="0.280" stroke-linecap="round" stroke-linejoin="round"/>
<path d="M 9.893 100.220 L 10.213 99.900 L 10.213 101.500" fill="none" stroke="#8b8f99" stroke-width="0.280" stroke-linecap="round" stroke-linejoin="round"/>
<path d="M 9.893 101.500 L 10.533 101.500" fill="none" stroke="#8b8f99" stroke-width="0.280" stroke-linecap="round" stroke-linejoin="round"/>
<circle cx="32.6" cy="107.0" r="4.4" fill="none" stroke="#3c414b" stroke-width="0.5"/>
<path d="M 30.440 99.900 L 30.440 101.500" fill="none" stroke="#8b8f99" stroke-width="0.280" stroke-linecap="round" stroke-linejoin="round"/>
<path d="M 31.347 101.500 L 31.347 99.900 L 32.413 101.500 L 32.413 99.900" fill="none" stroke="#8b8f99" stroke-width="0.280" stroke-linecap="round" stroke-linejoin="round"/>
<path d="M 34.227 100.167 L 34.493 99.900 L 35.027 99.900 L 35.293 100.167 L 35.293 100.433 L 34.227 101.500 L 35.293 101.500" fill="none" stroke="#8b8f99" stroke-width="0.280" stroke-linecap="round" stroke-linejoin="round"/>
<circle cx="8.0" cy="118.5" r="4.4" fill="none" stroke="#d9a441" stroke-width="0.5"/>
<path d="M 4.853 111.400 L 5.387 111.400 L 5.653 111.667 L 5.653 112.733 L 5.387 113.000 L 4.853 113.000 L 4.587 112.733 L 4.587 111.667 L 4.853 111.400" fill="none" stroke="#e8e4da" stroke-width="0.280" stroke-linecap="round" stroke-linejoin="round"/>
<path d="M 6.027 111.400 L 6.027 112.733 L 6.293 113.000 L 6.827 113.000 L 7.093 112.733 L 7.093 111.400" fill="none" stroke="#e8e4da" stroke-width="0.280" stroke-linecap="round" stroke-linejoin="round"/>
<path d="M 7.467 111.400 L 8.533 111.400" fill="none" stroke="#e8e4da" stroke-width="0.280" stroke-linecap="round" stroke-linejoin="round"/>
<path d="M 8.000 111.400 L 8.000 113.000" fill="none" stroke="#e8e4da" stroke-width="0.280" stroke-linecap="round" stroke-linejoin="round"/>
<path d="M 10.613 111.720 L 10.933 111.400 L 10.933 113.000" fill="none" stroke="#e8e4da" stroke-width="0.280" stroke-linecap="round" stroke-linejoin="round"/>
<path d="M 10.613 113.000 L 11.253 113.000" fill="none" stroke="#e8e4da" stroke-width="0.280" stroke-linecap="round" stroke-linejoin="round"/>
<circle cx="32.6" cy="118.5" r="4.4" fill="none" stroke="#d9a441" stroke-width="0.5"/>
<path d="M 29.453 111.400 L 29.987 111.400 L 30.253 111.667 L 30.253 112.733 L 29.987 113.000 L 29.453 113.000 L 29.187 112.733 L 29.187 111.667 L 29.453 111.400" fill="none" stroke="#e8e4da" stroke-width="0.280" stroke-linecap="round" stroke-linejoin="round"/>
<path d="M 30.627 111.400 L 30.627 112.733 L 30.893 113.000 L 31.427 113.000 L 31.693 112.733 L 31.693 111.400" fill="none" stroke="#e8e4da" stroke-width="0.280" stroke-linecap="round" stroke-linejoin="round"/>
<path d="M 32.067 111.400 L 33.133 111.400" fill="none" stroke="#e8e4da" stroke-width="0.280" stroke-linecap="round" stroke-linejoin="round"/>
<path d="M 32.600 111.400 L 32.600 113.000" fill="none" stroke="#e8e4da" stroke-width="0.280" stroke-linecap="round" stroke-linejoin="round"/>
<path d="M 34.947 111.667 L 35.213 111.400 L 35.747 111.400 L 36.013 111.667 L 36.013 111.933 L 34.947 113.000 L 36.013 113.000" fill="none" stroke="#e8e4da" stroke-width="0.280" stroke-linecap="round" stroke-linejoin="round"/>
</svg>
