<svg xmlns="http://www.w3.org/2000/svg" viewBox="0 0 22 3">
<g transform="translate(25.500,125.400) scale(0.00107422,-0.00107422)">
<path d="M1124 676V0H940V670Q940 829 878.0 908.0Q816 987 692 987Q543 987 457.0 892.0Q371 797 371 633V0H186V1556H371V946Q437 1047 526.5 1097.0Q616 1147 733 1147Q926 1147 1025.0 1027.5Q1124 908 1124 676Z" transform="translate(0.000,0)" fill="#c9d2dd"/>
<path d="M702 563Q479 563 393.0 512.0Q307 461 307 338Q307 240 371.5 182.5Q436 125 547 125Q700 125 792.5 233.5Q885 342 885 522V563ZM1069 639V0H885V170Q822 68 728.0 19.5Q634 -29 498 -29Q326 -29 224.5 67.5Q123 164 123 326Q123 515 249.5 611.0Q376 707 627 707H885V725Q885 852 801.5 921.5Q718 991 567 991Q471 991 380.0 968.0Q289 945 205 899V1069Q306 1108 401.0 1127.5Q496 1147 586 1147Q829 1147 949.0 1021.0Q1069 895 1069 639Z" transform="translate(2322.000,0)" fill="#c9d2dd"/>
<path d="M193 1556H377V0H193Z" transform="translate(4601.000,0)" fill="#c9d2dd"/>
<path d="M760 1556V1403H584Q485 1403 446.5 1363.0Q408 1323 408 1219V1120H711V977H408V0H223V977H47V1120H223V1198Q223 1385 310.0 1470.5Q397 1556 586 1556Z" transform="translate(6194.000,0)" fill="#c9d2dd"/>
<path d="M702 563Q479 563 393.0 512.0Q307 461 307 338Q307 240 371.5 182.5Q436 125 547 125Q700 125 792.5 233.5Q885 342 885 522V563ZM1069 639V0H885V170Q822 68 728.0 19.5Q634 -29 498 -29Q326 -29 224.5 67.5Q123 164 123 326Q123 515 249.5 611.0Q376 707 627 707H885V725Q885 852 801.5 921.5Q718 991 567 991Q471 991 380.0 968.0Q289 945 205 899V1069Q306 1108 401.0 1127.5Q496 1147 586 1147Q829 1147 949.0 1021.0Q1069 895 1069 639Z" transform="translate(7939.000,0)" fill="#c9d2dd"/>
<path d="M930 573Q930 773 847.5 883.0Q765 993 616 993Q468 993 385.5 883.0Q303 773 303 573Q303 374 385.5 264.0Q468 154 616 154Q765 154 847.5 264.0Q930 374 930 573ZM1114 139Q1114 -147 987.0 -286.5Q860 -426 598 -426Q501 -426 415.0 -411.5Q329 -397 248 -367V-188Q329 -232 408.0 -253.0Q487 -274 569 -274Q750 -274 840.0 -179.5Q930 -85 930 106V197Q873 98 784.0 49.0Q695 0 571 0Q365 0 239.0 157.0Q113 314 113 573Q113 833 239.0 990.0Q365 1147 571 1147Q695 1147 784.0 1098.0Q873 1049 930 950V1120H1114Z" transform="translate(10218.000,0)" fill="#c9d2dd"/>
<path d="M193 1120H377V0H193ZM193 1556H377V1323H193Z" transform="translate(12542.000,0)" fill="#c9d2dd"/>
<path d="M842 948Q811 966 774.5 974.5Q738 983 694 983Q538 983 454.5 881.5Q371 780 371 590V0H186V1120H371V946Q429 1048 522.0 1097.5Q615 1147 748 1147Q767 1147 790.0 1144.5Q813 1142 841 1137Z" transform="translate(14135.000,0)" fill="#c9d2dd"/>
<path d="M702 563Q479 563 393.0 512.0Q307 461 307 338Q307 240 371.5 182.5Q436 125 547 125Q700 125 792.5 233.5Q885 342 885 522V563ZM1069 639V0H885V170Q822 68 728.0 19.5Q634 -29 498 -29Q326 -29 224.5 67.5Q123 164 123 326Q123 515 249.5 611.0Q376 707 627 707H885V725Q885 852 801.5 921.5Q718 991 567 991Q471 991 380.0 968.0Q289 945 205 899V1069Q306 1108 401.0 1127.5Q496 1147 586 1147Q829 1147 949.0 1021.0Q1069 895 1069 639Z" transform="translate(16001.000,0)" fill="#c9d2dd"/>
<path d="M760 1556V1403H584Q485 1403 446.5 1363.0Q408 1323 408 1219V1120H711V977H408V0H223V977H47V1120H223V1198Q223 1385 310.0 1470.5Q397 1556 586 1556Z" transform="translate(18280.000,0)" fill="#c9d2dd"/>
</g>
</svg>
